{"glyphs":{"0":{"ha":1175,"x_min":138,"x_max":1263,"o":"m 507 -26 q 318 18 401 -26 q 186 156 235 63 q 138 396 138 250 q 161 623 138 506 q 230 854 185 740 q 341 1068 275 968 q 491 1245 407 1168 q 677 1366 575 1322 q 897 1410 779 1410 q 1084 1365 1001 1410 q 1215 1228 1167 1319 q 1263 996 1263 1136 q 1239 765 1263 885 q 1171 531 1215 646 q 1061 317 1126 417 q 912 140 996 217 q 726 18 828 63 q 507 -26 625 -26 m 536 93 q 698 131 621 93 q 842 235 775 168 q 962 388 908 301 q 1053 573 1015 475 q 1110 771 1090 671 q 1132 964 1131 871 q 1099 1156 1132 1085 q 1008 1258 1067 1226 q 868 1290 949 1290 q 703 1253 782 1290 q 558 1149 625 1215 q 438 996 492 1082 q 347 813 385 910 q 290 617 310 717 q 269 428 269 518 q 303 228 269 301 q 396 124 336 154 q 536 93 456 93 z "},"1":{"ha":693,"x_min":208,"x_max":778,"o":"m 265 -19 q 222 -9 236 -19 q 215 22 208 1 l 601 1224 q 520 1169 561 1196 q 441 1120 479 1143 q 368 1079 403 1097 q 317 1065 338 1064 q 281 1097 296 1065 q 278 1144 268 1128 q 322 1179 289 1161 q 414 1232 365 1203 q 510 1294 463 1261 q 599 1360 558 1328 q 640 1391 624 1381 q 675 1406 657 1401 q 722 1410 693 1410 q 764 1399 750 1410 q 771 1368 778 1389 l 342 19 q 317 -11 336 -3 q 265 -19 297 -19 z "},"2":{"ha":1022,"x_min":-36,"x_max":1136,"o":"m 4 0 q -26 15 -15 0 q -34 51 -36 31 q -12 88 -32 72 l 417 425 q 608 579 522 508 q 759 713 693 650 q 873 831 825 775 q 952 935 921 886 q 999 1029 983 983 q 1014 1118 1014 1075 q 988 1217 1014 1178 q 912 1275 963 1256 q 788 1294 861 1294 q 613 1259 690 1294 q 453 1165 535 1224 q 405 1144 425 1143 q 363 1171 385 1144 q 349 1208 344 1190 q 386 1253 354 1226 q 505 1333 438 1297 q 651 1389 572 1368 q 814 1410 731 1410 q 944 1390 885 1410 q 1046 1335 1003 1371 q 1113 1247 1089 1299 q 1136 1133 1136 1196 q 1119 1022 1136 1078 q 1069 907 1103 965 q 983 785 1036 849 q 856 653 929 722 q 689 503 783 583 q 479 332 594 424 l 199 111 l 814 111 q 834 104 828 111 q 840 83 840 97 q 823 23 840 46 q 785 0 806 0 l 4 0 z "},"3":{"ha":1050,"x_min":25,"x_max":1124,"o":"m 463 -26 q 307 -1 383 -26 q 166 74 231 25 q 56 190 101 122 q 29 242 33 224 q 54 282 25 261 q 97 300 81 303 q 132 269 113 297 q 227 167 176 208 q 339 106 278 126 q 481 86 400 86 q 644 113 574 86 q 760 185 714 139 q 829 296 806 232 q 853 432 853 360 q 821 570 853 513 q 728 659 789 628 q 583 690 668 690 l 492 690 q 471 703 476 690 q 472 746 465 717 q 494 788 481 774 q 524 801 508 801 l 606 801 q 760 820 689 801 q 885 876 832 839 q 967 972 938 914 q 997 1104 997 1029 q 981 1188 997 1151 q 935 1248 965 1224 q 864 1285 906 1272 q 771 1297 822 1297 q 664 1285 714 1297 q 566 1247 614 1272 q 468 1185 518 1222 q 423 1164 442 1164 q 381 1189 404 1164 q 366 1226 361 1210 q 400 1271 371 1243 q 510 1343 447 1311 q 644 1392 572 1375 q 792 1410 717 1410 q 918 1390 858 1410 q 1024 1331 978 1369 q 1097 1238 1071 1293 q 1124 1114 1124 1183 q 1102 978 1124 1040 q 1038 867 1081 915 q 933 784 996 818 q 786 733 871 750 q 890 670 847 714 q 957 567 933 626 q 981 438 981 507 q 945 254 981 339 q 842 106 910 169 q 679 8 775 43 q 463 -26 583 -26 z "},"4":{"ha":1069,"x_min":69,"x_max":1069,"o":"m 678 -19 q 632 -10 647 -19 q 624 22 617 0 l 738 369 l 114 369 q 76 397 83 369 q 92 450 69 425 l 882 1372 q 919 1402 900 1393 q 972 1410 939 1411 q 1009 1401 993 1407 q 1028 1381 1025 1394 q 1011 1346 1031 1368 l 264 481 l 774 481 l 922 933 q 993 972 935 972 q 1040 963 1025 972 q 1047 931 1054 953 l 900 481 l 1043 481 q 1063 473 1057 481 q 1069 453 1069 465 q 1052 392 1069 414 q 1014 369 1035 369 l 864 369 l 749 19 q 678 -19 736 -19 z "},"5":{"ha":1050,"x_min":33,"x_max":1217,"o":"m 471 -26 q 361 -14 417 -26 q 254 23 306 -1 q 156 85 203 47 q 71 171 110 122 q 40 222 46 203 q 60 263 33 240 q 102 285 86 286 q 142 257 118 283 q 242 162 190 200 q 356 106 294 124 q 493 88 417 88 q 663 123 589 88 q 787 220 736 158 q 864 363 838 282 q 890 532 890 443 q 877 633 890 589 q 836 710 864 678 q 764 758 808 742 q 657 775 719 775 q 541 761 596 775 q 436 722 486 747 q 343 665 386 697 q 294 645 322 650 q 249 654 265 640 q 246 708 232 668 l 472 1354 q 488 1376 476 1365 q 519 1386 500 1386 l 1190 1386 q 1210 1378 1203 1386 q 1217 1358 1217 1371 q 1199 1297 1217 1319 q 1161 1275 1182 1275 l 560 1275 l 394 803 q 476 847 433 828 q 567 876 519 865 q 663 886 615 886 q 857 842 778 886 q 977 722 936 799 q 1018 549 1018 644 q 977 304 1018 411 q 862 124 936 197 q 688 12 788 50 q 471 -26 589 -26 z "},"6":{"ha":1128,"x_min":183,"x_max":1189,"o":"m 578 -28 q 360 31 449 -28 q 228 195 272 90 q 183 439 183 300 q 226 743 183 600 q 352 1006 269 886 q 551 1213 435 1125 q 812 1352 667 1301 q 1125 1408 957 1403 q 1168 1403 1151 1410 q 1186 1365 1185 1397 q 1176 1316 1189 1328 q 1129 1303 1164 1304 q 849 1247 976 1294 q 622 1120 722 1200 q 453 935 522 1040 q 347 704 383 829 q 311 443 311 579 q 329 293 311 360 q 383 180 347 226 q 473 108 419 133 q 596 83 526 83 q 749 115 681 83 q 865 205 817 147 q 939 340 913 263 q 965 507 965 417 q 940 633 965 578 q 862 721 914 689 q 728 753 810 753 q 615 737 669 753 q 513 692 561 721 q 422 625 464 663 q 348 544 381 588 q 292 456 315 500 l 257 558 q 353 688 300 631 q 469 784 407 744 q 602 845 532 824 q 750 867 672 867 q 897 841 833 867 q 1004 769 961 815 q 1069 663 1047 724 q 1092 531 1092 601 q 1056 308 1092 410 q 953 131 1019 206 q 792 14 886 56 q 578 -28 697 -28 z "},"7":{"ha":851,"x_min":57,"x_max":1142,"o":"m 118 -19 q 63 0 69 -19 q 82 54 57 19 l 953 1275 l 333 1275 q 313 1282 319 1275 q 307 1303 307 1289 q 324 1363 307 1340 q 363 1386 342 1386 l 1092 1386 q 1126 1365 1111 1386 q 1119 1311 1142 1343 l 213 40 q 172 -4 193 11 q 118 -19 150 -19 z "},"8":{"ha":1050,"x_min":61,"x_max":1150,"o":"m 464 -26 q 299 -3 374 -26 q 172 63 225 19 q 90 165 119 106 q 61 301 61 225 q 96 449 61 381 q 193 575 131 518 q 340 677 256 632 q 525 754 425 722 q 415 849 457 799 q 355 952 374 899 q 336 1056 336 1006 q 369 1204 336 1139 q 463 1315 403 1269 q 607 1385 524 1361 q 790 1410 690 1410 q 931 1390 865 1410 q 1047 1335 997 1371 q 1123 1250 1096 1300 q 1150 1139 1150 1200 q 1122 1004 1150 1065 q 1044 894 1094 943 q 927 808 994 844 q 783 743 860 771 q 896 647 847 701 q 972 530 944 593 q 1000 396 1000 467 q 959 214 1000 293 q 845 81 918 135 q 674 1 772 28 q 464 -26 576 -26 m 493 86 q 641 107 572 86 q 762 167 710 128 q 842 263 814 207 q 871 389 871 318 q 842 512 871 457 q 761 612 814 567 q 633 694 708 657 q 460 624 540 664 q 318 534 379 583 q 222 426 257 485 q 188 301 188 367 q 215 203 188 244 q 285 137 242 163 q 383 99 329 111 q 493 86 438 86 m 678 801 q 860 883 782 835 q 981 990 938 932 q 1025 1111 1025 1049 q 1003 1193 1025 1158 q 946 1251 982 1228 q 864 1286 910 1275 q 768 1297 818 1297 q 651 1283 706 1297 q 553 1241 596 1269 q 487 1169 511 1213 q 463 1065 463 1125 q 492 956 463 1004 q 570 870 521 908 q 678 801 619 832 z "},"9":{"ha":1128,"x_min":167,"x_max":1171,"o":"m 776 1417 q 994 1358 907 1417 q 1126 1194 1082 1299 q 1171 950 1171 1089 q 1128 646 1171 789 q 1002 383 1085 503 q 803 176 919 264 q 542 37 688 88 q 229 -19 397 -14 q 187 -15 203 -21 q 168 24 171 -8 q 178 73 167 61 q 225 86 190 85 q 505 143 378 96 q 732 269 632 190 q 901 454 832 349 q 1007 685 971 560 q 1043 946 1043 810 q 1025 1096 1043 1029 q 971 1209 1007 1163 q 881 1281 935 1256 q 758 1306 828 1306 q 606 1274 674 1306 q 490 1184 538 1242 q 415 1049 442 1126 q 389 882 389 972 q 415 757 389 813 q 492 669 440 701 q 626 636 544 636 q 739 652 685 636 q 842 697 793 668 q 932 764 890 726 q 1006 845 974 801 q 1063 933 1039 889 l 1097 831 q 1001 701 1054 758 q 885 605 947 644 q 752 544 822 565 q 604 522 682 522 q 457 548 521 522 q 350 619 393 574 q 285 726 307 665 q 263 858 263 788 q 299 1081 263 979 q 401 1258 335 1183 q 563 1375 468 1333 q 776 1417 657 1417 z "},"\r":{"ha":417,"x_min":0,"x_max":0,"o":""}," ":{"ha":417,"x_min":0,"x_max":0,"o":""}," ":{"ha":139,"x_min":0,"x_max":0,"o":""}," ":{"ha":417,"x_min":0,"x_max":0,"o":""},"Ð":{"ha":1340,"x_min":86,"x_max":1367,"o":"m 147 0 q 99 39 86 0 l 525 1347 q 550 1376 532 1367 q 599 1386 568 1386 l 839 1386 q 1070 1353 971 1386 q 1235 1261 1169 1319 q 1334 1124 1301 1203 q 1367 954 1367 1044 q 1319 641 1367 786 q 1184 378 1271 496 q 981 176 1097 260 q 723 46 864 92 q 428 0 582 0 l 147 0 m 246 118 l 428 118 q 673 156 554 118 q 892 265 792 193 q 1069 440 993 338 q 1186 672 1144 543 q 1228 953 1228 801 q 1201 1085 1228 1026 q 1122 1185 1174 1144 q 999 1247 1071 1225 q 838 1268 926 1268 l 621 1268 l 246 118 m 165 650 q 138 665 140 650 q 139 699 135 681 q 153 735 143 718 q 189 751 163 751 l 736 751 q 765 735 763 751 q 764 699 768 718 q 750 665 760 681 q 715 650 740 650 l 165 650 z "},"Ŋ":{"ha":1369,"x_min":81,"x_max":1517,"o":"m 999 -181 q 934 -324 968 -275 q 861 -389 900 -372 q 775 -406 822 -406 q 686 -378 728 -406 q 614 -304 644 -351 q 601 -266 601 -282 q 628 -231 601 -250 q 665 -215 649 -215 q 694 -233 682 -215 q 727 -272 713 -257 q 756 -294 742 -287 q 785 -300 769 -300 q 824 -286 808 -300 q 854 -240 840 -272 q 885 -151 868 -207 l 942 21 l 593 1185 l 214 19 q 190 -10 208 0 q 142 -19 172 -19 q 93 19 81 -19 l 532 1372 q 557 1401 539 1392 q 604 1410 575 1410 q 642 1401 629 1410 q 663 1372 656 1392 l 1007 221 l 1381 1372 q 1406 1401 1388 1392 q 1453 1410 1424 1410 q 1501 1372 1517 1410 l 999 -181 z "},"Þ":{"ha":1114,"x_min":89,"x_max":1192,"o":"m 149 -19 q 103 -10 118 -19 q 94 22 89 0 l 533 1372 q 556 1401 540 1392 q 601 1410 571 1410 q 648 1400 633 1410 q 656 1368 663 1390 l 596 1192 l 775 1192 q 1006 1159 914 1192 q 1145 1059 1099 1126 q 1192 890 1192 992 q 1148 686 1192 775 q 1023 535 1104 597 q 828 433 942 472 q 576 375 715 393 q 451 365 517 368 q 326 360 386 361 l 217 19 q 195 -10 210 0 q 149 -19 181 -19 m 361 471 q 442 474 400 472 q 526 478 483 475 q 610 489 569 482 q 859 561 757 511 q 1013 690 961 611 q 1065 876 1065 768 q 1033 994 1065 949 q 932 1060 1000 1039 q 757 1081 864 1081 l 558 1081 l 361 471 z "},"ẞ":{"ha":1354,"x_min":79,"x_max":1303,"o":"m 722 -26 q 618 -19 668 -26 q 522 1 568 -12 q 435 36 476 15 q 406 63 413 47 q 411 106 399 78 q 437 140 422 132 q 478 138 451 149 q 556 112 518 122 q 638 97 594 101 q 732 92 681 92 q 878 115 811 92 q 994 181 944 138 q 1072 283 1044 224 q 1099 415 1099 343 q 1085 514 1099 469 q 1049 597 1071 558 q 997 668 1026 635 q 938 733 968 701 q 880 797 908 765 q 829 862 851 828 q 794 935 807 896 q 781 1021 781 974 q 804 1134 782 1083 q 867 1224 826 1185 q 958 1289 907 1263 q 758 1230 839 1269 q 624 1131 678 1190 q 535 996 571 1072 q 469 826 499 919 l 207 19 q 183 -10 201 0 q 135 -19 165 -19 q 92 -10 104 -19 q 85 19 79 0 l 347 826 q 428 1033 383 940 q 538 1195 474 1125 q 694 1313 601 1265 q 920 1385 788 1361 q 1236 1410 1053 1410 l 1274 1410 q 1299 1397 1294 1410 q 1292 1353 1303 1385 q 1270 1308 1283 1321 q 1236 1296 1257 1296 q 1110 1278 1169 1296 q 1003 1229 1050 1261 q 931 1151 957 1197 q 906 1044 906 1104 q 921 969 907 1004 q 958 903 935 935 q 1010 842 981 872 q 1069 778 1039 811 q 1127 710 1099 746 q 1178 631 1156 674 q 1213 535 1200 588 q 1226 418 1226 482 q 1190 242 1226 324 q 1085 101 1153 161 q 924 7 1017 40 q 722 -26 832 -26 z "},"ŋ":{"ha":851,"x_min":17,"x_max":786,"o":"m 565 -151 q 505 -283 536 -239 q 439 -340 474 -326 q 360 -354 404 -354 q 281 -331 319 -354 q 215 -267 243 -308 q 201 -230 201 -246 q 226 -194 200 -214 q 264 -179 247 -179 q 294 -196 281 -179 q 335 -238 318 -226 q 371 -250 353 -250 q 414 -222 399 -250 q 451 -121 429 -193 l 651 478 q 661 549 664 519 q 637 595 658 579 q 574 611 615 611 q 488 590 532 611 q 401 531 444 569 q 317 440 357 493 q 244 322 278 388 l 144 15 q 124 -12 139 -3 q 78 -21 110 -21 q 36 -11 56 -21 q 26 25 17 -1 l 235 671 q 258 707 244 699 q 297 715 271 715 q 352 702 340 715 q 354 661 364 689 l 319 554 q 389 625 353 594 q 463 678 425 656 q 539 710 500 700 q 617 721 578 721 q 736 685 696 721 q 781 583 776 649 q 758 432 786 518 l 565 -151 z "},"$":{"ha":1039,"x_min":42,"x_max":1153,"o":"m 464 -29 q 326 -13 389 -29 q 214 28 264 3 q 124 88 164 54 q 54 158 85 122 q 50 189 42 174 q 72 217 58 204 q 106 236 90 232 q 135 226 121 240 q 217 159 169 190 q 326 108 264 128 q 465 89 388 89 q 608 108 543 89 q 723 165 674 128 q 799 258 772 201 q 826 389 826 314 q 812 472 826 435 q 769 539 797 508 q 702 597 742 569 q 610 653 663 625 q 517 708 561 679 q 438 771 474 738 q 376 844 401 804 q 336 934 350 885 q 322 1046 322 983 q 353 1191 322 1125 q 442 1306 383 1257 q 583 1383 501 1356 q 765 1410 664 1410 q 913 1387 843 1410 q 1040 1327 982 1364 q 1139 1247 1097 1290 q 1150 1217 1153 1233 q 1128 1185 1147 1201 q 1096 1167 1113 1169 q 1065 1175 1079 1164 q 985 1233 1029 1207 q 888 1276 942 1260 q 765 1292 833 1292 q 639 1276 697 1292 q 538 1228 581 1260 q 473 1151 496 1197 q 450 1046 450 1106 q 463 957 450 997 q 502 884 475 917 q 572 820 529 851 q 678 757 615 789 q 798 683 746 722 q 885 599 850 643 q 937 503 919 556 q 954 390 954 451 q 918 219 954 296 q 815 86 882 142 q 660 1 749 31 q 464 -29 571 -29 m 324 -208 q 279 -169 267 -208 l 847 1575 q 915 1613 860 1613 q 958 1575 971 1613 l 390 -169 q 324 -208 378 -208 z "},"€":{"ha":1194,"x_min":104,"x_max":1350,"o":"m 629 -26 q 463 10 535 -26 q 342 112 392 46 q 268 267 293 178 q 243 463 243 357 q 268 673 243 564 q 340 888 293 782 q 453 1088 386 994 q 605 1255 519 1182 q 790 1369 690 1328 q 1003 1410 890 1410 q 1139 1390 1076 1410 q 1252 1331 1201 1369 q 1340 1238 1303 1293 q 1348 1210 1350 1224 q 1325 1181 1346 1196 q 1291 1166 1306 1165 q 1261 1181 1276 1167 q 1185 1242 1226 1217 q 1096 1280 1143 1267 q 992 1293 1049 1293 q 820 1256 901 1293 q 669 1156 739 1219 q 545 1009 600 1092 q 451 833 490 926 q 390 647 411 740 q 369 465 369 553 q 388 307 369 376 q 440 190 406 238 q 525 116 474 142 q 642 90 576 90 q 738 101 692 90 q 831 131 785 111 q 922 178 876 150 q 1013 243 967 207 q 1047 256 1032 258 q 1076 235 1063 253 q 1092 202 1092 218 q 1076 171 1093 186 q 922 56 997 99 q 775 -7 847 13 q 629 -26 703 -26 m 201 760 q 176 771 181 760 q 181 813 171 782 q 204 856 192 844 q 238 867 217 867 l 1032 867 q 1058 856 1053 867 q 1051 813 1063 844 q 1030 771 1043 782 q 996 760 1017 760 l 201 760 m 133 540 q 108 552 113 540 q 114 594 104 564 q 136 638 124 626 q 169 649 149 649 l 964 649 q 990 638 985 649 q 985 594 996 626 q 963 552 975 564 q 929 540 950 540 l 133 540 z "},"¢":{"ha":817,"x_min":94,"x_max":839,"o":"m 374 -26 q 217 12 279 -26 q 124 117 154 50 q 94 271 94 183 q 115 424 94 346 q 174 572 135 501 q 272 699 214 643 q 403 789 329 756 q 564 822 476 822 q 667 809 621 822 q 751 770 713 796 q 819 708 789 744 q 833 667 839 685 q 810 635 828 650 q 773 619 790 619 q 738 639 756 619 q 690 678 717 663 q 628 703 663 694 q 551 711 594 711 q 438 685 490 711 q 344 613 385 658 q 276 510 304 567 q 234 393 249 454 q 219 275 219 332 q 240 174 219 217 q 297 108 260 131 q 388 85 335 85 q 477 100 439 85 q 551 145 515 115 q 628 217 586 175 q 665 231 646 235 q 699 214 683 228 q 719 179 717 196 q 706 143 721 163 q 593 40 653 76 q 476 -12 533 3 q 374 -26 419 -26 m 264 -208 q 219 -169 207 -208 l 596 983 q 664 1022 608 1022 q 707 983 719 1022 l 331 -169 q 264 -208 318 -208 z "},"£":{"ha":1040,"x_min":-43,"x_max":1232,"o":"m -14 0 q -40 15 -37 0 q -33 60 -43 31 q -10 101 -22 92 q 22 111 3 111 l 211 111 l 353 544 l 194 544 q 169 557 174 544 q 174 599 164 569 q 197 641 185 631 q 231 651 210 651 l 388 651 l 531 1090 q 619 1268 567 1197 q 746 1374 672 1339 q 915 1410 819 1410 q 1082 1375 1003 1410 q 1215 1285 1161 1340 q 1232 1251 1232 1268 q 1208 1213 1232 1233 q 1169 1192 1186 1192 q 1132 1208 1153 1192 q 1020 1275 1079 1253 q 908 1297 961 1297 q 749 1244 813 1297 q 649 1081 686 1192 l 510 651 l 838 651 q 863 641 858 651 q 857 599 867 631 q 835 556 847 568 q 801 544 822 544 l 474 544 l 332 111 l 907 111 q 932 100 926 111 q 928 60 938 89 q 906 15 918 29 q 871 0 894 0 l -14 0 z "},"¥":{"ha":1033,"x_min":133,"x_max":1328,"o":"m 394 -19 q 346 19 333 -19 l 451 344 l 163 344 q 138 356 142 344 q 143 399 133 368 q 165 442 153 431 q 199 453 178 453 l 486 453 l 522 563 l 231 563 q 205 574 210 563 q 210 617 200 586 q 233 660 221 649 q 267 671 246 671 l 524 671 l 364 1347 q 373 1392 358 1375 q 424 1410 388 1410 q 467 1397 456 1410 q 483 1360 478 1385 l 631 739 l 1176 1364 q 1214 1399 1196 1388 q 1265 1410 1232 1410 q 1315 1388 1301 1410 q 1303 1338 1328 1367 l 718 671 l 982 671 q 1008 660 1003 671 q 1001 617 1013 649 q 979 574 992 586 q 946 563 967 563 l 647 563 l 611 453 l 914 453 q 940 442 935 453 q 935 399 944 431 q 912 356 925 368 q 878 344 899 344 l 576 344 l 471 19 q 394 -19 458 -19 z "},"%":{"ha":1271,"x_min":86,"x_max":1389,"o":"m 482 803 q 363 832 413 803 q 288 912 314 861 q 263 1025 263 963 q 278 1128 263 1075 q 321 1231 293 1181 q 388 1322 349 1282 q 478 1386 428 1363 q 589 1410 529 1410 q 708 1382 660 1410 q 783 1306 757 1354 q 808 1194 808 1257 q 794 1094 808 1147 q 751 990 779 1042 q 685 895 724 938 q 594 828 646 853 q 482 803 543 803 m 496 908 q 562 926 532 908 q 615 973 592 943 q 656 1039 639 1003 q 681 1113 672 1075 q 689 1186 689 1151 q 659 1276 689 1247 q 579 1304 629 1304 q 510 1286 542 1304 q 455 1238 479 1268 q 415 1172 431 1208 q 390 1099 399 1136 q 381 1031 381 1063 q 412 940 381 971 q 496 908 443 908 m 174 -12 q 145 -28 160 -28 q 110 -12 131 -29 q 87 18 88 6 q 101 47 86 31 l 1300 1396 q 1330 1412 1315 1411 q 1364 1396 1344 1413 q 1387 1367 1385 1379 q 1374 1338 1389 1354 l 174 -12 m 904 -26 q 785 3 833 -26 q 710 83 736 32 q 685 196 685 133 q 699 299 685 246 q 742 402 714 351 q 810 493 769 453 q 900 557 850 533 q 1010 581 950 581 q 1129 553 1081 581 q 1203 477 1178 525 q 1229 367 1229 429 q 1215 266 1229 319 q 1173 161 1200 213 q 1106 67 1146 110 q 1016 -1 1067 25 q 904 -26 965 -26 m 917 81 q 983 98 953 81 q 1036 145 1013 115 q 1076 211 1060 175 q 1101 285 1093 247 q 1110 357 1110 324 q 1080 447 1110 418 q 1001 475 1050 475 q 931 457 963 475 q 876 410 900 439 q 835 344 851 381 q 811 272 819 308 q 803 201 803 235 q 833 111 803 142 q 917 81 864 81 z "},".":{"ha":435,"x_min":32,"x_max":207,"o":"m 111 -47 q 51 -28 71 -47 q 32 26 32 -8 q 55 106 32 78 q 125 133 78 133 q 187 114 167 133 q 207 61 207 94 q 183 -19 207 10 q 111 -47 160 -47 z "},",":{"ha":435,"x_min":-72,"x_max":196,"o":"m -26 -279 q -56 -265 -40 -279 q -72 -237 -72 -251 q -70 -224 -72 -231 q -62 -210 -68 -217 q 5 -111 -21 -156 q 43 -24 31 -67 q 57 64 56 19 q 78 108 60 90 q 131 125 96 125 q 180 109 164 125 q 196 69 196 93 q 172 -46 196 17 q 106 -165 147 -108 q 14 -261 65 -222 q -8 -275 3 -271 q -26 -279 -18 -279 z "},":":{"ha":435,"x_min":32,"x_max":393,"o":"m 111 -47 q 51 -28 71 -47 q 32 26 32 -8 q 55 106 32 78 q 125 133 78 133 q 187 114 167 133 q 207 61 207 94 q 183 -19 207 10 q 111 -47 160 -47 m 297 558 q 238 578 257 558 q 218 632 218 597 q 241 711 218 683 q 311 739 264 739 q 373 719 353 739 q 393 667 393 700 q 369 587 393 615 q 297 558 346 558 z "},";":{"ha":435,"x_min":-54,"x_max":393,"o":"m 297 558 q 238 578 257 558 q 218 632 218 597 q 241 711 218 683 q 311 739 264 739 q 373 719 353 739 q 393 667 393 700 q 369 587 393 615 q 297 558 346 558 m -8 -279 q -38 -265 -22 -279 q -54 -237 -54 -251 q -52 -224 -54 -231 q -44 -210 -50 -217 q 23 -111 -3 -156 q 61 -24 49 -67 q 75 64 74 19 q 96 108 78 90 q 149 125 114 125 q 198 109 182 125 q 214 69 214 93 q 190 -46 214 17 q 124 -165 165 -108 q 32 -261 83 -222 q 10 -275 21 -271 q -8 -279 0 -279 z "},"…":{"ha":1178,"x_min":32,"x_max":950,"o":"m 483 -47 q 424 -28 443 -47 q 404 26 404 -8 q 427 106 404 78 q 497 133 450 133 q 559 114 539 133 q 579 61 579 94 q 556 -19 579 10 q 483 -47 532 -47 m 854 -47 q 794 -28 814 -47 q 775 26 775 -8 q 798 106 775 78 q 868 133 821 133 q 930 114 910 133 q 950 61 950 94 q 926 -19 950 10 q 854 -47 903 -47 m 111 -47 q 51 -28 71 -47 q 32 26 32 -8 q 55 106 32 78 q 125 133 78 133 q 187 114 167 133 q 207 61 207 94 q 183 -19 207 10 q 111 -47 160 -47 z "},"!":{"ha":539,"x_min":101,"x_max":664,"o":"m 257 300 q 208 339 196 300 l 529 1372 q 554 1401 536 1392 q 603 1410 572 1410 q 651 1372 664 1410 l 331 339 q 306 310 324 319 q 257 300 288 300 m 171 -19 q 122 -1 142 -19 q 103 53 103 18 q 126 124 101 90 q 201 157 150 157 q 249 139 231 157 q 269 85 268 121 q 247 14 271 47 q 171 -19 224 -19 z "},"¡":{"ha":539,"x_min":-110,"x_max":453,"o":"m 296 396 q 344 357 358 396 l 24 -676 q 0 -704 18 -694 q -49 -714 -18 -714 q -97 -676 -110 -714 l 224 357 q 249 386 231 376 q 296 396 267 396 m 383 715 q 431 697 411 715 q 451 643 450 679 q 428 572 453 606 q 351 539 404 539 q 304 558 324 539 q 285 611 285 576 q 308 682 283 649 q 383 715 332 715 z "},"?":{"ha":786,"x_min":133,"x_max":997,"o":"m 276 299 q 235 308 247 299 q 228 338 222 318 l 335 663 q 356 690 340 679 q 394 700 371 700 q 617 744 525 704 q 764 846 708 785 q 845 978 819 907 q 871 1114 871 1049 q 847 1211 871 1169 q 778 1276 824 1253 q 668 1299 733 1299 q 559 1282 613 1299 q 458 1238 506 1265 q 368 1181 410 1211 q 337 1177 354 1171 q 307 1201 319 1183 q 293 1240 293 1225 q 310 1267 293 1254 q 433 1347 371 1315 q 556 1394 496 1379 q 671 1410 617 1410 q 851 1369 779 1410 q 960 1263 924 1329 q 997 1114 997 1196 q 960 932 997 1019 q 852 774 924 844 q 676 656 781 703 q 433 593 571 608 l 350 338 q 326 308 344 318 q 276 299 307 299 m 200 -19 q 153 -1 172 -19 q 133 53 133 18 q 157 124 133 90 q 232 157 181 157 q 280 139 260 157 q 300 85 300 121 q 276 14 300 47 q 200 -19 253 -19 z "},"¿":{"ha":786,"x_min":-221,"x_max":642,"o":"m 499 397 q 541 388 528 397 q 547 358 554 378 l 440 33 q 420 7 435 17 q 382 -4 406 -3 q 158 -49 250 -8 q 11 -150 67 -89 q -70 -282 -44 -211 q -96 -418 -96 -353 q -72 -515 -96 -472 q -3 -580 -49 -557 q 107 -603 43 -603 q 217 -586 164 -603 q 319 -542 271 -569 q 408 -485 367 -514 q 440 -481 422 -474 q 468 -506 458 -487 q 483 -542 482 -528 q 467 -571 483 -557 q 343 -651 406 -619 q 221 -699 281 -683 q 104 -714 161 -714 q -76 -674 -4 -714 q -185 -566 -149 -633 q -221 -418 -221 -499 q -185 -236 -221 -324 q -77 -78 -149 -149 q 99 40 -6 -7 q 343 103 204 88 l 425 358 q 450 388 432 378 q 499 397 468 397 m 575 715 q 622 697 603 715 q 642 643 642 679 q 619 572 642 606 q 543 539 596 539 q 495 558 515 539 q 475 611 475 576 q 499 682 475 649 q 575 715 524 715 z "},"'":{"ha":235,"x_min":289,"x_max":510,"o":"m 322 988 q 290 1001 292 988 q 293 1031 289 1014 l 372 1340 q 397 1379 378 1363 q 450 1396 415 1396 q 499 1379 489 1396 q 501 1340 510 1363 l 381 1031 q 360 1001 374 1014 q 322 988 347 988 z "},"\"":{"ha":467,"x_min":289,"x_max":742,"o":"m 322 988 q 290 1001 292 988 q 293 1031 289 1014 l 372 1340 q 397 1379 378 1363 q 450 1396 415 1396 q 499 1379 489 1396 q 501 1340 510 1363 l 381 1031 q 360 1001 374 1014 q 322 988 347 988 m 554 988 q 522 1001 524 988 q 525 1031 521 1014 l 604 1340 q 628 1379 610 1363 q 682 1396 647 1396 q 731 1379 721 1396 q 733 1340 742 1363 l 613 1031 q 592 1001 606 1014 q 554 988 579 988 z "},"‘":{"ha":297,"x_min":300,"x_max":563,"o":"m 367 990 q 316 1007 332 990 q 300 1046 300 1024 q 313 1130 300 1085 q 350 1222 326 1175 q 406 1309 374 1268 q 475 1379 438 1350 q 497 1392 486 1388 q 515 1396 507 1396 q 547 1383 531 1396 q 563 1354 563 1369 q 560 1342 563 1349 q 551 1326 557 1335 q 487 1229 511 1274 q 451 1143 463 1185 q 439 1051 440 1101 q 419 1008 438 1025 q 367 990 400 990 z "},"’":{"ha":296,"x_min":279,"x_max":542,"o":"m 475 1396 q 526 1380 510 1396 q 542 1340 542 1364 q 528 1256 542 1301 q 492 1165 515 1211 q 436 1077 468 1118 q 367 1007 404 1036 q 345 994 356 999 q 326 990 335 990 q 296 1004 313 990 q 279 1032 279 1018 q 282 1045 279 1039 q 290 1060 285 1051 q 356 1157 332 1113 q 390 1244 379 1201 q 403 1335 401 1286 q 423 1378 404 1361 q 475 1396 442 1396 z "},"‚":{"ha":307,"x_min":-125,"x_max":143,"o":"m -79 -279 q -109 -265 -93 -279 q -125 -237 -125 -251 q -123 -224 -125 -231 q -115 -210 -121 -217 q -48 -111 -74 -156 q -10 -24 -22 -67 q 4 64 3 19 q 25 108 7 90 q 78 125 43 125 q 127 109 111 125 q 143 69 143 93 q 119 -46 143 17 q 53 -165 94 -108 q -39 -261 13 -222 q -60 -275 -50 -271 q -79 -279 -71 -279 z "},"“":{"ha":546,"x_min":300,"x_max":811,"o":"m 367 990 q 316 1007 332 990 q 300 1046 300 1024 q 313 1130 300 1085 q 350 1222 326 1175 q 406 1309 374 1268 q 475 1379 438 1350 q 497 1392 486 1388 q 515 1396 507 1396 q 547 1383 531 1396 q 563 1354 563 1369 q 560 1342 563 1349 q 551 1326 557 1335 q 487 1229 511 1274 q 451 1143 463 1185 q 439 1051 440 1101 q 419 1008 438 1025 q 367 990 400 990 m 617 990 q 566 1007 582 990 q 550 1046 550 1024 q 563 1130 550 1085 q 600 1222 576 1175 q 656 1309 624 1268 q 725 1379 688 1350 q 747 1392 736 1388 q 765 1396 757 1396 q 797 1383 781 1396 q 813 1354 813 1369 q 810 1342 813 1349 q 801 1326 807 1335 q 737 1229 761 1274 q 701 1143 713 1185 q 689 1051 690 1101 q 669 1008 688 1025 q 617 990 650 990 z "},"”":{"ha":546,"x_min":279,"x_max":790,"o":"m 725 1396 q 776 1380 760 1396 q 792 1340 792 1364 q 778 1256 792 1301 q 742 1165 765 1211 q 686 1077 718 1118 q 617 1007 654 1036 q 595 994 606 999 q 576 990 585 990 q 546 1004 563 990 q 529 1032 529 1018 q 532 1045 529 1039 q 540 1060 535 1051 q 606 1157 582 1113 q 640 1244 629 1201 q 653 1335 651 1286 q 673 1378 654 1361 q 725 1396 692 1396 m 475 1396 q 526 1380 510 1396 q 542 1340 542 1364 q 528 1256 542 1301 q 492 1165 515 1211 q 436 1077 468 1118 q 367 1007 404 1036 q 345 994 356 999 q 326 990 335 990 q 296 1004 313 990 q 279 1032 279 1018 q 282 1045 279 1039 q 290 1060 285 1051 q 356 1157 332 1113 q 390 1244 379 1201 q 403 1335 401 1286 q 423 1378 404 1361 q 475 1396 442 1396 z "},"„":{"ha":554,"x_min":-125,"x_max":390,"o":"m 168 -279 q 138 -265 154 -279 q 122 -237 122 -251 q 124 -224 122 -231 q 132 -210 126 -217 q 199 -111 174 -156 q 238 -24 225 -67 q 251 64 250 19 q 272 108 254 90 q 325 125 290 125 q 374 109 358 125 q 390 69 390 93 q 366 -46 390 17 q 301 -165 342 -108 q 208 -261 260 -222 q 187 -275 197 -271 q 168 -279 176 -279 m -79 -279 q -109 -265 -93 -279 q -125 -237 -125 -251 q -123 -224 -125 -231 q -115 -210 -121 -217 q -48 -111 -74 -156 q -10 -24 -22 -67 q 4 64 3 19 q 25 108 7 90 q 78 125 43 125 q 127 109 111 125 q 143 69 143 93 q 119 -46 143 17 q 53 -165 94 -108 q -39 -261 13 -222 q -60 -275 -50 -271 q -79 -279 -71 -279 z "},"«":{"ha":1007,"x_min":129,"x_max":996,"o":"m 339 -19 q 303 -11 318 -19 q 276 19 288 -3 l 146 297 q 133 326 136 315 q 129 342 129 336 q 142 365 129 353 q 181 401 154 378 l 492 678 q 537 707 517 699 q 578 715 557 715 q 622 703 604 715 q 644 675 640 692 q 629 640 649 658 l 271 322 l 394 56 q 393 3 410 25 q 339 -19 376 -19 m 686 -19 q 650 -11 665 -19 q 624 19 635 -3 l 493 297 q 480 326 483 315 q 476 342 476 336 q 489 365 476 353 q 528 401 501 378 l 839 678 q 884 707 864 699 q 925 715 904 715 q 969 703 951 715 q 992 675 988 692 q 976 640 996 658 l 618 322 l 742 56 q 740 3 757 25 q 686 -19 724 -19 z "},"»":{"ha":1007,"x_min":13,"x_max":879,"o":"m 82 -21 q 38 -9 57 -21 q 16 20 19 3 q 32 54 13 38 l 388 374 l 265 639 q 267 692 251 671 q 321 714 283 714 q 358 706 342 714 q 383 675 374 699 l 514 397 q 528 369 524 379 q 532 353 532 360 q 519 330 532 343 q 479 293 507 317 l 168 18 q 124 -12 144 -3 q 82 -21 103 -21 m 429 -21 q 385 -9 404 -21 q 363 20 367 3 q 379 54 360 38 l 735 374 l 613 639 q 615 692 599 671 q 668 714 631 714 q 705 706 689 714 q 731 675 721 699 l 861 397 q 875 369 871 379 q 879 353 879 360 q 867 330 879 343 q 826 293 854 317 l 515 18 q 471 -12 492 -3 q 429 -21 450 -21 z "},"‹":{"ha":660,"x_min":129,"x_max":649,"o":"m 339 -19 q 303 -11 318 -19 q 276 19 288 -3 l 146 297 q 133 326 136 315 q 129 342 129 336 q 142 365 129 353 q 181 401 154 378 l 492 678 q 537 707 517 699 q 578 715 557 715 q 622 703 604 715 q 644 675 640 692 q 629 640 649 658 l 271 322 l 394 56 q 393 3 410 25 q 339 -19 376 -19 z "},"›":{"ha":660,"x_min":13,"x_max":532,"o":"m 82 -21 q 38 -9 57 -21 q 16 20 19 3 q 32 54 13 38 l 388 374 l 265 639 q 267 692 251 671 q 321 714 283 714 q 358 706 342 714 q 383 675 374 699 l 514 397 q 528 369 524 379 q 532 353 532 360 q 519 330 532 343 q 479 293 507 317 l 168 18 q 124 -12 144 -3 q 82 -21 103 -21 z "},"Á":{"ha":1157,"x_min":-79,"x_max":1108,"o":"m -21 -19 q -68 2 -57 -19 q -58 54 -79 24 l 803 1354 q 843 1398 822 1386 q 897 1410 864 1410 q 940 1397 924 1410 q 957 1339 956 1383 l 1018 43 q 1005 -2 1021 15 q 953 -19 989 -19 q 913 -8 922 -19 q 900 32 903 4 l 883 396 l 306 396 l 69 36 q 30 -10 44 0 q -21 -19 15 -19 m 382 507 l 879 507 l 846 1214 l 382 507 m 828 1469 q 794 1488 813 1469 q 775 1521 775 1507 q 777 1532 775 1526 q 788 1546 779 1538 l 1007 1747 q 1020 1758 1014 1754 q 1035 1763 1026 1763 q 1066 1750 1049 1763 q 1096 1721 1083 1738 q 1108 1689 1108 1704 q 1106 1672 1108 1679 q 1088 1654 1103 1665 l 854 1483 q 840 1474 846 1478 q 828 1469 833 1469 z "},"Ă":{"ha":1157,"x_min":-79,"x_max":1210,"o":"m -21 -19 q -68 2 -57 -19 q -58 54 -79 24 l 803 1354 q 843 1398 822 1386 q 897 1410 864 1410 q 940 1397 924 1410 q 957 1339 956 1383 l 1018 43 q 1005 -2 1021 15 q 953 -19 989 -19 q 913 -8 922 -19 q 900 32 903 4 l 883 396 l 306 396 l 69 36 q 30 -10 44 0 q -21 -19 15 -19 m 382 507 l 879 507 l 846 1214 l 382 507 m 900 1469 q 746 1531 799 1469 q 707 1721 693 1593 q 722 1750 710 1742 q 756 1758 735 1758 q 790 1748 776 1758 q 803 1721 803 1738 q 835 1619 801 1650 q 922 1589 869 1589 q 1033 1626 986 1589 q 1104 1717 1079 1663 q 1128 1750 1115 1742 q 1160 1758 1140 1758 q 1197 1746 1183 1758 q 1203 1713 1210 1733 q 1131 1564 1171 1617 q 1035 1490 1092 1511 q 900 1469 979 1469 z "},"Ǎ":{"ha":1157,"x_min":-79,"x_max":1206,"o":"m -21 -19 q -68 2 -57 -19 q -58 54 -79 24 l 803 1354 q 843 1398 822 1386 q 897 1410 864 1410 q 940 1397 924 1410 q 957 1339 956 1383 l 1018 43 q 1005 -2 1021 15 q 953 -19 989 -19 q 913 -8 922 -19 q 900 32 903 4 l 883 396 l 306 396 l 69 36 q 30 -10 44 0 q -21 -19 15 -19 m 382 507 l 879 507 l 846 1214 l 382 507 m 1163 1758 q 1192 1742 1179 1758 q 1206 1710 1206 1725 q 1201 1689 1206 1696 q 1190 1676 1197 1682 l 964 1501 q 925 1477 943 1485 q 885 1469 907 1469 q 852 1479 867 1469 q 825 1507 838 1489 l 697 1688 q 689 1706 690 1699 q 688 1718 688 1713 q 708 1747 688 1735 q 742 1758 728 1758 q 763 1752 756 1758 q 779 1736 769 1746 l 910 1611 l 1122 1738 q 1142 1751 1132 1743 q 1163 1758 1151 1758 z "},"Â":{"ha":1157,"x_min":-79,"x_max":1169,"o":"m -21 -19 q -68 2 -57 -19 q -58 54 -79 24 l 803 1354 q 843 1398 822 1386 q 897 1410 864 1410 q 940 1397 924 1410 q 957 1339 956 1383 l 1018 43 q 1005 -2 1021 15 q 953 -19 989 -19 q 913 -8 922 -19 q 900 32 903 4 l 883 396 l 306 396 l 69 36 q 30 -10 44 0 q -21 -19 15 -19 m 382 507 l 879 507 l 846 1214 l 382 507 m 692 1469 q 664 1486 675 1469 q 653 1518 653 1503 q 658 1539 653 1532 q 668 1551 663 1546 l 893 1726 q 933 1751 914 1744 q 974 1758 951 1758 q 1006 1749 992 1758 q 1032 1722 1021 1740 l 1161 1542 q 1169 1524 1168 1532 q 1169 1510 1169 1517 q 1151 1481 1169 1493 q 1121 1469 1133 1469 q 1097 1476 1107 1469 q 1076 1493 1088 1483 l 947 1618 l 735 1485 q 715 1474 725 1479 q 692 1469 704 1469 z "},"Ä":{"ha":1157,"x_min":-79,"x_max":1181,"o":"m -21 -19 q -68 2 -57 -19 q -58 54 -79 24 l 803 1354 q 843 1398 822 1386 q 897 1410 864 1410 q 940 1397 924 1410 q 957 1339 956 1383 l 1018 43 q 1005 -2 1021 15 q 953 -19 989 -19 q 913 -8 922 -19 q 900 32 903 4 l 883 396 l 306 396 l 69 36 q 30 -10 44 0 q -21 -19 15 -19 m 382 507 l 879 507 l 846 1214 l 382 507 m 738 1517 q 689 1535 708 1517 q 669 1589 669 1553 q 695 1659 669 1626 q 771 1692 721 1692 q 818 1674 799 1692 q 838 1621 838 1657 q 814 1550 838 1583 q 738 1517 790 1517 m 1079 1517 q 1031 1535 1051 1517 q 1011 1589 1011 1553 q 1037 1659 1011 1626 q 1113 1692 1063 1692 q 1160 1674 1140 1692 q 1181 1621 1181 1657 q 1156 1550 1181 1583 q 1079 1517 1132 1517 z "},"Ǽ":{"ha":1486,"x_min":-76,"x_max":1747,"o":"m 1278 0 l 704 0 q 655 13 669 0 q 650 56 640 25 l 838 638 l 544 638 l 50 3 q 15 -19 36 -15 q -33 -17 -6 -24 q -68 9 -60 -8 q -61 46 -76 26 l 951 1342 q 985 1376 968 1365 q 1028 1386 1003 1386 l 1721 1386 q 1742 1372 1736 1386 q 1740 1331 1747 1358 q 1718 1289 1732 1303 q 1689 1275 1704 1275 l 1167 1275 l 997 749 l 1418 749 q 1439 735 1433 749 q 1436 693 1444 721 q 1415 651 1429 665 q 1386 638 1401 638 l 961 638 l 792 111 l 1310 111 q 1331 98 1325 111 q 1328 56 1336 85 q 1307 15 1321 29 q 1278 0 1293 0 m 631 749 l 874 749 l 1046 1282 l 631 749 m 1324 1469 q 1290 1488 1308 1469 q 1271 1521 1271 1507 q 1273 1532 1271 1526 q 1283 1546 1275 1538 l 1503 1747 q 1516 1758 1510 1754 q 1531 1763 1522 1763 q 1562 1750 1544 1763 q 1592 1721 1579 1738 q 1604 1689 1604 1704 q 1601 1672 1604 1679 q 1583 1654 1599 1665 l 1350 1483 q 1335 1474 1342 1478 q 1324 1469 1329 1469 z "},"À":{"ha":1157,"x_min":-79,"x_max":1022,"o":"m -21 -19 q -68 2 -57 -19 q -58 54 -79 24 l 803 1354 q 843 1398 822 1386 q 897 1410 864 1410 q 940 1397 924 1410 q 957 1339 956 1383 l 1018 43 q 1005 -2 1021 15 q 953 -19 989 -19 q 913 -8 922 -19 q 900 32 903 4 l 883 396 l 306 396 l 69 36 q 30 -10 44 0 q -21 -19 15 -19 m 382 507 l 879 507 l 846 1214 l 382 507 m 969 1469 q 957 1474 964 1469 q 943 1483 950 1478 l 744 1656 q 727 1674 731 1667 q 724 1690 724 1681 q 737 1722 724 1706 q 768 1751 750 1739 q 799 1763 786 1763 q 815 1758 808 1763 q 828 1747 821 1754 l 1011 1544 q 1021 1530 1019 1535 q 1022 1521 1022 1525 q 1003 1488 1022 1507 q 969 1469 985 1469 z "},"Ā":{"ha":1157,"x_min":-79,"x_max":1167,"o":"m -21 -19 q -68 2 -57 -19 q -58 54 -79 24 l 803 1354 q 843 1398 822 1386 q 897 1410 864 1410 q 940 1397 924 1410 q 957 1339 956 1383 l 1018 43 q 1005 -2 1021 15 q 953 -19 989 -19 q 913 -8 922 -19 q 900 32 903 4 l 883 396 l 306 396 l 69 36 q 30 -10 44 0 q -21 -19 15 -19 m 382 507 l 879 507 l 846 1214 l 382 507 m 731 1556 q 698 1572 704 1556 q 699 1613 692 1588 q 718 1658 706 1643 q 756 1674 731 1674 l 1128 1674 q 1162 1656 1156 1674 q 1161 1613 1168 1639 q 1142 1569 1154 1583 q 1104 1556 1129 1556 l 731 1556 z "},"Ą":{"ha":1157,"x_min":-79,"x_max":1021,"o":"m -21 -19 q -68 2 -57 -19 q -58 54 -79 24 l 803 1354 q 843 1398 822 1386 q 897 1410 864 1410 q 940 1397 924 1410 q 957 1339 956 1383 l 1018 43 q 1005 -2 1021 15 q 953 -19 989 -19 q 913 -8 922 -19 q 900 32 903 4 l 883 396 l 306 396 l 69 36 q 30 -10 44 0 q -21 -19 15 -19 m 382 507 l 879 507 l 846 1214 l 382 507 m 761 -357 q 688 -333 714 -357 q 663 -269 663 -308 q 685 -191 663 -229 q 744 -117 707 -153 q 826 -47 781 -82 q 921 22 872 -12 l 1013 24 l 1013 15 q 929 -50 969 -18 q 857 -112 889 -82 q 806 -169 825 -143 q 788 -218 788 -196 q 797 -242 788 -233 q 822 -250 806 -250 q 872 -234 847 -250 q 926 -192 897 -218 q 951 -180 938 -182 q 979 -192 965 -178 q 994 -215 989 -201 q 989 -243 999 -228 q 930 -299 968 -272 q 847 -341 892 -325 q 761 -357 803 -357 z "},"Å":{"ha":1157,"x_min":-79,"x_max":1133,"o":"m -21 -19 q -68 2 -57 -19 q -58 54 -79 24 l 803 1354 q 843 1398 822 1386 q 897 1410 864 1410 q 940 1397 924 1410 q 957 1339 956 1383 l 1018 43 q 1005 -2 1021 15 q 953 -19 989 -19 q 913 -8 922 -19 q 900 32 903 4 l 883 396 l 306 396 l 69 36 q 30 -10 44 0 q -21 -19 15 -19 m 382 507 l 879 507 l 846 1214 l 382 507 m 910 1460 q 816 1478 854 1460 q 758 1529 778 1496 q 739 1608 739 1563 q 768 1704 739 1661 q 847 1772 797 1747 q 958 1797 897 1797 q 1054 1779 1015 1797 q 1113 1728 1093 1761 q 1133 1647 1133 1694 q 1103 1551 1133 1593 q 1024 1484 1074 1508 q 910 1460 974 1460 m 917 1543 q 999 1572 965 1543 q 1032 1644 1032 1601 q 1013 1696 1032 1678 q 953 1714 993 1714 q 874 1684 907 1714 q 840 1613 840 1654 q 860 1561 840 1579 q 917 1543 881 1543 z "},"Ã":{"ha":1157,"x_min":-79,"x_max":1200,"o":"m -21 -19 q -68 2 -57 -19 q -58 54 -79 24 l 803 1354 q 843 1398 822 1386 q 897 1410 864 1410 q 940 1397 924 1410 q 957 1339 956 1383 l 1018 43 q 1005 -2 1021 15 q 953 -19 989 -19 q 913 -8 922 -19 q 900 32 903 4 l 883 396 l 306 396 l 69 36 q 30 -10 44 0 q -21 -19 15 -19 m 382 507 l 879 507 l 846 1214 l 382 507 m 704 1511 q 663 1549 660 1511 q 711 1683 672 1642 q 818 1725 750 1725 q 895 1710 863 1725 q 952 1675 928 1696 q 999 1639 976 1654 q 1049 1624 1022 1624 q 1081 1640 1067 1624 q 1100 1690 1094 1656 q 1158 1728 1107 1728 q 1190 1718 1181 1728 q 1197 1690 1199 1708 q 1150 1556 1188 1599 q 1044 1513 1113 1513 q 968 1528 1001 1513 q 908 1563 935 1543 q 859 1597 882 1582 q 811 1613 836 1613 q 778 1594 792 1613 q 757 1542 764 1576 q 741 1519 754 1526 q 704 1511 728 1511 z "},"Ắ":{"ha":1157,"x_min":-79,"x_max":1210,"o":"m -21 -19 q -68 2 -57 -19 q -58 54 -79 24 l 803 1354 q 843 1398 822 1386 q 897 1410 864 1410 q 940 1397 924 1410 q 957 1339 956 1383 l 1018 43 q 1005 -2 1021 15 q 953 -19 989 -19 q 913 -8 922 -19 q 900 32 903 4 l 883 396 l 306 396 l 69 36 q 30 -10 44 0 q -21 -19 15 -19 m 382 507 l 879 507 l 846 1214 l 382 507 m 900 1469 q 746 1531 799 1469 q 707 1721 693 1593 q 722 1750 710 1742 q 756 1758 735 1758 q 790 1748 776 1758 q 803 1721 803 1738 q 835 1619 801 1650 q 922 1589 869 1589 q 1033 1626 986 1589 q 1104 1717 1079 1663 q 1128 1750 1115 1742 q 1160 1758 1140 1758 q 1197 1746 1183 1758 q 1203 1713 1210 1733 q 1131 1564 1171 1617 q 1035 1490 1092 1511 q 900 1469 979 1469 m 896 1740 q 862 1759 881 1740 q 843 1793 843 1778 q 845 1803 843 1799 q 856 1817 847 1808 l 1075 2018 q 1088 2029 1082 2025 q 1103 2033 1094 2033 q 1134 2021 1117 2033 q 1164 1992 1151 2008 q 1176 1961 1176 1975 q 1174 1944 1176 1951 q 1156 1926 1171 1936 l 922 1754 q 908 1744 914 1749 q 896 1740 901 1740 z "},"Ặ":{"ha":1157,"x_min":-79,"x_max":1210,"o":"m -21 -19 q -68 2 -57 -19 q -58 54 -79 24 l 803 1354 q 843 1398 822 1386 q 897 1410 864 1410 q 940 1397 924 1410 q 957 1339 956 1383 l 1018 43 q 1005 -2 1021 15 q 953 -19 989 -19 q 913 -8 922 -19 q 900 32 903 4 l 883 396 l 306 396 l 69 36 q 30 -10 44 0 q -21 -19 15 -19 m 382 507 l 879 507 l 846 1214 l 382 507 m 371 -322 q 324 -304 343 -322 q 304 -251 304 -286 q 328 -181 304 -214 q 404 -147 353 -147 q 453 -165 433 -147 q 472 -218 472 -183 q 448 -290 472 -257 q 371 -322 424 -322 m 900 1469 q 746 1531 799 1469 q 707 1721 693 1593 q 722 1750 710 1742 q 756 1758 735 1758 q 790 1748 776 1758 q 803 1721 803 1738 q 835 1619 801 1650 q 922 1589 869 1589 q 1033 1626 986 1589 q 1104 1717 1079 1663 q 1128 1750 1115 1742 q 1160 1758 1140 1758 q 1197 1746 1183 1758 q 1203 1713 1210 1733 q 1131 1564 1171 1617 q 1035 1490 1092 1511 q 900 1469 979 1469 z "},"Ằ":{"ha":1157,"x_min":-79,"x_max":1210,"o":"m -21 -19 q -68 2 -57 -19 q -58 54 -79 24 l 803 1354 q 843 1398 822 1386 q 897 1410 864 1410 q 940 1397 924 1410 q 957 1339 956 1383 l 1018 43 q 1005 -2 1021 15 q 953 -19 989 -19 q 913 -8 922 -19 q 900 32 903 4 l 883 396 l 306 396 l 69 36 q 30 -10 44 0 q -21 -19 15 -19 m 382 507 l 879 507 l 846 1214 l 382 507 m 900 1469 q 746 1531 799 1469 q 707 1721 693 1593 q 722 1750 710 1742 q 756 1758 735 1758 q 790 1748 776 1758 q 803 1721 803 1738 q 835 1619 801 1650 q 922 1589 869 1589 q 1033 1626 986 1589 q 1104 1717 1079 1663 q 1128 1750 1115 1742 q 1160 1758 1140 1758 q 1197 1746 1183 1758 q 1203 1713 1210 1733 q 1131 1564 1171 1617 q 1035 1490 1092 1511 q 900 1469 979 1469 m 1025 1736 q 1013 1740 1019 1736 q 999 1750 1006 1744 l 800 1922 q 783 1940 786 1933 q 779 1957 779 1947 q 792 1989 779 1972 q 824 2017 806 2006 q 856 2029 842 2029 q 869 2025 863 2029 q 882 2014 875 2021 l 1065 1811 q 1076 1797 1075 1801 q 1078 1788 1078 1793 q 1059 1754 1078 1772 q 1025 1736 1040 1736 z "},"Ẳ":{"ha":1157,"x_min":-79,"x_max":1210,"o":"m -21 -19 q -68 2 -57 -19 q -58 54 -79 24 l 803 1354 q 843 1398 822 1386 q 897 1410 864 1410 q 940 1397 924 1410 q 957 1339 956 1383 l 1018 43 q 1005 -2 1021 15 q 953 -19 989 -19 q 913 -8 922 -19 q 900 32 903 4 l 883 396 l 306 396 l 69 36 q 30 -10 44 0 q -21 -19 15 -19 m 382 507 l 879 507 l 846 1214 l 382 507 m 900 1469 q 746 1531 799 1469 q 707 1721 693 1593 q 722 1750 710 1742 q 756 1758 735 1758 q 790 1748 776 1758 q 803 1721 803 1738 q 835 1619 801 1650 q 922 1589 869 1589 q 1033 1626 986 1589 q 1104 1717 1079 1663 q 1128 1750 1115 1742 q 1160 1758 1140 1758 q 1197 1746 1183 1758 q 1203 1713 1210 1733 q 1131 1564 1171 1617 q 1035 1490 1092 1511 q 900 1469 979 1469 m 1000 2046 q 1105 2017 1067 2046 q 1143 1935 1143 1988 q 1121 1861 1143 1893 q 1060 1810 1099 1829 q 1018 1781 1028 1794 q 1008 1756 1008 1768 l 1008 1740 q 997 1713 1010 1722 q 964 1703 983 1704 q 929 1708 944 1701 q 910 1731 914 1715 l 904 1767 q 912 1824 897 1799 q 960 1867 926 1849 q 996 1894 985 1879 q 1007 1921 1007 1908 q 998 1938 1007 1932 q 972 1944 989 1944 q 933 1938 954 1944 q 890 1919 913 1932 q 838 1950 858 1903 q 858 2007 824 1983 q 925 2036 890 2026 q 1000 2046 960 2046 z "},"Ẵ":{"ha":1157,"x_min":-79,"x_max":1258,"o":"m -21 -19 q -68 2 -57 -19 q -58 54 -79 24 l 803 1354 q 843 1398 822 1386 q 897 1410 864 1410 q 940 1397 924 1410 q 957 1339 956 1383 l 1018 43 q 1005 -2 1021 15 q 953 -19 989 -19 q 913 -8 922 -19 q 900 32 903 4 l 883 396 l 306 396 l 69 36 q 30 -10 44 0 q -21 -19 15 -19 m 382 507 l 879 507 l 846 1214 l 382 507 m 900 1469 q 746 1531 799 1469 q 707 1721 693 1593 q 722 1750 710 1742 q 756 1758 735 1758 q 790 1748 776 1758 q 803 1721 803 1738 q 835 1619 801 1650 q 922 1589 869 1589 q 1033 1626 986 1589 q 1104 1717 1079 1663 q 1128 1750 1115 1742 q 1160 1758 1140 1758 q 1197 1746 1183 1758 q 1203 1713 1210 1733 q 1131 1564 1171 1617 q 1035 1490 1092 1511 q 900 1469 979 1469 m 764 1799 q 722 1838 719 1799 q 771 1972 732 1929 q 878 2014 810 2014 q 955 1999 922 2014 q 1012 1963 988 1983 q 1059 1928 1036 1943 q 1108 1913 1082 1913 q 1140 1928 1126 1913 q 1160 1979 1154 1944 q 1218 2015 1167 2015 q 1249 2006 1240 2015 q 1257 1979 1258 1997 q 1210 1843 1247 1886 q 1104 1800 1172 1800 q 1028 1815 1061 1800 q 968 1851 994 1831 q 919 1886 942 1871 q 871 1901 896 1901 q 838 1883 851 1901 q 817 1831 824 1865 q 801 1807 814 1815 q 764 1799 788 1799 z "},"Ấ":{"ha":1157,"x_min":-79,"x_max":1411,"o":"m -21 -19 q -68 2 -57 -19 q -58 54 -79 24 l 803 1354 q 843 1398 822 1386 q 897 1410 864 1410 q 940 1397 924 1410 q 957 1339 956 1383 l 1018 43 q 1005 -2 1021 15 q 953 -19 989 -19 q 913 -8 922 -19 q 900 32 903 4 l 883 396 l 306 396 l 69 36 q 30 -10 44 0 q -21 -19 15 -19 m 382 507 l 879 507 l 846 1214 l 382 507 m 692 1469 q 664 1486 675 1469 q 653 1518 653 1503 q 658 1539 653 1532 q 668 1551 663 1546 l 893 1726 q 933 1751 914 1744 q 974 1758 951 1758 q 1006 1749 992 1758 q 1032 1722 1021 1740 l 1161 1542 q 1169 1524 1168 1532 q 1169 1510 1169 1517 q 1151 1481 1169 1493 q 1121 1469 1133 1469 q 1097 1476 1107 1469 q 1076 1493 1088 1483 l 947 1618 l 735 1485 q 715 1474 725 1479 q 692 1469 704 1469 m 1168 1685 q 1134 1704 1153 1685 q 1115 1736 1115 1724 q 1117 1747 1115 1742 q 1129 1763 1119 1753 l 1310 1939 q 1323 1951 1317 1947 q 1338 1956 1329 1956 q 1369 1943 1351 1956 q 1400 1913 1388 1931 q 1413 1881 1413 1896 q 1409 1864 1413 1871 q 1390 1847 1406 1857 l 1194 1699 q 1180 1688 1186 1692 q 1168 1685 1174 1685 z "},"Ậ":{"ha":1157,"x_min":-79,"x_max":1169,"o":"m -21 -19 q -68 2 -57 -19 q -58 54 -79 24 l 803 1354 q 843 1398 822 1386 q 897 1410 864 1410 q 940 1397 924 1410 q 957 1339 956 1383 l 1018 43 q 1005 -2 1021 15 q 953 -19 989 -19 q 913 -8 922 -19 q 900 32 903 4 l 883 396 l 306 396 l 69 36 q 30 -10 44 0 q -21 -19 15 -19 m 382 507 l 879 507 l 846 1214 l 382 507 m 371 -322 q 324 -304 343 -322 q 304 -251 304 -286 q 328 -181 304 -214 q 404 -147 353 -147 q 453 -165 433 -147 q 472 -218 472 -183 q 448 -290 472 -257 q 371 -322 424 -322 m 692 1469 q 664 1486 675 1469 q 653 1518 653 1503 q 658 1539 653 1532 q 668 1551 663 1546 l 893 1726 q 933 1751 914 1744 q 974 1758 951 1758 q 1006 1749 992 1758 q 1032 1722 1021 1740 l 1161 1542 q 1169 1524 1168 1532 q 1169 1510 1169 1517 q 1151 1481 1169 1493 q 1121 1469 1133 1469 q 1097 1476 1107 1469 q 1076 1493 1088 1483 l 947 1618 l 735 1485 q 715 1474 725 1479 q 692 1469 704 1469 z "},"Ầ":{"ha":1157,"x_min":-79,"x_max":1303,"o":"m -21 -19 q -68 2 -57 -19 q -58 54 -79 24 l 803 1354 q 843 1398 822 1386 q 897 1410 864 1410 q 940 1397 924 1410 q 957 1339 956 1383 l 1018 43 q 1005 -2 1021 15 q 953 -19 989 -19 q 913 -8 922 -19 q 900 32 903 4 l 883 396 l 306 396 l 69 36 q 30 -10 44 0 q -21 -19 15 -19 m 382 507 l 879 507 l 846 1214 l 382 507 m 692 1469 q 664 1486 675 1469 q 653 1518 653 1503 q 658 1539 653 1532 q 668 1551 663 1546 l 893 1726 q 933 1751 914 1744 q 974 1758 951 1758 q 1006 1749 992 1758 q 1032 1722 1021 1740 l 1161 1542 q 1169 1524 1168 1532 q 1169 1510 1169 1517 q 1151 1481 1169 1493 q 1121 1469 1133 1469 q 1097 1476 1107 1469 q 1076 1493 1088 1483 l 947 1618 l 735 1485 q 715 1474 725 1479 q 692 1469 704 1469 m 1247 1663 q 1235 1665 1242 1663 q 1222 1675 1229 1668 l 1050 1865 q 1034 1885 1039 1878 q 1029 1901 1029 1892 q 1042 1933 1029 1917 q 1075 1960 1056 1950 q 1110 1971 1094 1971 q 1126 1967 1118 1971 q 1139 1956 1133 1963 l 1292 1740 q 1301 1724 1299 1729 q 1303 1713 1303 1718 q 1285 1680 1303 1697 q 1247 1663 1267 1663 z "},"Ẩ":{"ha":1157,"x_min":-79,"x_max":1376,"o":"m -21 -19 q -68 2 -57 -19 q -58 54 -79 24 l 803 1354 q 843 1398 822 1386 q 897 1410 864 1410 q 940 1397 924 1410 q 957 1339 956 1383 l 1018 43 q 1005 -2 1021 15 q 953 -19 989 -19 q 913 -8 922 -19 q 900 32 903 4 l 883 396 l 306 396 l 69 36 q 30 -10 44 0 q -21 -19 15 -19 m 382 507 l 879 507 l 846 1214 l 382 507 m 692 1469 q 664 1486 675 1469 q 653 1518 653 1503 q 658 1539 653 1532 q 668 1551 663 1546 l 893 1726 q 933 1751 914 1744 q 974 1758 951 1758 q 1006 1749 992 1758 q 1032 1722 1021 1740 l 1161 1542 q 1169 1524 1168 1532 q 1169 1510 1169 1517 q 1151 1481 1169 1493 q 1121 1469 1133 1469 q 1097 1476 1107 1469 q 1076 1493 1088 1483 l 947 1618 l 735 1485 q 715 1474 725 1479 q 692 1469 704 1469 m 1235 1996 q 1340 1967 1301 1996 q 1378 1885 1378 1938 q 1356 1811 1378 1843 q 1294 1760 1333 1779 q 1253 1732 1263 1744 q 1243 1706 1243 1719 l 1243 1690 q 1231 1664 1244 1674 q 1198 1653 1217 1654 q 1164 1658 1179 1651 q 1144 1682 1149 1665 l 1138 1717 q 1146 1774 1131 1750 q 1194 1817 1161 1799 q 1231 1844 1219 1829 q 1242 1871 1242 1858 q 1233 1888 1242 1882 q 1207 1894 1224 1894 q 1168 1888 1189 1894 q 1124 1869 1147 1882 q 1072 1901 1093 1853 q 1092 1957 1058 1933 q 1160 1986 1125 1976 q 1235 1996 1194 1996 z "},"Ẫ":{"ha":1157,"x_min":-79,"x_max":1267,"o":"m -21 -19 q -68 2 -57 -19 q -58 54 -79 24 l 803 1354 q 843 1398 822 1386 q 897 1410 864 1410 q 940 1397 924 1410 q 957 1339 956 1383 l 1018 43 q 1005 -2 1021 15 q 953 -19 989 -19 q 913 -8 922 -19 q 900 32 903 4 l 883 396 l 306 396 l 69 36 q 30 -10 44 0 q -21 -19 15 -19 m 382 507 l 879 507 l 846 1214 l 382 507 m 692 1469 q 664 1486 675 1469 q 653 1518 653 1503 q 658 1539 653 1532 q 668 1551 663 1546 l 893 1726 q 933 1751 914 1744 q 974 1758 951 1758 q 1006 1749 992 1758 q 1032 1722 1021 1740 l 1161 1542 q 1169 1524 1168 1532 q 1169 1510 1169 1517 q 1151 1481 1169 1493 q 1121 1469 1133 1469 q 1097 1476 1107 1469 q 1076 1493 1088 1483 l 947 1618 l 735 1485 q 715 1474 725 1479 q 692 1469 704 1469 m 772 1779 q 731 1817 728 1779 q 779 1952 740 1910 q 886 1994 818 1994 q 963 1979 931 1994 q 1020 1943 996 1964 q 1067 1908 1044 1922 q 1117 1893 1090 1893 q 1149 1909 1135 1893 q 1168 1960 1163 1925 q 1226 1996 1175 1996 q 1258 1987 1249 1996 q 1264 1960 1267 1978 q 1218 1824 1256 1867 q 1113 1781 1181 1781 q 1036 1796 1069 1781 q 976 1831 1003 1811 q 927 1866 950 1851 q 879 1881 904 1881 q 846 1863 860 1881 q 825 1810 832 1846 q 809 1788 822 1796 q 772 1779 796 1779 z "},"Ạ":{"ha":1157,"x_min":-79,"x_max":1021,"o":"m -21 -19 q -68 2 -57 -19 q -58 54 -79 24 l 803 1354 q 843 1398 822 1386 q 897 1410 864 1410 q 940 1397 924 1410 q 957 1339 956 1383 l 1018 43 q 1005 -2 1021 15 q 953 -19 989 -19 q 913 -8 922 -19 q 900 32 903 4 l 883 396 l 306 396 l 69 36 q 30 -10 44 0 q -21 -19 15 -19 m 382 507 l 879 507 l 846 1214 l 382 507 m 371 -322 q 324 -304 343 -322 q 304 -251 304 -286 q 328 -181 304 -214 q 404 -147 353 -147 q 453 -165 433 -147 q 472 -218 472 -183 q 448 -290 472 -257 q 371 -322 424 -322 z "},"Ả":{"ha":1157,"x_min":-79,"x_max":1093,"o":"m -21 -19 q -68 2 -57 -19 q -58 54 -79 24 l 803 1354 q 843 1398 822 1386 q 897 1410 864 1410 q 940 1397 924 1410 q 957 1339 956 1383 l 1018 43 q 1005 -2 1021 15 q 953 -19 989 -19 q 913 -8 922 -19 q 900 32 903 4 l 883 396 l 306 396 l 69 36 q 30 -10 44 0 q -21 -19 15 -19 m 382 507 l 879 507 l 846 1214 l 382 507 m 950 1800 q 1054 1771 1017 1800 q 1092 1689 1092 1742 q 1069 1616 1092 1647 q 1008 1564 1047 1585 q 968 1536 978 1549 q 958 1510 958 1524 l 958 1494 q 946 1468 960 1478 q 913 1457 932 1458 q 878 1463 894 1456 q 860 1486 863 1469 l 853 1521 q 860 1578 846 1554 q 910 1621 875 1603 q 945 1648 933 1633 q 957 1675 957 1663 q 948 1692 957 1686 q 922 1699 939 1699 q 883 1692 904 1699 q 839 1674 861 1686 q 786 1706 807 1657 q 807 1761 774 1738 q 874 1790 839 1781 q 950 1800 910 1800 z "},"Ć":{"ha":1196,"x_min":208,"x_max":1399,"o":"m 658 -26 q 472 8 556 -26 q 331 109 389 43 q 240 268 272 175 q 208 478 208 361 q 231 680 208 574 q 299 890 254 786 q 412 1088 344 994 q 568 1253 479 1181 q 767 1368 657 1326 q 1008 1410 876 1410 q 1167 1390 1094 1410 q 1294 1333 1239 1369 q 1388 1242 1350 1296 q 1392 1215 1399 1226 q 1367 1188 1386 1203 q 1335 1172 1349 1174 q 1301 1186 1321 1169 q 1222 1244 1267 1221 q 1119 1280 1176 1268 q 988 1292 1063 1292 q 806 1257 892 1292 q 649 1163 721 1222 q 519 1024 576 1103 q 422 856 461 946 q 360 675 382 767 q 339 497 339 583 q 360 323 339 399 q 424 196 382 247 q 530 118 467 144 q 678 92 593 92 q 783 108 735 92 q 877 152 832 124 q 969 221 922 181 q 1069 311 1017 261 q 1101 321 1085 326 q 1132 299 1117 315 q 1152 264 1150 278 q 1139 233 1154 250 q 962 78 1046 135 q 802 -2 878 22 q 658 -26 726 -26 m 963 1469 q 928 1488 947 1469 q 910 1521 910 1507 q 912 1532 910 1526 q 922 1546 914 1538 l 1142 1747 q 1155 1758 1149 1754 q 1169 1763 1161 1763 q 1201 1750 1183 1763 q 1231 1721 1218 1738 q 1243 1689 1243 1704 q 1240 1672 1243 1679 q 1222 1654 1238 1665 l 989 1483 q 974 1474 981 1478 q 963 1469 968 1469 z "},"Č":{"ha":1196,"x_min":208,"x_max":1399,"o":"m 658 -26 q 472 8 556 -26 q 331 109 389 43 q 240 268 272 175 q 208 478 208 361 q 231 680 208 574 q 299 890 254 786 q 412 1088 344 994 q 568 1253 479 1181 q 767 1368 657 1326 q 1008 1410 876 1410 q 1167 1390 1094 1410 q 1294 1333 1239 1369 q 1388 1242 1350 1296 q 1392 1215 1399 1226 q 1367 1188 1386 1203 q 1335 1172 1349 1174 q 1301 1186 1321 1169 q 1222 1244 1267 1221 q 1119 1280 1176 1268 q 988 1292 1063 1292 q 806 1257 892 1292 q 649 1163 721 1222 q 519 1024 576 1103 q 422 856 461 946 q 360 675 382 767 q 339 497 339 583 q 360 323 339 399 q 424 196 382 247 q 530 118 467 144 q 678 92 593 92 q 783 108 735 92 q 877 152 832 124 q 969 221 922 181 q 1069 311 1017 261 q 1101 321 1085 326 q 1132 299 1117 315 q 1152 264 1150 278 q 1139 233 1154 250 q 962 78 1046 135 q 802 -2 878 22 q 658 -26 726 -26 m 1297 1758 q 1327 1742 1314 1758 q 1340 1710 1340 1725 q 1336 1689 1340 1696 q 1325 1676 1332 1682 l 1099 1501 q 1060 1477 1078 1485 q 1019 1469 1042 1469 q 987 1479 1001 1469 q 960 1507 972 1489 l 832 1688 q 824 1706 825 1699 q 822 1718 822 1713 q 842 1747 822 1735 q 876 1758 863 1758 q 897 1752 890 1758 q 914 1736 904 1746 l 1044 1611 l 1257 1738 q 1276 1751 1267 1743 q 1297 1758 1286 1758 z "},"Ç":{"ha":1196,"x_min":208,"x_max":1399,"o":"m 658 -26 q 472 8 556 -26 q 331 109 389 43 q 240 268 272 175 q 208 478 208 361 q 231 680 208 574 q 299 890 254 786 q 412 1088 344 994 q 568 1253 479 1181 q 767 1368 657 1326 q 1008 1410 876 1410 q 1167 1390 1094 1410 q 1294 1333 1239 1369 q 1388 1242 1350 1296 q 1392 1215 1399 1226 q 1367 1188 1386 1203 q 1335 1172 1349 1174 q 1301 1186 1321 1169 q 1222 1244 1267 1221 q 1119 1280 1176 1268 q 988 1292 1063 1292 q 806 1257 892 1292 q 649 1163 721 1222 q 519 1024 576 1103 q 422 856 461 946 q 360 675 382 767 q 339 497 339 583 q 360 323 339 399 q 424 196 382 247 q 530 118 467 144 q 678 92 593 92 q 783 108 735 92 q 877 152 832 124 q 969 221 922 181 q 1069 311 1017 261 q 1101 321 1085 326 q 1132 299 1117 315 q 1152 264 1150 278 q 1139 233 1154 250 q 962 78 1046 135 q 802 -2 878 22 q 658 -26 726 -26 m 506 -374 q 413 -363 454 -374 q 349 -335 372 -353 q 339 -306 338 -324 q 347 -276 340 -289 q 369 -252 357 -258 q 394 -251 381 -246 q 439 -269 413 -260 q 508 -278 465 -278 q 563 -267 543 -278 q 582 -229 582 -257 q 555 -191 582 -199 q 490 -187 528 -183 q 469 -185 475 -189 q 457 -172 463 -181 q 453 -153 451 -162 q 463 -135 456 -144 l 564 18 l 656 18 l 549 -146 l 508 -124 q 613 -112 569 -104 q 678 -147 656 -119 q 701 -215 701 -175 q 674 -302 701 -267 q 603 -356 647 -337 q 506 -374 558 -374 z "},"Ĉ":{"ha":1196,"x_min":208,"x_max":1399,"o":"m 658 -26 q 472 8 556 -26 q 331 109 389 43 q 240 268 272 175 q 208 478 208 361 q 231 680 208 574 q 299 890 254 786 q 412 1088 344 994 q 568 1253 479 1181 q 767 1368 657 1326 q 1008 1410 876 1410 q 1167 1390 1094 1410 q 1294 1333 1239 1369 q 1388 1242 1350 1296 q 1392 1215 1399 1226 q 1367 1188 1386 1203 q 1335 1172 1349 1174 q 1301 1186 1321 1169 q 1222 1244 1267 1221 q 1119 1280 1176 1268 q 988 1292 1063 1292 q 806 1257 892 1292 q 649 1163 721 1222 q 519 1024 576 1103 q 422 856 461 946 q 360 675 382 767 q 339 497 339 583 q 360 323 339 399 q 424 196 382 247 q 530 118 467 144 q 678 92 593 92 q 783 108 735 92 q 877 152 832 124 q 969 221 922 181 q 1069 311 1017 261 q 1101 321 1085 326 q 1132 299 1117 315 q 1152 264 1150 278 q 1139 233 1154 250 q 962 78 1046 135 q 802 -2 878 22 q 658 -26 726 -26 m 826 1469 q 799 1486 810 1469 q 788 1518 788 1503 q 792 1539 788 1532 q 803 1551 797 1546 l 1028 1726 q 1067 1751 1049 1744 q 1108 1758 1086 1758 q 1141 1749 1126 1758 q 1167 1722 1156 1740 l 1296 1542 q 1303 1524 1303 1532 q 1304 1510 1304 1517 q 1286 1481 1304 1493 q 1256 1469 1268 1469 q 1232 1476 1242 1469 q 1211 1493 1222 1483 l 1082 1618 l 869 1485 q 849 1474 860 1479 q 826 1469 839 1469 z "},"Ċ":{"ha":1196,"x_min":208,"x_max":1399,"o":"m 658 -26 q 472 8 556 -26 q 331 109 389 43 q 240 268 272 175 q 208 478 208 361 q 231 680 208 574 q 299 890 254 786 q 412 1088 344 994 q 568 1253 479 1181 q 767 1368 657 1326 q 1008 1410 876 1410 q 1167 1390 1094 1410 q 1294 1333 1239 1369 q 1388 1242 1350 1296 q 1392 1215 1399 1226 q 1367 1188 1386 1203 q 1335 1172 1349 1174 q 1301 1186 1321 1169 q 1222 1244 1267 1221 q 1119 1280 1176 1268 q 988 1292 1063 1292 q 806 1257 892 1292 q 649 1163 721 1222 q 519 1024 576 1103 q 422 856 461 946 q 360 675 382 767 q 339 497 339 583 q 360 323 339 399 q 424 196 382 247 q 530 118 467 144 q 678 92 593 92 q 783 108 735 92 q 877 152 832 124 q 969 221 922 181 q 1069 311 1017 261 q 1101 321 1085 326 q 1132 299 1117 315 q 1152 264 1150 278 q 1139 233 1154 250 q 962 78 1046 135 q 802 -2 878 22 q 658 -26 726 -26 m 1046 1517 q 997 1535 1017 1517 q 978 1589 978 1553 q 1003 1659 978 1626 q 1079 1692 1028 1692 q 1126 1674 1107 1692 q 1146 1621 1146 1657 q 1122 1550 1146 1583 q 1046 1517 1099 1517 z "},"Ď":{"ha":1340,"x_min":86,"x_max":1367,"o":"m 147 0 q 99 39 86 0 l 525 1347 q 550 1376 532 1367 q 599 1386 568 1386 l 839 1386 q 1070 1353 971 1386 q 1235 1261 1169 1319 q 1334 1124 1301 1203 q 1367 954 1367 1044 q 1319 641 1367 786 q 1184 378 1271 496 q 981 176 1097 260 q 723 46 864 92 q 428 0 582 0 l 147 0 m 246 118 l 428 118 q 673 156 554 118 q 892 265 792 193 q 1069 440 993 338 q 1186 672 1144 543 q 1228 953 1228 801 q 1201 1085 1228 1026 q 1122 1185 1174 1144 q 999 1247 1071 1225 q 838 1268 926 1268 l 621 1268 l 246 118 m 1243 1758 q 1273 1742 1260 1758 q 1286 1710 1286 1725 q 1282 1689 1286 1696 q 1271 1676 1278 1682 l 1044 1501 q 1006 1477 1024 1485 q 965 1469 988 1469 q 933 1479 947 1469 q 906 1507 918 1489 l 778 1688 q 769 1706 771 1699 q 768 1718 768 1713 q 788 1747 768 1735 q 822 1758 808 1758 q 843 1752 836 1758 q 860 1736 850 1746 l 990 1611 l 1203 1738 q 1222 1751 1213 1743 q 1243 1758 1232 1758 z "},"Đ":{"ha":1340,"x_min":86,"x_max":1367,"o":"m 147 0 q 99 39 86 0 l 525 1347 q 550 1376 532 1367 q 599 1386 568 1386 l 839 1386 q 1070 1353 971 1386 q 1235 1261 1169 1319 q 1334 1124 1301 1203 q 1367 954 1367 1044 q 1319 641 1367 786 q 1184 378 1271 496 q 981 176 1097 260 q 723 46 864 92 q 428 0 582 0 l 147 0 m 246 118 l 428 118 q 673 156 554 118 q 892 265 792 193 q 1069 440 993 338 q 1186 672 1144 543 q 1228 953 1228 801 q 1201 1085 1228 1026 q 1122 1185 1174 1144 q 999 1247 1071 1225 q 838 1268 926 1268 l 621 1268 l 246 118 m 165 650 q 138 665 140 650 q 139 699 135 681 q 153 735 143 718 q 189 751 163 751 l 736 751 q 765 735 763 751 q 764 699 768 718 q 750 665 760 681 q 715 650 740 650 l 165 650 z "},"É":{"ha":1022,"x_min":99,"x_max":1283,"o":"m 161 0 q 113 13 126 0 q 107 56 99 25 l 524 1347 q 545 1376 529 1367 q 589 1386 561 1386 l 1257 1386 q 1278 1372 1272 1386 q 1275 1331 1283 1358 q 1254 1289 1268 1303 q 1225 1275 1240 1275 l 622 1275 l 465 789 l 965 789 q 986 775 981 789 q 985 733 992 761 q 963 692 976 706 q 933 678 949 678 l 429 678 l 249 111 l 844 111 q 866 98 860 111 q 864 56 872 85 q 843 15 857 29 q 814 0 829 0 l 161 0 m 857 1469 q 823 1488 842 1469 q 804 1521 804 1507 q 806 1532 804 1526 q 817 1546 808 1538 l 1036 1747 q 1049 1758 1043 1754 q 1064 1763 1056 1763 q 1095 1750 1078 1763 q 1125 1721 1113 1738 q 1138 1689 1138 1704 q 1135 1672 1138 1679 q 1117 1654 1132 1665 l 883 1483 q 869 1474 875 1478 q 857 1469 863 1469 z "},"Ĕ":{"ha":1022,"x_min":99,"x_max":1283,"o":"m 161 0 q 113 13 126 0 q 107 56 99 25 l 524 1347 q 545 1376 529 1367 q 589 1386 561 1386 l 1257 1386 q 1278 1372 1272 1386 q 1275 1331 1283 1358 q 1254 1289 1268 1303 q 1225 1275 1240 1275 l 622 1275 l 465 789 l 965 789 q 986 775 981 789 q 985 733 992 761 q 963 692 976 706 q 933 678 949 678 l 429 678 l 249 111 l 844 111 q 866 98 860 111 q 864 56 872 85 q 843 15 857 29 q 814 0 829 0 l 161 0 m 929 1469 q 775 1531 828 1469 q 736 1721 722 1593 q 751 1750 739 1742 q 785 1758 764 1758 q 819 1748 806 1758 q 832 1721 832 1738 q 865 1619 831 1650 q 951 1589 899 1589 q 1062 1626 1015 1589 q 1133 1717 1108 1663 q 1157 1750 1144 1742 q 1189 1758 1169 1758 q 1226 1746 1213 1758 q 1232 1713 1239 1733 q 1160 1564 1200 1617 q 1065 1490 1121 1511 q 929 1469 1008 1469 z "},"Ě":{"ha":1022,"x_min":99,"x_max":1283,"o":"m 161 0 q 113 13 126 0 q 107 56 99 25 l 524 1347 q 545 1376 529 1367 q 589 1386 561 1386 l 1257 1386 q 1278 1372 1272 1386 q 1275 1331 1283 1358 q 1254 1289 1268 1303 q 1225 1275 1240 1275 l 622 1275 l 465 789 l 965 789 q 986 775 981 789 q 985 733 992 761 q 963 692 976 706 q 933 678 949 678 l 429 678 l 249 111 l 844 111 q 866 98 860 111 q 864 56 872 85 q 843 15 857 29 q 814 0 829 0 l 161 0 m 1192 1758 q 1222 1742 1208 1758 q 1235 1710 1235 1725 q 1231 1689 1235 1696 q 1219 1676 1226 1682 l 993 1501 q 954 1477 972 1485 q 914 1469 936 1469 q 881 1479 896 1469 q 854 1507 867 1489 l 726 1688 q 718 1706 719 1699 q 717 1718 717 1713 q 737 1747 717 1735 q 771 1758 757 1758 q 792 1752 785 1758 q 808 1736 799 1746 l 939 1611 l 1151 1738 q 1171 1751 1161 1743 q 1192 1758 1181 1758 z "},"Ê":{"ha":1022,"x_min":99,"x_max":1283,"o":"m 161 0 q 113 13 126 0 q 107 56 99 25 l 524 1347 q 545 1376 529 1367 q 589 1386 561 1386 l 1257 1386 q 1278 1372 1272 1386 q 1275 1331 1283 1358 q 1254 1289 1268 1303 q 1225 1275 1240 1275 l 622 1275 l 465 789 l 965 789 q 986 775 981 789 q 985 733 992 761 q 963 692 976 706 q 933 678 949 678 l 429 678 l 249 111 l 844 111 q 866 98 860 111 q 864 56 872 85 q 843 15 857 29 q 814 0 829 0 l 161 0 m 721 1469 q 693 1486 704 1469 q 682 1518 682 1503 q 687 1539 682 1532 q 697 1551 692 1546 l 922 1726 q 962 1751 943 1744 q 1003 1758 981 1758 q 1035 1749 1021 1758 q 1061 1722 1050 1740 l 1190 1542 q 1198 1524 1197 1532 q 1199 1510 1199 1517 q 1181 1481 1199 1493 q 1150 1469 1163 1469 q 1126 1476 1136 1469 q 1106 1493 1117 1483 l 976 1618 l 764 1485 q 744 1474 754 1479 q 721 1469 733 1469 z "},"Ë":{"ha":1022,"x_min":99,"x_max":1283,"o":"m 161 0 q 113 13 126 0 q 107 56 99 25 l 524 1347 q 545 1376 529 1367 q 589 1386 561 1386 l 1257 1386 q 1278 1372 1272 1386 q 1275 1331 1283 1358 q 1254 1289 1268 1303 q 1225 1275 1240 1275 l 622 1275 l 465 789 l 965 789 q 986 775 981 789 q 985 733 992 761 q 963 692 976 706 q 933 678 949 678 l 429 678 l 249 111 l 844 111 q 866 98 860 111 q 864 56 872 85 q 843 15 857 29 q 814 0 829 0 l 161 0 m 767 1517 q 718 1535 738 1517 q 699 1589 699 1553 q 724 1659 699 1626 q 800 1692 750 1692 q 847 1674 828 1692 q 867 1621 867 1657 q 843 1550 867 1583 q 767 1517 819 1517 m 1108 1517 q 1060 1535 1081 1517 q 1040 1589 1040 1553 q 1066 1659 1040 1626 q 1142 1692 1092 1692 q 1190 1674 1169 1692 q 1210 1621 1210 1657 q 1185 1550 1210 1583 q 1108 1517 1161 1517 z "},"Ė":{"ha":1022,"x_min":99,"x_max":1283,"o":"m 161 0 q 113 13 126 0 q 107 56 99 25 l 524 1347 q 545 1376 529 1367 q 589 1386 561 1386 l 1257 1386 q 1278 1372 1272 1386 q 1275 1331 1283 1358 q 1254 1289 1268 1303 q 1225 1275 1240 1275 l 622 1275 l 465 789 l 965 789 q 986 775 981 789 q 985 733 992 761 q 963 692 976 706 q 933 678 949 678 l 429 678 l 249 111 l 844 111 q 866 98 860 111 q 864 56 872 85 q 843 15 857 29 q 814 0 829 0 l 161 0 m 940 1517 q 892 1535 911 1517 q 872 1589 872 1553 q 897 1659 872 1626 q 974 1692 922 1692 q 1021 1674 1001 1692 q 1040 1621 1040 1657 q 1017 1550 1040 1583 q 940 1517 993 1517 z "},"È":{"ha":1022,"x_min":99,"x_max":1283,"o":"m 161 0 q 113 13 126 0 q 107 56 99 25 l 524 1347 q 545 1376 529 1367 q 589 1386 561 1386 l 1257 1386 q 1278 1372 1272 1386 q 1275 1331 1283 1358 q 1254 1289 1268 1303 q 1225 1275 1240 1275 l 622 1275 l 465 789 l 965 789 q 986 775 981 789 q 985 733 992 761 q 963 692 976 706 q 933 678 949 678 l 429 678 l 249 111 l 844 111 q 866 98 860 111 q 864 56 872 85 q 843 15 857 29 q 814 0 829 0 l 161 0 m 999 1469 q 986 1474 993 1469 q 972 1483 979 1478 l 774 1656 q 756 1674 760 1667 q 753 1690 753 1681 q 766 1722 753 1706 q 797 1751 779 1739 q 828 1763 815 1763 q 844 1758 838 1763 q 857 1747 850 1754 l 1040 1544 q 1050 1530 1049 1535 q 1051 1521 1051 1525 q 1033 1488 1051 1507 q 999 1469 1014 1469 z "},"Ē":{"ha":1022,"x_min":99,"x_max":1283,"o":"m 161 0 q 113 13 126 0 q 107 56 99 25 l 524 1347 q 545 1376 529 1367 q 589 1386 561 1386 l 1257 1386 q 1278 1372 1272 1386 q 1275 1331 1283 1358 q 1254 1289 1268 1303 q 1225 1275 1240 1275 l 622 1275 l 465 789 l 965 789 q 986 775 981 789 q 985 733 992 761 q 963 692 976 706 q 933 678 949 678 l 429 678 l 249 111 l 844 111 q 866 98 860 111 q 864 56 872 85 q 843 15 857 29 q 814 0 829 0 l 161 0 m 760 1556 q 727 1572 733 1556 q 728 1613 721 1588 q 747 1658 735 1643 q 785 1674 760 1674 l 1157 1674 q 1191 1656 1185 1674 q 1190 1613 1197 1639 q 1171 1569 1183 1583 q 1133 1556 1158 1556 l 760 1556 z "},"Ę":{"ha":1022,"x_min":99,"x_max":1283,"o":"m 161 0 q 113 13 126 0 q 107 56 99 25 l 524 1347 q 545 1376 529 1367 q 589 1386 561 1386 l 1257 1386 q 1278 1372 1272 1386 q 1275 1331 1283 1358 q 1254 1289 1268 1303 q 1225 1275 1240 1275 l 622 1275 l 465 789 l 965 789 q 986 775 981 789 q 985 733 992 761 q 963 692 976 706 q 933 678 949 678 l 429 678 l 249 111 l 844 111 q 866 98 860 111 q 864 56 872 85 q 843 15 857 29 q 814 0 829 0 l 161 0 m 594 -349 q 522 -324 547 -349 q 496 -261 496 -300 q 518 -183 496 -221 q 577 -109 540 -144 q 660 -39 614 -74 q 754 31 706 -4 l 846 32 l 846 24 q 763 -42 803 -10 q 690 -104 722 -74 q 640 -161 658 -135 q 621 -210 621 -187 q 630 -233 621 -225 q 656 -242 639 -242 q 706 -226 681 -242 q 760 -183 731 -210 q 785 -172 771 -174 q 813 -183 799 -169 q 827 -206 822 -193 q 822 -235 832 -219 q 763 -290 801 -264 q 681 -333 725 -317 q 594 -349 636 -349 z "},"Ế":{"ha":1022,"x_min":99,"x_max":1442,"o":"m 161 0 q 113 13 126 0 q 107 56 99 25 l 524 1347 q 545 1376 529 1367 q 589 1386 561 1386 l 1257 1386 q 1278 1372 1272 1386 q 1275 1331 1283 1358 q 1254 1289 1268 1303 q 1225 1275 1240 1275 l 622 1275 l 465 789 l 965 789 q 986 775 981 789 q 985 733 992 761 q 963 692 976 706 q 933 678 949 678 l 429 678 l 249 111 l 844 111 q 866 98 860 111 q 864 56 872 85 q 843 15 857 29 q 814 0 829 0 l 161 0 m 721 1469 q 693 1486 704 1469 q 682 1518 682 1503 q 687 1539 682 1532 q 697 1551 692 1546 l 922 1726 q 962 1751 943 1744 q 1003 1758 981 1758 q 1035 1749 1021 1758 q 1061 1722 1050 1740 l 1190 1542 q 1198 1524 1197 1532 q 1199 1510 1199 1517 q 1181 1481 1199 1493 q 1150 1469 1163 1469 q 1126 1476 1136 1469 q 1106 1493 1117 1483 l 976 1618 l 764 1485 q 744 1474 754 1479 q 721 1469 733 1469 m 1197 1685 q 1163 1704 1182 1685 q 1144 1736 1144 1724 q 1147 1747 1144 1742 q 1158 1763 1149 1753 l 1339 1939 q 1352 1951 1346 1947 q 1367 1956 1358 1956 q 1399 1943 1381 1956 q 1429 1913 1417 1931 q 1442 1881 1442 1896 q 1438 1864 1442 1871 q 1419 1847 1435 1857 l 1224 1699 q 1209 1688 1215 1692 q 1197 1685 1203 1685 z "},"Ệ":{"ha":1022,"x_min":99,"x_max":1283,"o":"m 161 0 q 113 13 126 0 q 107 56 99 25 l 524 1347 q 545 1376 529 1367 q 589 1386 561 1386 l 1257 1386 q 1278 1372 1272 1386 q 1275 1331 1283 1358 q 1254 1289 1268 1303 q 1225 1275 1240 1275 l 622 1275 l 465 789 l 965 789 q 986 775 981 789 q 985 733 992 761 q 963 692 976 706 q 933 678 949 678 l 429 678 l 249 111 l 844 111 q 866 98 860 111 q 864 56 872 85 q 843 15 857 29 q 814 0 829 0 l 161 0 m 406 -322 q 358 -304 378 -322 q 339 -251 339 -286 q 363 -181 339 -214 q 439 -147 388 -147 q 488 -165 468 -147 q 507 -218 507 -183 q 483 -290 507 -257 q 406 -322 458 -322 m 721 1469 q 693 1486 704 1469 q 682 1518 682 1503 q 687 1539 682 1532 q 697 1551 692 1546 l 922 1726 q 962 1751 943 1744 q 1003 1758 981 1758 q 1035 1749 1021 1758 q 1061 1722 1050 1740 l 1190 1542 q 1198 1524 1197 1532 q 1199 1510 1199 1517 q 1181 1481 1199 1493 q 1150 1469 1163 1469 q 1126 1476 1136 1469 q 1106 1493 1117 1483 l 976 1618 l 764 1485 q 744 1474 754 1479 q 721 1469 733 1469 z "},"Ề":{"ha":1022,"x_min":99,"x_max":1332,"o":"m 161 0 q 113 13 126 0 q 107 56 99 25 l 524 1347 q 545 1376 529 1367 q 589 1386 561 1386 l 1257 1386 q 1278 1372 1272 1386 q 1275 1331 1283 1358 q 1254 1289 1268 1303 q 1225 1275 1240 1275 l 622 1275 l 465 789 l 965 789 q 986 775 981 789 q 985 733 992 761 q 963 692 976 706 q 933 678 949 678 l 429 678 l 249 111 l 844 111 q 866 98 860 111 q 864 56 872 85 q 843 15 857 29 q 814 0 829 0 l 161 0 m 721 1469 q 693 1486 704 1469 q 682 1518 682 1503 q 687 1539 682 1532 q 697 1551 692 1546 l 922 1726 q 962 1751 943 1744 q 1003 1758 981 1758 q 1035 1749 1021 1758 q 1061 1722 1050 1740 l 1190 1542 q 1198 1524 1197 1532 q 1199 1510 1199 1517 q 1181 1481 1199 1493 q 1150 1469 1163 1469 q 1126 1476 1136 1469 q 1106 1493 1117 1483 l 976 1618 l 764 1485 q 744 1474 754 1479 q 721 1469 733 1469 m 1276 1663 q 1265 1665 1271 1663 q 1251 1675 1258 1668 l 1079 1865 q 1063 1885 1068 1878 q 1058 1901 1058 1892 q 1072 1933 1058 1917 q 1104 1960 1085 1950 q 1139 1971 1124 1971 q 1155 1967 1147 1971 q 1168 1956 1163 1963 l 1321 1740 q 1330 1724 1328 1729 q 1332 1713 1332 1718 q 1314 1680 1332 1697 q 1276 1663 1296 1663 z "},"Ể":{"ha":1022,"x_min":99,"x_max":1406,"o":"m 161 0 q 113 13 126 0 q 107 56 99 25 l 524 1347 q 545 1376 529 1367 q 589 1386 561 1386 l 1257 1386 q 1278 1372 1272 1386 q 1275 1331 1283 1358 q 1254 1289 1268 1303 q 1225 1275 1240 1275 l 622 1275 l 465 789 l 965 789 q 986 775 981 789 q 985 733 992 761 q 963 692 976 706 q 933 678 949 678 l 429 678 l 249 111 l 844 111 q 866 98 860 111 q 864 56 872 85 q 843 15 857 29 q 814 0 829 0 l 161 0 m 721 1469 q 693 1486 704 1469 q 682 1518 682 1503 q 687 1539 682 1532 q 697 1551 692 1546 l 922 1726 q 962 1751 943 1744 q 1003 1758 981 1758 q 1035 1749 1021 1758 q 1061 1722 1050 1740 l 1190 1542 q 1198 1524 1197 1532 q 1199 1510 1199 1517 q 1181 1481 1199 1493 q 1150 1469 1163 1469 q 1126 1476 1136 1469 q 1106 1493 1117 1483 l 976 1618 l 764 1485 q 744 1474 754 1479 q 721 1469 733 1469 m 1264 1996 q 1369 1967 1331 1996 q 1407 1885 1407 1938 q 1385 1811 1407 1843 q 1324 1760 1363 1779 q 1282 1732 1292 1744 q 1272 1706 1272 1719 l 1272 1690 q 1260 1664 1274 1674 q 1227 1653 1246 1654 q 1193 1658 1208 1651 q 1174 1682 1178 1665 l 1167 1717 q 1175 1774 1160 1750 q 1224 1817 1190 1799 q 1260 1844 1249 1829 q 1271 1871 1271 1858 q 1262 1888 1271 1882 q 1236 1894 1253 1894 q 1197 1888 1218 1894 q 1153 1869 1176 1882 q 1101 1901 1122 1853 q 1121 1957 1088 1933 q 1189 1986 1154 1976 q 1264 1996 1224 1996 z "},"Ễ":{"ha":1022,"x_min":99,"x_max":1296,"o":"m 161 0 q 113 13 126 0 q 107 56 99 25 l 524 1347 q 545 1376 529 1367 q 589 1386 561 1386 l 1257 1386 q 1278 1372 1272 1386 q 1275 1331 1283 1358 q 1254 1289 1268 1303 q 1225 1275 1240 1275 l 622 1275 l 465 789 l 965 789 q 986 775 981 789 q 985 733 992 761 q 963 692 976 706 q 933 678 949 678 l 429 678 l 249 111 l 844 111 q 866 98 860 111 q 864 56 872 85 q 843 15 857 29 q 814 0 829 0 l 161 0 m 721 1469 q 693 1486 704 1469 q 682 1518 682 1503 q 687 1539 682 1532 q 697 1551 692 1546 l 922 1726 q 962 1751 943 1744 q 1003 1758 981 1758 q 1035 1749 1021 1758 q 1061 1722 1050 1740 l 1190 1542 q 1198 1524 1197 1532 q 1199 1510 1199 1517 q 1181 1481 1199 1493 q 1150 1469 1163 1469 q 1126 1476 1136 1469 q 1106 1493 1117 1483 l 976 1618 l 764 1485 q 744 1474 754 1479 q 721 1469 733 1469 m 801 1779 q 760 1817 757 1779 q 808 1952 769 1910 q 915 1994 847 1994 q 992 1979 960 1994 q 1049 1943 1025 1964 q 1097 1908 1074 1922 q 1146 1893 1119 1893 q 1178 1909 1164 1893 q 1197 1960 1192 1925 q 1256 1996 1204 1996 q 1287 1987 1278 1996 q 1293 1960 1296 1978 q 1247 1824 1285 1867 q 1142 1781 1210 1781 q 1065 1796 1099 1781 q 1006 1831 1032 1811 q 956 1866 979 1851 q 908 1881 933 1881 q 875 1863 889 1881 q 854 1810 861 1846 q 838 1788 851 1796 q 801 1779 825 1779 z "},"Ẹ":{"ha":1022,"x_min":99,"x_max":1283,"o":"m 161 0 q 113 13 126 0 q 107 56 99 25 l 524 1347 q 545 1376 529 1367 q 589 1386 561 1386 l 1257 1386 q 1278 1372 1272 1386 q 1275 1331 1283 1358 q 1254 1289 1268 1303 q 1225 1275 1240 1275 l 622 1275 l 465 789 l 965 789 q 986 775 981 789 q 985 733 992 761 q 963 692 976 706 q 933 678 949 678 l 429 678 l 249 111 l 844 111 q 866 98 860 111 q 864 56 872 85 q 843 15 857 29 q 814 0 829 0 l 161 0 m 406 -322 q 358 -304 378 -322 q 339 -251 339 -286 q 363 -181 339 -214 q 439 -147 388 -147 q 488 -165 468 -147 q 507 -218 507 -183 q 483 -290 507 -257 q 406 -322 458 -322 z "},"Ẻ":{"ha":1022,"x_min":99,"x_max":1283,"o":"m 161 0 q 113 13 126 0 q 107 56 99 25 l 524 1347 q 545 1376 529 1367 q 589 1386 561 1386 l 1257 1386 q 1278 1372 1272 1386 q 1275 1331 1283 1358 q 1254 1289 1268 1303 q 1225 1275 1240 1275 l 622 1275 l 465 789 l 965 789 q 986 775 981 789 q 985 733 992 761 q 963 692 976 706 q 933 678 949 678 l 429 678 l 249 111 l 844 111 q 866 98 860 111 q 864 56 872 85 q 843 15 857 29 q 814 0 829 0 l 161 0 m 981 1800 q 1085 1771 1047 1800 q 1122 1689 1122 1742 q 1100 1616 1122 1647 q 1039 1564 1078 1585 q 999 1536 1008 1549 q 989 1510 989 1524 l 989 1494 q 976 1468 990 1478 q 944 1457 963 1458 q 909 1463 925 1456 q 890 1486 893 1469 l 883 1521 q 891 1578 876 1554 q 940 1621 906 1603 q 976 1648 964 1633 q 988 1675 988 1663 q 978 1692 988 1686 q 953 1699 969 1699 q 913 1692 935 1699 q 869 1674 892 1686 q 817 1706 838 1657 q 838 1761 804 1738 q 905 1790 869 1781 q 981 1800 940 1800 z "},"Ẽ":{"ha":1022,"x_min":99,"x_max":1283,"o":"m 161 0 q 113 13 126 0 q 107 56 99 25 l 524 1347 q 545 1376 529 1367 q 589 1386 561 1386 l 1257 1386 q 1278 1372 1272 1386 q 1275 1331 1283 1358 q 1254 1289 1268 1303 q 1225 1275 1240 1275 l 622 1275 l 465 789 l 965 789 q 986 775 981 789 q 985 733 992 761 q 963 692 976 706 q 933 678 949 678 l 429 678 l 249 111 l 844 111 q 866 98 860 111 q 864 56 872 85 q 843 15 857 29 q 814 0 829 0 l 161 0 m 735 1511 q 693 1549 690 1511 q 742 1683 703 1642 q 849 1725 781 1725 q 926 1710 893 1725 q 983 1675 958 1696 q 1030 1639 1007 1654 q 1079 1624 1053 1624 q 1111 1640 1097 1624 q 1131 1690 1125 1656 q 1189 1728 1138 1728 q 1220 1718 1211 1728 q 1228 1690 1229 1708 q 1181 1556 1218 1599 q 1075 1513 1143 1513 q 999 1528 1032 1513 q 939 1563 965 1543 q 890 1597 913 1582 q 842 1613 867 1613 q 808 1594 822 1613 q 788 1542 794 1576 q 772 1519 785 1526 q 735 1511 758 1511 z "},"Ğ":{"ha":1350,"x_min":208,"x_max":1396,"o":"m 658 -26 q 472 10 556 -25 q 330 110 389 44 q 240 268 271 176 q 208 475 208 360 q 231 678 208 572 q 299 888 254 783 q 411 1087 344 993 q 567 1253 478 1181 q 765 1368 656 1326 q 1006 1410 875 1410 q 1163 1390 1092 1410 q 1291 1334 1235 1371 q 1385 1242 1347 1297 q 1390 1215 1396 1226 q 1364 1188 1383 1203 q 1332 1172 1346 1174 q 1300 1186 1318 1169 q 1221 1244 1265 1221 q 1119 1280 1176 1268 q 988 1292 1063 1292 q 805 1257 890 1292 q 647 1162 719 1222 q 518 1023 575 1101 q 421 855 461 944 q 360 674 381 765 q 339 496 339 582 q 360 323 339 399 q 423 196 381 247 q 529 118 465 144 q 678 92 593 92 q 794 111 738 92 q 904 171 850 131 q 1008 274 958 211 q 1103 425 1058 338 q 1186 625 1147 513 l 829 625 q 804 638 808 625 q 810 681 800 650 q 833 724 821 713 q 865 736 844 736 l 1308 736 q 1333 724 1329 736 q 1329 681 1338 713 q 1197 343 1274 479 q 1031 125 1121 207 q 847 8 942 43 q 658 -26 751 -26 m 1038 1469 q 883 1531 936 1469 q 844 1721 831 1593 q 860 1750 847 1742 q 893 1758 872 1758 q 927 1748 914 1758 q 940 1721 940 1738 q 973 1619 939 1650 q 1060 1589 1007 1589 q 1170 1626 1124 1589 q 1242 1717 1217 1663 q 1265 1750 1253 1742 q 1297 1758 1278 1758 q 1334 1746 1321 1758 q 1340 1713 1347 1733 q 1269 1564 1308 1617 q 1173 1490 1229 1511 q 1038 1469 1117 1469 z "},"Ĝ":{"ha":1350,"x_min":208,"x_max":1396,"o":"m 658 -26 q 472 10 556 -25 q 330 110 389 44 q 240 268 271 176 q 208 475 208 360 q 231 678 208 572 q 299 888 254 783 q 411 1087 344 993 q 567 1253 478 1181 q 765 1368 656 1326 q 1006 1410 875 1410 q 1163 1390 1092 1410 q 1291 1334 1235 1371 q 1385 1242 1347 1297 q 1390 1215 1396 1226 q 1364 1188 1383 1203 q 1332 1172 1346 1174 q 1300 1186 1318 1169 q 1221 1244 1265 1221 q 1119 1280 1176 1268 q 988 1292 1063 1292 q 805 1257 890 1292 q 647 1162 719 1222 q 518 1023 575 1101 q 421 855 461 944 q 360 674 381 765 q 339 496 339 582 q 360 323 339 399 q 423 196 381 247 q 529 118 465 144 q 678 92 593 92 q 794 111 738 92 q 904 171 850 131 q 1008 274 958 211 q 1103 425 1058 338 q 1186 625 1147 513 l 829 625 q 804 638 808 625 q 810 681 800 650 q 833 724 821 713 q 865 736 844 736 l 1308 736 q 1333 724 1329 736 q 1329 681 1338 713 q 1197 343 1274 479 q 1031 125 1121 207 q 847 8 942 43 q 658 -26 751 -26 m 829 1469 q 801 1486 813 1469 q 790 1518 790 1503 q 795 1539 790 1532 q 806 1551 800 1546 l 1031 1726 q 1070 1751 1051 1744 q 1111 1758 1089 1758 q 1144 1749 1129 1758 q 1169 1722 1158 1740 l 1299 1542 q 1306 1524 1306 1532 q 1307 1510 1307 1517 q 1289 1481 1307 1493 q 1258 1469 1271 1469 q 1235 1476 1244 1469 q 1214 1493 1225 1483 l 1085 1618 l 872 1485 q 852 1474 863 1479 q 829 1469 842 1469 z "},"Ģ":{"ha":1350,"x_min":208,"x_max":1396,"o":"m 658 -26 q 472 10 556 -25 q 330 110 389 44 q 240 268 271 176 q 208 475 208 360 q 231 678 208 572 q 299 888 254 783 q 411 1087 344 993 q 567 1253 478 1181 q 765 1368 656 1326 q 1006 1410 875 1410 q 1163 1390 1092 1410 q 1291 1334 1235 1371 q 1385 1242 1347 1297 q 1390 1215 1396 1226 q 1364 1188 1383 1203 q 1332 1172 1346 1174 q 1300 1186 1318 1169 q 1221 1244 1265 1221 q 1119 1280 1176 1268 q 988 1292 1063 1292 q 805 1257 890 1292 q 647 1162 719 1222 q 518 1023 575 1101 q 421 855 461 944 q 360 674 381 765 q 339 496 339 582 q 360 323 339 399 q 423 196 381 247 q 529 118 465 144 q 678 92 593 92 q 794 111 738 92 q 904 171 850 131 q 1008 274 958 211 q 1103 425 1058 338 q 1186 625 1147 513 l 829 625 q 804 638 808 625 q 810 681 800 650 q 833 724 821 713 q 865 736 844 736 l 1308 736 q 1333 724 1329 736 q 1329 681 1338 713 q 1197 343 1274 479 q 1031 125 1121 207 q 847 8 942 43 q 658 -26 751 -26 m 435 -401 q 417 -374 418 -389 q 426 -343 415 -360 q 469 -276 451 -307 q 496 -212 486 -244 q 510 -139 506 -181 q 528 -106 513 -115 q 571 -96 544 -96 q 618 -111 603 -96 q 631 -153 633 -126 q 609 -227 628 -187 q 563 -306 590 -267 q 503 -378 535 -344 q 469 -403 485 -396 q 435 -401 453 -410 z "},"Ġ":{"ha":1350,"x_min":208,"x_max":1396,"o":"m 658 -26 q 472 10 556 -25 q 330 110 389 44 q 240 268 271 176 q 208 475 208 360 q 231 678 208 572 q 299 888 254 783 q 411 1087 344 993 q 567 1253 478 1181 q 765 1368 656 1326 q 1006 1410 875 1410 q 1163 1390 1092 1410 q 1291 1334 1235 1371 q 1385 1242 1347 1297 q 1390 1215 1396 1226 q 1364 1188 1383 1203 q 1332 1172 1346 1174 q 1300 1186 1318 1169 q 1221 1244 1265 1221 q 1119 1280 1176 1268 q 988 1292 1063 1292 q 805 1257 890 1292 q 647 1162 719 1222 q 518 1023 575 1101 q 421 855 461 944 q 360 674 381 765 q 339 496 339 582 q 360 323 339 399 q 423 196 381 247 q 529 118 465 144 q 678 92 593 92 q 794 111 738 92 q 904 171 850 131 q 1008 274 958 211 q 1103 425 1058 338 q 1186 625 1147 513 l 829 625 q 804 638 808 625 q 810 681 800 650 q 833 724 821 713 q 865 736 844 736 l 1308 736 q 1333 724 1329 736 q 1329 681 1338 713 q 1197 343 1274 479 q 1031 125 1121 207 q 847 8 942 43 q 658 -26 751 -26 m 1049 1517 q 1000 1535 1019 1517 q 981 1589 981 1553 q 1006 1659 981 1626 q 1082 1692 1031 1692 q 1129 1674 1110 1692 q 1149 1621 1149 1657 q 1125 1550 1149 1583 q 1049 1517 1101 1517 z "},"Ħ":{"ha":1368,"x_min":81,"x_max":1550,"o":"m 142 -19 q 93 19 81 -19 l 532 1372 q 557 1401 539 1392 q 604 1410 575 1410 q 653 1372 668 1410 l 463 782 l 1189 782 l 1379 1372 q 1404 1401 1386 1392 q 1453 1410 1422 1410 q 1501 1372 1515 1410 l 1063 19 q 1039 -10 1057 0 q 990 -19 1021 -19 q 942 19 929 -19 l 1153 671 l 426 671 l 215 19 q 191 -10 210 0 q 142 -19 172 -19 m 319 1019 q 292 1035 294 1019 q 293 1068 289 1050 q 307 1104 297 1088 q 343 1121 317 1121 l 1518 1121 q 1547 1104 1544 1121 q 1546 1068 1550 1088 q 1533 1035 1543 1050 q 1497 1019 1522 1019 l 319 1019 z "},"Ĥ":{"ha":1368,"x_min":81,"x_max":1515,"o":"m 142 -19 q 93 19 81 -19 l 532 1372 q 557 1401 539 1392 q 604 1410 575 1410 q 653 1372 668 1410 l 463 782 l 1189 782 l 1379 1372 q 1404 1401 1386 1392 q 1453 1410 1422 1410 q 1501 1372 1515 1410 l 1063 19 q 1039 -10 1057 0 q 990 -19 1021 -19 q 942 19 929 -19 l 1153 671 l 426 671 l 215 19 q 191 -10 210 0 q 142 -19 172 -19 m 831 1469 q 803 1486 814 1469 q 792 1518 792 1503 q 797 1539 792 1532 q 807 1551 801 1546 l 1032 1726 q 1072 1751 1053 1744 q 1113 1758 1090 1758 q 1145 1749 1131 1758 q 1171 1722 1160 1740 l 1300 1542 q 1308 1524 1307 1532 q 1308 1510 1308 1517 q 1290 1481 1308 1493 q 1260 1469 1272 1469 q 1236 1476 1246 1469 q 1215 1493 1226 1483 l 1086 1618 l 874 1485 q 853 1474 864 1479 q 831 1469 843 1469 z "},"Í":{"ha":521,"x_min":88,"x_max":839,"o":"m 149 -19 q 102 -10 117 -19 q 93 22 88 0 l 528 1372 q 552 1401 535 1392 q 600 1410 569 1410 q 646 1400 632 1410 q 653 1368 660 1390 l 218 19 q 196 -10 213 0 q 149 -19 179 -19 m 558 1469 q 524 1488 543 1469 q 506 1521 506 1507 q 508 1532 506 1526 q 518 1546 510 1538 l 738 1747 q 751 1758 744 1754 q 765 1763 757 1763 q 797 1750 779 1763 q 826 1721 814 1738 q 839 1689 839 1704 q 836 1672 839 1679 q 818 1654 833 1665 l 585 1483 q 570 1474 576 1478 q 558 1469 564 1469 z "},"Ĭ":{"ha":521,"x_min":88,"x_max":940,"o":"m 149 -19 q 102 -10 117 -19 q 93 22 88 0 l 528 1372 q 552 1401 535 1392 q 600 1410 569 1410 q 646 1400 632 1410 q 653 1368 660 1390 l 218 19 q 196 -10 213 0 q 149 -19 179 -19 m 631 1469 q 476 1531 529 1469 q 438 1721 424 1593 q 453 1750 440 1742 q 486 1758 465 1758 q 520 1748 507 1758 q 533 1721 533 1738 q 566 1619 532 1650 q 653 1589 600 1589 q 763 1626 717 1589 q 835 1717 810 1663 q 858 1750 846 1742 q 890 1758 871 1758 q 927 1746 914 1758 q 933 1713 940 1733 q 862 1564 901 1617 q 766 1490 822 1511 q 631 1469 710 1469 z "},"Ǐ":{"ha":521,"x_min":88,"x_max":936,"o":"m 149 -19 q 102 -10 117 -19 q 93 22 88 0 l 528 1372 q 552 1401 535 1392 q 600 1410 569 1410 q 646 1400 632 1410 q 653 1368 660 1390 l 218 19 q 196 -10 213 0 q 149 -19 179 -19 m 893 1758 q 923 1742 910 1758 q 936 1710 936 1725 q 932 1689 936 1696 q 921 1676 928 1682 l 694 1501 q 656 1477 674 1485 q 615 1469 638 1469 q 583 1479 597 1469 q 556 1507 568 1489 l 428 1688 q 419 1706 421 1699 q 418 1718 418 1713 q 438 1747 418 1735 q 472 1758 458 1758 q 493 1752 486 1758 q 510 1736 500 1746 l 640 1611 l 853 1738 q 872 1751 863 1743 q 893 1758 882 1758 z "},"Î":{"ha":521,"x_min":88,"x_max":900,"o":"m 149 -19 q 102 -10 117 -19 q 93 22 88 0 l 528 1372 q 552 1401 535 1392 q 600 1410 569 1410 q 646 1400 632 1410 q 653 1368 660 1390 l 218 19 q 196 -10 213 0 q 149 -19 179 -19 m 422 1469 q 394 1486 406 1469 q 383 1518 383 1503 q 388 1539 383 1532 q 399 1551 393 1546 l 624 1726 q 663 1751 644 1744 q 704 1758 682 1758 q 737 1749 722 1758 q 763 1722 751 1740 l 892 1542 q 899 1524 899 1532 q 900 1510 900 1517 q 882 1481 900 1493 q 851 1469 864 1469 q 828 1476 838 1469 q 807 1493 818 1483 l 678 1618 l 465 1485 q 445 1474 456 1479 q 422 1469 435 1469 z "},"Ï":{"ha":521,"x_min":88,"x_max":911,"o":"m 149 -19 q 102 -10 117 -19 q 93 22 88 0 l 528 1372 q 552 1401 535 1392 q 600 1410 569 1410 q 646 1400 632 1410 q 653 1368 660 1390 l 218 19 q 196 -10 213 0 q 149 -19 179 -19 m 468 1517 q 419 1535 439 1517 q 400 1589 400 1553 q 426 1659 400 1626 q 501 1692 451 1692 q 549 1674 529 1692 q 568 1621 568 1657 q 544 1550 568 1583 q 468 1517 521 1517 m 810 1517 q 762 1535 782 1517 q 742 1589 742 1553 q 767 1659 742 1626 q 843 1692 793 1692 q 891 1674 871 1692 q 911 1621 911 1657 q 887 1550 911 1583 q 810 1517 863 1517 z "},"İ":{"ha":521,"x_min":88,"x_max":740,"o":"m 149 -19 q 102 -10 117 -19 q 93 22 88 0 l 528 1372 q 552 1401 535 1392 q 600 1410 569 1410 q 646 1400 632 1410 q 653 1368 660 1390 l 218 19 q 196 -10 213 0 q 149 -19 179 -19 m 642 1517 q 593 1535 613 1517 q 574 1589 574 1553 q 599 1659 574 1626 q 675 1692 624 1692 q 722 1674 703 1692 q 742 1621 742 1657 q 718 1550 742 1583 q 642 1517 694 1517 z "},"Ì":{"ha":521,"x_min":88,"x_max":753,"o":"m 149 -19 q 102 -10 117 -19 q 93 22 88 0 l 528 1372 q 552 1401 535 1392 q 600 1410 569 1410 q 646 1400 632 1410 q 653 1368 660 1390 l 218 19 q 196 -10 213 0 q 149 -19 179 -19 m 700 1469 q 688 1474 694 1469 q 674 1483 681 1478 l 475 1656 q 458 1674 461 1667 q 454 1690 454 1681 q 467 1722 454 1706 q 499 1751 481 1739 q 529 1763 517 1763 q 545 1758 539 1763 q 558 1747 551 1754 l 742 1544 q 751 1530 750 1535 q 753 1521 753 1525 q 734 1488 753 1507 q 700 1469 715 1469 z "},"Ī":{"ha":521,"x_min":88,"x_max":897,"o":"m 149 -19 q 102 -10 117 -19 q 93 22 88 0 l 528 1372 q 552 1401 535 1392 q 600 1410 569 1410 q 646 1400 632 1410 q 653 1368 660 1390 l 218 19 q 196 -10 213 0 q 149 -19 179 -19 m 461 1556 q 428 1572 435 1556 q 429 1613 422 1588 q 449 1658 436 1643 q 486 1674 461 1674 l 858 1674 q 892 1656 886 1674 q 892 1613 899 1639 q 872 1569 885 1583 q 835 1556 860 1556 l 461 1556 z "},"Į":{"ha":521,"x_min":-147,"x_max":660,"o":"m 149 -19 q 102 -10 117 -19 q 93 22 88 0 l 528 1372 q 552 1401 535 1392 q 600 1410 569 1410 q 646 1400 632 1410 q 653 1368 660 1390 l 218 19 q 196 -10 213 0 q 149 -19 179 -19 m -49 -365 q -122 -341 -96 -365 q -147 -278 -147 -317 q -125 -199 -147 -237 q -66 -126 -103 -161 q 17 -56 -29 -90 q 111 14 63 -21 l 203 15 l 203 7 q 119 -58 160 -26 q 47 -121 79 -90 q -3 -178 15 -151 q -22 -226 -22 -204 q -13 -250 -22 -242 q 13 -258 -4 -258 q 63 -242 38 -258 q 117 -200 88 -226 q 142 -188 128 -190 q 169 -200 156 -186 q 184 -223 179 -210 q 179 -251 189 -236 q 120 -307 158 -281 q 38 -349 82 -333 q -49 -365 -7 -365 z "},"Ĩ":{"ha":521,"x_min":88,"x_max":931,"o":"m 149 -19 q 102 -10 117 -19 q 93 22 88 0 l 528 1372 q 552 1401 535 1392 q 600 1410 569 1410 q 646 1400 632 1410 q 653 1368 660 1390 l 218 19 q 196 -10 213 0 q 149 -19 179 -19 m 435 1511 q 393 1549 390 1511 q 442 1683 403 1642 q 549 1725 481 1725 q 626 1710 593 1725 q 683 1675 658 1696 q 730 1639 707 1654 q 779 1624 753 1624 q 811 1640 797 1624 q 831 1690 825 1656 q 889 1728 838 1728 q 920 1718 911 1728 q 928 1690 929 1708 q 881 1556 918 1599 q 775 1513 843 1513 q 699 1528 732 1513 q 639 1563 665 1543 q 590 1597 613 1582 q 542 1613 567 1613 q 508 1594 522 1613 q 488 1542 494 1576 q 472 1519 485 1526 q 435 1511 458 1511 z "},"Ị":{"ha":521,"x_min":-12,"x_max":660,"o":"m 149 -19 q 102 -10 117 -19 q 93 22 88 0 l 528 1372 q 552 1401 535 1392 q 600 1410 569 1410 q 646 1400 632 1410 q 653 1368 660 1390 l 218 19 q 196 -10 213 0 q 149 -19 179 -19 m 54 -322 q 7 -304 26 -322 q -12 -251 -12 -286 q 12 -181 -12 -214 q 88 -147 36 -147 q 136 -165 117 -147 q 156 -218 156 -183 q 131 -290 156 -257 q 54 -322 107 -322 z "},"Ỉ":{"ha":521,"x_min":88,"x_max":824,"o":"m 149 -19 q 102 -10 117 -19 q 93 22 88 0 l 528 1372 q 552 1401 535 1392 q 600 1410 569 1410 q 646 1400 632 1410 q 653 1368 660 1390 l 218 19 q 196 -10 213 0 q 149 -19 179 -19 m 681 1800 q 785 1771 747 1800 q 822 1689 822 1742 q 800 1616 822 1647 q 739 1564 778 1585 q 699 1536 708 1549 q 689 1510 689 1524 l 689 1494 q 676 1468 690 1478 q 644 1457 663 1458 q 609 1463 625 1456 q 590 1486 593 1469 l 583 1521 q 591 1578 576 1554 q 640 1621 606 1603 q 676 1648 664 1633 q 688 1675 688 1663 q 678 1692 688 1686 q 653 1699 669 1699 q 613 1692 635 1699 q 569 1674 592 1686 q 517 1706 538 1657 q 538 1761 504 1738 q 605 1790 569 1781 q 681 1800 640 1800 z "},"Ĵ":{"ha":1001,"x_min":33,"x_max":1408,"o":"m 365 -26 q 217 6 289 -26 q 94 100 144 39 q 36 249 44 161 q 42 285 33 274 q 85 303 50 297 q 128 300 111 307 q 149 265 144 293 q 185 172 157 211 q 260 113 214 133 q 367 92 307 92 q 457 101 414 92 q 539 133 500 111 q 613 194 578 156 q 679 288 649 232 q 733 422 710 344 l 1042 1372 q 1067 1401 1049 1392 q 1114 1410 1085 1410 q 1157 1401 1144 1410 q 1163 1372 1169 1392 l 853 417 q 781 246 821 319 q 695 120 742 172 q 596 35 649 68 q 485 -12 543 3 q 365 -26 428 -26 m 931 1469 q 903 1486 914 1469 q 892 1518 892 1503 q 897 1539 892 1532 q 907 1551 901 1546 l 1132 1726 q 1172 1751 1153 1744 q 1213 1758 1190 1758 q 1245 1749 1231 1758 q 1271 1722 1260 1740 l 1400 1542 q 1408 1524 1407 1532 q 1408 1510 1408 1517 q 1390 1481 1408 1493 q 1360 1469 1372 1469 q 1336 1476 1346 1469 q 1315 1493 1326 1483 l 1186 1618 l 974 1485 q 953 1474 964 1479 q 931 1469 943 1469 z "},"Ķ":{"ha":1065,"x_min":86,"x_max":1314,"o":"m 140 -22 q 98 -12 110 -22 q 92 18 86 -3 l 532 1371 q 606 1410 544 1410 q 654 1371 668 1410 l 468 800 l 1217 1388 q 1260 1406 1243 1408 q 1296 1378 1278 1403 q 1312 1338 1314 1353 q 1281 1301 1310 1322 l 531 719 q 657 477 593 589 q 790 265 721 365 q 940 64 860 165 q 954 22 960 39 q 919 -17 949 6 q 879 -26 899 -31 q 847 -6 860 -21 q 726 159 785 75 q 616 330 668 243 q 518 507 564 417 q 432 689 472 597 l 214 18 q 190 -12 208 -3 q 140 -22 171 -22 m 317 -401 q 299 -374 300 -389 q 308 -343 297 -360 q 351 -276 333 -307 q 378 -212 368 -244 q 392 -139 388 -181 q 410 -106 394 -115 q 453 -96 426 -96 q 500 -111 485 -96 q 513 -153 515 -126 q 491 -227 510 -187 q 444 -306 472 -267 q 385 -378 417 -344 q 351 -403 367 -396 q 317 -401 335 -410 z "},"Ĺ":{"ha":964,"x_min":89,"x_max":849,"o":"m 151 0 q 107 56 89 0 l 532 1372 q 553 1401 539 1392 q 597 1410 567 1410 q 644 1400 629 1410 q 651 1368 660 1390 l 246 111 l 817 111 q 838 98 832 111 q 835 56 843 85 q 814 15 828 29 q 785 0 800 0 l 151 0 m 568 1469 q 534 1488 553 1469 q 515 1521 515 1507 q 517 1532 515 1526 q 528 1546 519 1538 l 747 1747 q 760 1758 754 1754 q 775 1763 767 1763 q 806 1750 789 1763 q 836 1721 824 1738 q 849 1689 849 1704 q 846 1672 849 1679 q 828 1654 843 1665 l 594 1483 q 580 1474 586 1478 q 568 1469 574 1469 z "},"Ľ":{"ha":964,"x_min":89,"x_max":929,"o":"m 151 0 q 107 56 89 0 l 532 1372 q 553 1401 539 1392 q 597 1410 567 1410 q 644 1400 629 1410 q 651 1368 660 1390 l 246 111 l 817 111 q 838 98 832 111 q 835 56 843 85 q 814 15 828 29 q 785 0 800 0 l 151 0 m 736 1072 q 710 1096 715 1082 q 719 1135 706 1110 q 750 1199 733 1160 q 781 1283 767 1239 q 801 1367 794 1328 q 817 1401 804 1390 q 864 1413 829 1413 q 913 1401 897 1413 q 926 1367 929 1390 q 899 1274 919 1325 q 853 1174 879 1224 q 799 1086 826 1125 q 776 1069 792 1076 q 736 1072 760 1061 z "},"Ļ":{"ha":964,"x_min":89,"x_max":843,"o":"m 151 0 q 107 56 89 0 l 532 1372 q 553 1401 539 1392 q 597 1410 567 1410 q 644 1400 629 1410 q 651 1368 660 1390 l 246 111 l 817 111 q 838 98 832 111 q 835 56 843 85 q 814 15 828 29 q 785 0 800 0 l 151 0 m 303 -401 q 285 -374 286 -389 q 294 -343 283 -360 q 337 -276 319 -307 q 364 -212 354 -244 q 378 -139 374 -181 q 397 -106 381 -115 q 439 -96 413 -96 q 486 -111 471 -96 q 499 -153 501 -126 q 477 -227 496 -187 q 431 -306 458 -267 q 371 -378 403 -344 q 337 -403 353 -396 q 303 -401 321 -410 z "},"Ŀ":{"ha":964,"x_min":89,"x_max":924,"o":"m 151 0 q 107 56 89 0 l 532 1372 q 553 1401 539 1392 q 597 1410 567 1410 q 644 1400 629 1410 q 651 1368 660 1390 l 246 111 l 817 111 q 838 98 832 111 q 835 56 843 85 q 814 15 828 29 q 785 0 800 0 l 151 0 m 824 629 q 776 647 796 629 q 756 700 756 665 q 781 772 756 739 q 857 804 806 804 q 905 787 885 804 q 925 733 925 769 q 901 663 925 696 q 824 629 876 629 z "},"Ł":{"ha":964,"x_min":89,"x_max":843,"o":"m 151 0 q 107 56 89 0 l 532 1372 q 553 1401 539 1392 q 597 1410 567 1410 q 644 1400 629 1410 q 651 1368 660 1390 l 246 111 l 817 111 q 838 98 832 111 q 835 56 843 85 q 814 15 828 29 q 785 0 800 0 l 151 0 m 197 589 q 163 590 176 582 q 138 621 149 597 q 135 658 132 639 q 157 683 138 676 l 689 878 q 720 880 708 885 q 742 854 732 875 q 732 789 767 804 l 197 589 z "},"Ń":{"ha":1369,"x_min":81,"x_max":1517,"o":"m 142 -19 q 93 19 81 -19 l 532 1372 q 557 1401 539 1392 q 604 1410 575 1410 q 642 1401 629 1410 q 663 1372 656 1392 l 1007 221 l 1381 1372 q 1406 1401 1388 1392 q 1453 1410 1424 1410 q 1501 1372 1517 1410 l 1064 19 q 1040 -10 1058 0 q 993 -19 1021 -19 q 960 -12 971 -19 q 942 19 949 -6 l 593 1185 l 214 19 q 190 -10 208 0 q 142 -19 172 -19 m 994 1469 q 960 1488 979 1469 q 942 1521 942 1507 q 944 1532 942 1526 q 954 1546 946 1538 l 1174 1747 q 1187 1758 1181 1754 q 1201 1763 1193 1763 q 1233 1750 1215 1763 q 1263 1721 1250 1738 q 1275 1689 1275 1704 q 1272 1672 1275 1679 q 1254 1654 1269 1665 l 1021 1483 q 1006 1474 1013 1478 q 994 1469 1000 1469 z "},"Ň":{"ha":1369,"x_min":81,"x_max":1517,"o":"m 142 -19 q 93 19 81 -19 l 532 1372 q 557 1401 539 1392 q 604 1410 575 1410 q 642 1401 629 1410 q 663 1372 656 1392 l 1007 221 l 1381 1372 q 1406 1401 1388 1392 q 1453 1410 1424 1410 q 1501 1372 1517 1410 l 1064 19 q 1040 -10 1058 0 q 993 -19 1021 -19 q 960 -12 971 -19 q 942 19 949 -6 l 593 1185 l 214 19 q 190 -10 208 0 q 142 -19 172 -19 m 1328 1758 q 1358 1742 1344 1758 q 1371 1710 1371 1725 q 1367 1689 1371 1696 q 1356 1676 1363 1682 l 1129 1501 q 1090 1477 1108 1485 q 1050 1469 1072 1469 q 1017 1479 1032 1469 q 990 1507 1003 1489 l 863 1688 q 854 1706 856 1699 q 853 1718 853 1713 q 873 1747 853 1735 q 907 1758 893 1758 q 928 1752 921 1758 q 944 1736 935 1746 l 1075 1611 l 1288 1738 q 1307 1751 1297 1743 q 1328 1758 1317 1758 z "},"Ņ":{"ha":1369,"x_min":81,"x_max":1517,"o":"m 142 -19 q 93 19 81 -19 l 532 1372 q 557 1401 539 1392 q 604 1410 575 1410 q 642 1401 629 1410 q 663 1372 656 1392 l 1007 221 l 1381 1372 q 1406 1401 1388 1392 q 1453 1410 1424 1410 q 1501 1372 1517 1410 l 1064 19 q 1040 -10 1058 0 q 993 -19 1021 -19 q 960 -12 971 -19 q 942 19 949 -6 l 593 1185 l 214 19 q 190 -10 208 0 q 142 -19 172 -19 m 408 -401 q 390 -374 392 -389 q 400 -343 389 -360 q 442 -276 425 -307 q 469 -212 460 -244 q 483 -139 479 -181 q 502 -106 486 -115 q 544 -96 518 -96 q 592 -111 576 -96 q 604 -153 607 -126 q 583 -227 601 -187 q 536 -306 564 -267 q 476 -378 508 -344 q 442 -403 458 -396 q 408 -401 426 -410 z "},"Ñ":{"ha":1369,"x_min":81,"x_max":1517,"o":"m 142 -19 q 93 19 81 -19 l 532 1372 q 557 1401 539 1392 q 604 1410 575 1410 q 642 1401 629 1410 q 663 1372 656 1392 l 1007 221 l 1381 1372 q 1406 1401 1388 1392 q 1453 1410 1424 1410 q 1501 1372 1517 1410 l 1064 19 q 1040 -10 1058 0 q 993 -19 1021 -19 q 960 -12 971 -19 q 942 19 949 -6 l 593 1185 l 214 19 q 190 -10 208 0 q 142 -19 172 -19 m 871 1511 q 829 1549 826 1511 q 878 1683 839 1642 q 985 1725 917 1725 q 1062 1710 1029 1725 q 1119 1675 1094 1696 q 1166 1639 1143 1654 q 1215 1624 1189 1624 q 1247 1640 1233 1624 q 1267 1690 1261 1656 q 1325 1728 1274 1728 q 1356 1718 1347 1728 q 1364 1690 1365 1708 q 1317 1556 1354 1599 q 1211 1513 1279 1513 q 1135 1528 1168 1513 q 1075 1563 1101 1543 q 1026 1597 1049 1582 q 978 1613 1003 1613 q 944 1594 958 1613 q 924 1542 931 1576 q 908 1519 921 1526 q 871 1511 894 1511 z "},"Ó":{"ha":1426,"x_min":214,"x_max":1435,"o":"m 674 -26 q 485 9 569 -26 q 340 112 400 44 q 247 274 279 179 q 214 488 214 369 q 237 695 214 589 q 304 905 260 801 q 413 1099 349 1008 q 563 1260 478 1190 q 753 1370 649 1331 q 979 1410 857 1410 q 1167 1374 1083 1410 q 1310 1272 1251 1339 q 1402 1111 1369 1206 q 1435 900 1435 1017 q 1411 681 1435 792 q 1342 467 1388 571 q 1231 274 1296 364 q 1081 117 1165 185 q 894 12 996 50 q 674 -26 792 -26 m 694 92 q 871 125 789 92 q 1022 217 953 158 q 1143 354 1090 276 q 1232 521 1196 432 q 1287 701 1268 610 q 1306 882 1306 793 q 1283 1058 1306 982 q 1217 1187 1261 1135 q 1108 1265 1172 1239 q 958 1292 1043 1292 q 783 1258 865 1292 q 632 1165 700 1225 q 510 1028 564 1106 q 419 862 457 950 q 363 683 382 774 q 344 504 344 592 q 367 328 344 406 q 433 199 389 251 q 542 119 476 147 q 694 92 607 92 m 985 1469 q 951 1488 969 1469 q 932 1521 932 1507 q 934 1532 932 1526 q 944 1546 936 1538 l 1164 1747 q 1177 1758 1171 1754 q 1192 1763 1183 1763 q 1223 1750 1206 1763 q 1253 1721 1240 1738 q 1265 1689 1265 1704 q 1263 1672 1265 1679 q 1244 1654 1260 1665 l 1011 1483 q 997 1474 1003 1478 q 985 1469 990 1469 z "},"Ŏ":{"ha":1426,"x_min":214,"x_max":1435,"o":"m 674 -26 q 485 9 569 -26 q 340 112 400 44 q 247 274 279 179 q 214 488 214 369 q 237 695 214 589 q 304 905 260 801 q 413 1099 349 1008 q 563 1260 478 1190 q 753 1370 649 1331 q 979 1410 857 1410 q 1167 1374 1083 1410 q 1310 1272 1251 1339 q 1402 1111 1369 1206 q 1435 900 1435 1017 q 1411 681 1435 792 q 1342 467 1388 571 q 1231 274 1296 364 q 1081 117 1165 185 q 894 12 996 50 q 674 -26 792 -26 m 694 92 q 871 125 789 92 q 1022 217 953 158 q 1143 354 1090 276 q 1232 521 1196 432 q 1287 701 1268 610 q 1306 882 1306 793 q 1283 1058 1306 982 q 1217 1187 1261 1135 q 1108 1265 1172 1239 q 958 1292 1043 1292 q 783 1258 865 1292 q 632 1165 700 1225 q 510 1028 564 1106 q 419 862 457 950 q 363 683 382 774 q 344 504 344 592 q 367 328 344 406 q 433 199 389 251 q 542 119 476 147 q 694 92 607 92 m 1057 1469 q 903 1531 956 1469 q 864 1721 850 1593 q 879 1750 867 1742 q 913 1758 892 1758 q 947 1748 933 1758 q 960 1721 960 1738 q 992 1619 958 1650 q 1079 1589 1026 1589 q 1190 1626 1143 1589 q 1261 1717 1236 1663 q 1285 1750 1272 1742 q 1317 1758 1297 1758 q 1353 1746 1340 1758 q 1360 1713 1367 1733 q 1288 1564 1328 1617 q 1192 1490 1249 1511 q 1057 1469 1136 1469 z "},"Ǒ":{"ha":1426,"x_min":214,"x_max":1435,"o":"m 674 -26 q 485 9 569 -26 q 340 112 400 44 q 247 274 279 179 q 214 488 214 369 q 237 695 214 589 q 304 905 260 801 q 413 1099 349 1008 q 563 1260 478 1190 q 753 1370 649 1331 q 979 1410 857 1410 q 1167 1374 1083 1410 q 1310 1272 1251 1339 q 1402 1111 1369 1206 q 1435 900 1435 1017 q 1411 681 1435 792 q 1342 467 1388 571 q 1231 274 1296 364 q 1081 117 1165 185 q 894 12 996 50 q 674 -26 792 -26 m 694 92 q 871 125 789 92 q 1022 217 953 158 q 1143 354 1090 276 q 1232 521 1196 432 q 1287 701 1268 610 q 1306 882 1306 793 q 1283 1058 1306 982 q 1217 1187 1261 1135 q 1108 1265 1172 1239 q 958 1292 1043 1292 q 783 1258 865 1292 q 632 1165 700 1225 q 510 1028 564 1106 q 419 862 457 950 q 363 683 382 774 q 344 504 344 592 q 367 328 344 406 q 433 199 389 251 q 542 119 476 147 q 694 92 607 92 m 1319 1758 q 1349 1742 1336 1758 q 1363 1710 1363 1725 q 1358 1689 1363 1696 q 1347 1676 1354 1682 l 1121 1501 q 1082 1477 1100 1485 q 1042 1469 1064 1469 q 1009 1479 1024 1469 q 982 1507 994 1489 l 854 1688 q 846 1706 847 1699 q 844 1718 844 1713 q 865 1747 844 1735 q 899 1758 885 1758 q 919 1752 913 1758 q 936 1736 926 1746 l 1067 1611 l 1279 1738 q 1299 1751 1289 1743 q 1319 1758 1308 1758 z "},"Ô":{"ha":1426,"x_min":214,"x_max":1435,"o":"m 674 -26 q 485 9 569 -26 q 340 112 400 44 q 247 274 279 179 q 214 488 214 369 q 237 695 214 589 q 304 905 260 801 q 413 1099 349 1008 q 563 1260 478 1190 q 753 1370 649 1331 q 979 1410 857 1410 q 1167 1374 1083 1410 q 1310 1272 1251 1339 q 1402 1111 1369 1206 q 1435 900 1435 1017 q 1411 681 1435 792 q 1342 467 1388 571 q 1231 274 1296 364 q 1081 117 1165 185 q 894 12 996 50 q 674 -26 792 -26 m 694 92 q 871 125 789 92 q 1022 217 953 158 q 1143 354 1090 276 q 1232 521 1196 432 q 1287 701 1268 610 q 1306 882 1306 793 q 1283 1058 1306 982 q 1217 1187 1261 1135 q 1108 1265 1172 1239 q 958 1292 1043 1292 q 783 1258 865 1292 q 632 1165 700 1225 q 510 1028 564 1106 q 419 862 457 950 q 363 683 382 774 q 344 504 344 592 q 367 328 344 406 q 433 199 389 251 q 542 119 476 147 q 694 92 607 92 m 849 1469 q 821 1486 832 1469 q 810 1518 810 1503 q 815 1539 810 1532 q 825 1551 819 1546 l 1050 1726 q 1090 1751 1071 1744 q 1131 1758 1108 1758 q 1163 1749 1149 1758 q 1189 1722 1178 1740 l 1318 1542 q 1326 1524 1325 1532 q 1326 1510 1326 1517 q 1308 1481 1326 1493 q 1278 1469 1290 1469 q 1254 1476 1264 1469 q 1233 1493 1244 1483 l 1104 1618 l 892 1485 q 872 1474 882 1479 q 849 1469 861 1469 z "},"Ö":{"ha":1426,"x_min":214,"x_max":1435,"o":"m 674 -26 q 485 9 569 -26 q 340 112 400 44 q 247 274 279 179 q 214 488 214 369 q 237 695 214 589 q 304 905 260 801 q 413 1099 349 1008 q 563 1260 478 1190 q 753 1370 649 1331 q 979 1410 857 1410 q 1167 1374 1083 1410 q 1310 1272 1251 1339 q 1402 1111 1369 1206 q 1435 900 1435 1017 q 1411 681 1435 792 q 1342 467 1388 571 q 1231 274 1296 364 q 1081 117 1165 185 q 894 12 996 50 q 674 -26 792 -26 m 694 92 q 871 125 789 92 q 1022 217 953 158 q 1143 354 1090 276 q 1232 521 1196 432 q 1287 701 1268 610 q 1306 882 1306 793 q 1283 1058 1306 982 q 1217 1187 1261 1135 q 1108 1265 1172 1239 q 958 1292 1043 1292 q 783 1258 865 1292 q 632 1165 700 1225 q 510 1028 564 1106 q 419 862 457 950 q 363 683 382 774 q 344 504 344 592 q 367 328 344 406 q 433 199 389 251 q 542 119 476 147 q 694 92 607 92 m 896 1517 q 847 1535 867 1517 q 828 1589 828 1553 q 853 1659 828 1626 q 929 1692 879 1692 q 976 1674 957 1692 q 996 1621 996 1657 q 972 1550 996 1583 q 896 1517 949 1517 m 1238 1517 q 1190 1535 1210 1517 q 1169 1589 1169 1553 q 1195 1659 1169 1626 q 1271 1692 1221 1692 q 1319 1674 1299 1692 q 1339 1621 1339 1657 q 1315 1550 1339 1583 q 1238 1517 1290 1517 z "},"Ò":{"ha":1426,"x_min":214,"x_max":1435,"o":"m 674 -26 q 485 9 569 -26 q 340 112 400 44 q 247 274 279 179 q 214 488 214 369 q 237 695 214 589 q 304 905 260 801 q 413 1099 349 1008 q 563 1260 478 1190 q 753 1370 649 1331 q 979 1410 857 1410 q 1167 1374 1083 1410 q 1310 1272 1251 1339 q 1402 1111 1369 1206 q 1435 900 1435 1017 q 1411 681 1435 792 q 1342 467 1388 571 q 1231 274 1296 364 q 1081 117 1165 185 q 894 12 996 50 q 674 -26 792 -26 m 694 92 q 871 125 789 92 q 1022 217 953 158 q 1143 354 1090 276 q 1232 521 1196 432 q 1287 701 1268 610 q 1306 882 1306 793 q 1283 1058 1306 982 q 1217 1187 1261 1135 q 1108 1265 1172 1239 q 958 1292 1043 1292 q 783 1258 865 1292 q 632 1165 700 1225 q 510 1028 564 1106 q 419 862 457 950 q 363 683 382 774 q 344 504 344 592 q 367 328 344 406 q 433 199 389 251 q 542 119 476 147 q 694 92 607 92 m 1126 1469 q 1114 1474 1121 1469 q 1100 1483 1107 1478 l 901 1656 q 884 1674 888 1667 q 881 1690 881 1681 q 894 1722 881 1706 q 925 1751 907 1739 q 956 1763 943 1763 q 972 1758 965 1763 q 985 1747 978 1754 l 1168 1544 q 1178 1530 1176 1535 q 1179 1521 1179 1525 q 1160 1488 1179 1507 q 1126 1469 1142 1469 z "},"Ő":{"ha":1426,"x_min":214,"x_max":1435,"o":"m 674 -26 q 485 9 569 -26 q 340 112 400 44 q 247 274 279 179 q 214 488 214 369 q 237 695 214 589 q 304 905 260 801 q 413 1099 349 1008 q 563 1260 478 1190 q 753 1370 649 1331 q 979 1410 857 1410 q 1167 1374 1083 1410 q 1310 1272 1251 1339 q 1402 1111 1369 1206 q 1435 900 1435 1017 q 1411 681 1435 792 q 1342 467 1388 571 q 1231 274 1296 364 q 1081 117 1165 185 q 894 12 996 50 q 674 -26 792 -26 m 694 92 q 871 125 789 92 q 1022 217 953 158 q 1143 354 1090 276 q 1232 521 1196 432 q 1287 701 1268 610 q 1306 882 1306 793 q 1283 1058 1306 982 q 1217 1187 1261 1135 q 1108 1265 1172 1239 q 958 1292 1043 1292 q 783 1258 865 1292 q 632 1165 700 1225 q 510 1028 564 1106 q 419 862 457 950 q 363 683 382 774 q 344 504 344 592 q 367 328 344 406 q 433 199 389 251 q 542 119 476 147 q 694 92 607 92 m 904 1469 q 871 1488 889 1469 q 853 1521 853 1507 q 854 1532 853 1526 q 865 1546 856 1538 l 1061 1747 q 1074 1758 1068 1754 q 1088 1763 1079 1763 q 1119 1750 1101 1763 q 1150 1721 1138 1738 q 1163 1690 1163 1704 q 1160 1672 1163 1679 q 1142 1654 1157 1665 l 932 1483 q 917 1474 924 1478 q 904 1469 910 1469 m 1176 1469 q 1142 1488 1161 1469 q 1124 1521 1124 1507 q 1125 1532 1124 1526 q 1136 1546 1126 1538 l 1331 1747 q 1345 1758 1339 1754 q 1360 1763 1351 1763 q 1391 1750 1374 1763 q 1422 1721 1408 1738 q 1435 1690 1435 1704 q 1432 1672 1435 1679 q 1414 1654 1429 1665 l 1201 1483 q 1188 1474 1194 1478 q 1176 1469 1182 1469 z "},"Ō":{"ha":1426,"x_min":214,"x_max":1435,"o":"m 674 -26 q 485 9 569 -26 q 340 112 400 44 q 247 274 279 179 q 214 488 214 369 q 237 695 214 589 q 304 905 260 801 q 413 1099 349 1008 q 563 1260 478 1190 q 753 1370 649 1331 q 979 1410 857 1410 q 1167 1374 1083 1410 q 1310 1272 1251 1339 q 1402 1111 1369 1206 q 1435 900 1435 1017 q 1411 681 1435 792 q 1342 467 1388 571 q 1231 274 1296 364 q 1081 117 1165 185 q 894 12 996 50 q 674 -26 792 -26 m 694 92 q 871 125 789 92 q 1022 217 953 158 q 1143 354 1090 276 q 1232 521 1196 432 q 1287 701 1268 610 q 1306 882 1306 793 q 1283 1058 1306 982 q 1217 1187 1261 1135 q 1108 1265 1172 1239 q 958 1292 1043 1292 q 783 1258 865 1292 q 632 1165 700 1225 q 510 1028 564 1106 q 419 862 457 950 q 363 683 382 774 q 344 504 344 592 q 367 328 344 406 q 433 199 389 251 q 542 119 476 147 q 694 92 607 92 m 888 1556 q 855 1572 861 1556 q 856 1613 849 1588 q 875 1658 863 1643 q 913 1674 888 1674 l 1285 1674 q 1319 1656 1313 1674 q 1318 1613 1325 1639 q 1299 1569 1311 1583 q 1261 1556 1286 1556 l 888 1556 z "},"Ø":{"ha":1426,"x_min":149,"x_max":1483,"o":"m 674 -26 q 485 9 569 -26 q 340 112 400 44 q 247 274 279 179 q 214 488 214 369 q 237 695 214 589 q 304 905 260 801 q 413 1099 349 1008 q 563 1260 478 1190 q 753 1370 649 1331 q 979 1410 857 1410 q 1167 1374 1083 1410 q 1310 1272 1251 1339 q 1402 1111 1369 1206 q 1435 900 1435 1017 q 1411 681 1435 792 q 1342 467 1388 571 q 1231 274 1296 364 q 1081 117 1165 185 q 894 12 996 50 q 674 -26 792 -26 m 694 92 q 871 125 789 92 q 1022 217 953 158 q 1143 354 1090 276 q 1232 521 1196 432 q 1287 701 1268 610 q 1306 882 1306 793 q 1283 1058 1306 982 q 1217 1187 1261 1135 q 1108 1265 1172 1239 q 958 1292 1043 1292 q 783 1258 865 1292 q 632 1165 700 1225 q 510 1028 564 1106 q 419 862 457 950 q 363 683 382 774 q 344 504 344 592 q 367 328 344 406 q 433 199 389 251 q 542 119 476 147 q 694 92 607 92 m 269 -42 q 240 -60 260 -56 q 193 -43 219 -65 q 179 28 150 -8 l 1379 1415 q 1413 1431 1390 1431 q 1457 1415 1435 1432 q 1480 1381 1476 1401 q 1468 1342 1483 1361 l 269 -42 z "},"Õ":{"ha":1426,"x_min":214,"x_max":1435,"o":"m 674 -26 q 485 9 569 -26 q 340 112 400 44 q 247 274 279 179 q 214 488 214 369 q 237 695 214 589 q 304 905 260 801 q 413 1099 349 1008 q 563 1260 478 1190 q 753 1370 649 1331 q 979 1410 857 1410 q 1167 1374 1083 1410 q 1310 1272 1251 1339 q 1402 1111 1369 1206 q 1435 900 1435 1017 q 1411 681 1435 792 q 1342 467 1388 571 q 1231 274 1296 364 q 1081 117 1165 185 q 894 12 996 50 q 674 -26 792 -26 m 694 92 q 871 125 789 92 q 1022 217 953 158 q 1143 354 1090 276 q 1232 521 1196 432 q 1287 701 1268 610 q 1306 882 1306 793 q 1283 1058 1306 982 q 1217 1187 1261 1135 q 1108 1265 1172 1239 q 958 1292 1043 1292 q 783 1258 865 1292 q 632 1165 700 1225 q 510 1028 564 1106 q 419 862 457 950 q 363 683 382 774 q 344 504 344 592 q 367 328 344 406 q 433 199 389 251 q 542 119 476 147 q 694 92 607 92 m 863 1511 q 821 1549 818 1511 q 869 1683 831 1642 q 976 1725 908 1725 q 1053 1710 1021 1725 q 1110 1675 1086 1696 q 1158 1639 1135 1654 q 1207 1624 1181 1624 q 1239 1640 1225 1624 q 1258 1690 1253 1656 q 1317 1728 1265 1728 q 1348 1718 1339 1728 q 1356 1690 1357 1708 q 1308 1556 1346 1599 q 1203 1513 1271 1513 q 1126 1528 1160 1513 q 1067 1563 1093 1543 q 1017 1597 1040 1582 q 969 1613 994 1613 q 936 1594 950 1613 q 915 1542 922 1576 q 899 1519 913 1526 q 863 1511 886 1511 z "},"Ố":{"ha":1426,"x_min":214,"x_max":1569,"o":"m 674 -26 q 485 9 569 -26 q 340 112 400 44 q 247 274 279 179 q 214 488 214 369 q 237 695 214 589 q 304 905 260 801 q 413 1099 349 1008 q 563 1260 478 1190 q 753 1370 649 1331 q 979 1410 857 1410 q 1167 1374 1083 1410 q 1310 1272 1251 1339 q 1402 1111 1369 1206 q 1435 900 1435 1017 q 1411 681 1435 792 q 1342 467 1388 571 q 1231 274 1296 364 q 1081 117 1165 185 q 894 12 996 50 q 674 -26 792 -26 m 694 92 q 871 125 789 92 q 1022 217 953 158 q 1143 354 1090 276 q 1232 521 1196 432 q 1287 701 1268 610 q 1306 882 1306 793 q 1283 1058 1306 982 q 1217 1187 1261 1135 q 1108 1265 1172 1239 q 958 1292 1043 1292 q 783 1258 865 1292 q 632 1165 700 1225 q 510 1028 564 1106 q 419 862 457 950 q 363 683 382 774 q 344 504 344 592 q 367 328 344 406 q 433 199 389 251 q 542 119 476 147 q 694 92 607 92 m 849 1469 q 821 1486 832 1469 q 810 1518 810 1503 q 815 1539 810 1532 q 825 1551 819 1546 l 1050 1726 q 1090 1751 1071 1744 q 1131 1758 1108 1758 q 1163 1749 1149 1758 q 1189 1722 1178 1740 l 1318 1542 q 1326 1524 1325 1532 q 1326 1510 1326 1517 q 1308 1481 1326 1493 q 1278 1469 1290 1469 q 1254 1476 1264 1469 q 1233 1493 1244 1483 l 1104 1618 l 892 1485 q 872 1474 882 1479 q 849 1469 861 1469 m 1325 1685 q 1291 1704 1310 1685 q 1272 1736 1272 1724 q 1274 1747 1272 1742 q 1286 1763 1276 1753 l 1467 1939 q 1480 1951 1474 1947 q 1494 1956 1486 1956 q 1526 1943 1508 1956 q 1557 1913 1544 1931 q 1569 1881 1569 1896 q 1566 1864 1569 1871 q 1547 1847 1563 1857 l 1351 1699 q 1337 1688 1343 1692 q 1325 1685 1331 1685 z "},"Ộ":{"ha":1426,"x_min":214,"x_max":1435,"o":"m 674 -26 q 485 9 569 -26 q 340 112 400 44 q 247 274 279 179 q 214 488 214 369 q 237 695 214 589 q 304 905 260 801 q 413 1099 349 1008 q 563 1260 478 1190 q 753 1370 649 1331 q 979 1410 857 1410 q 1167 1374 1083 1410 q 1310 1272 1251 1339 q 1402 1111 1369 1206 q 1435 900 1435 1017 q 1411 681 1435 792 q 1342 467 1388 571 q 1231 274 1296 364 q 1081 117 1165 185 q 894 12 996 50 q 674 -26 792 -26 m 694 92 q 871 125 789 92 q 1022 217 953 158 q 1143 354 1090 276 q 1232 521 1196 432 q 1287 701 1268 610 q 1306 882 1306 793 q 1283 1058 1306 982 q 1217 1187 1261 1135 q 1108 1265 1172 1239 q 958 1292 1043 1292 q 783 1258 865 1292 q 632 1165 700 1225 q 510 1028 564 1106 q 419 862 457 950 q 363 683 382 774 q 344 504 344 592 q 367 328 344 406 q 433 199 389 251 q 542 119 476 147 q 694 92 607 92 m 506 -322 q 458 -304 478 -322 q 439 -251 439 -286 q 463 -181 439 -214 q 539 -147 488 -147 q 588 -165 568 -147 q 607 -218 607 -183 q 583 -290 607 -257 q 506 -322 558 -322 m 849 1469 q 821 1486 832 1469 q 810 1518 810 1503 q 815 1539 810 1532 q 825 1551 819 1546 l 1050 1726 q 1090 1751 1071 1744 q 1131 1758 1108 1758 q 1163 1749 1149 1758 q 1189 1722 1178 1740 l 1318 1542 q 1326 1524 1325 1532 q 1326 1510 1326 1517 q 1308 1481 1326 1493 q 1278 1469 1290 1469 q 1254 1476 1264 1469 q 1233 1493 1244 1483 l 1104 1618 l 892 1485 q 872 1474 882 1479 q 849 1469 861 1469 z "},"Ồ":{"ha":1426,"x_min":214,"x_max":1460,"o":"m 674 -26 q 485 9 569 -26 q 340 112 400 44 q 247 274 279 179 q 214 488 214 369 q 237 695 214 589 q 304 905 260 801 q 413 1099 349 1008 q 563 1260 478 1190 q 753 1370 649 1331 q 979 1410 857 1410 q 1167 1374 1083 1410 q 1310 1272 1251 1339 q 1402 1111 1369 1206 q 1435 900 1435 1017 q 1411 681 1435 792 q 1342 467 1388 571 q 1231 274 1296 364 q 1081 117 1165 185 q 894 12 996 50 q 674 -26 792 -26 m 694 92 q 871 125 789 92 q 1022 217 953 158 q 1143 354 1090 276 q 1232 521 1196 432 q 1287 701 1268 610 q 1306 882 1306 793 q 1283 1058 1306 982 q 1217 1187 1261 1135 q 1108 1265 1172 1239 q 958 1292 1043 1292 q 783 1258 865 1292 q 632 1165 700 1225 q 510 1028 564 1106 q 419 862 457 950 q 363 683 382 774 q 344 504 344 592 q 367 328 344 406 q 433 199 389 251 q 542 119 476 147 q 694 92 607 92 m 849 1469 q 821 1486 832 1469 q 810 1518 810 1503 q 815 1539 810 1532 q 825 1551 819 1546 l 1050 1726 q 1090 1751 1071 1744 q 1131 1758 1108 1758 q 1163 1749 1149 1758 q 1189 1722 1178 1740 l 1318 1542 q 1326 1524 1325 1532 q 1326 1510 1326 1517 q 1308 1481 1326 1493 q 1278 1469 1290 1469 q 1254 1476 1264 1469 q 1233 1493 1244 1483 l 1104 1618 l 892 1485 q 872 1474 882 1479 q 849 1469 861 1469 m 1404 1663 q 1392 1665 1399 1663 q 1379 1675 1386 1668 l 1207 1865 q 1191 1885 1196 1878 q 1186 1901 1186 1892 q 1199 1933 1186 1917 q 1232 1960 1213 1950 q 1267 1971 1251 1971 q 1283 1967 1275 1971 q 1296 1956 1290 1963 l 1449 1740 q 1458 1724 1456 1729 q 1460 1713 1460 1718 q 1442 1680 1460 1697 q 1404 1663 1424 1663 z "},"Ổ":{"ha":1426,"x_min":214,"x_max":1535,"o":"m 674 -26 q 485 9 569 -26 q 340 112 400 44 q 247 274 279 179 q 214 488 214 369 q 237 695 214 589 q 304 905 260 801 q 413 1099 349 1008 q 563 1260 478 1190 q 753 1370 649 1331 q 979 1410 857 1410 q 1167 1374 1083 1410 q 1310 1272 1251 1339 q 1402 1111 1369 1206 q 1435 900 1435 1017 q 1411 681 1435 792 q 1342 467 1388 571 q 1231 274 1296 364 q 1081 117 1165 185 q 894 12 996 50 q 674 -26 792 -26 m 694 92 q 871 125 789 92 q 1022 217 953 158 q 1143 354 1090 276 q 1232 521 1196 432 q 1287 701 1268 610 q 1306 882 1306 793 q 1283 1058 1306 982 q 1217 1187 1261 1135 q 1108 1265 1172 1239 q 958 1292 1043 1292 q 783 1258 865 1292 q 632 1165 700 1225 q 510 1028 564 1106 q 419 862 457 950 q 363 683 382 774 q 344 504 344 592 q 367 328 344 406 q 433 199 389 251 q 542 119 476 147 q 694 92 607 92 m 849 1469 q 821 1486 832 1469 q 810 1518 810 1503 q 815 1539 810 1532 q 825 1551 819 1546 l 1050 1726 q 1090 1751 1071 1744 q 1131 1758 1108 1758 q 1163 1749 1149 1758 q 1189 1722 1178 1740 l 1318 1542 q 1326 1524 1325 1532 q 1326 1510 1326 1517 q 1308 1481 1326 1493 q 1278 1469 1290 1469 q 1254 1476 1264 1469 q 1233 1493 1244 1483 l 1104 1618 l 892 1485 q 872 1474 882 1479 q 849 1469 861 1469 m 1392 1996 q 1497 1967 1458 1996 q 1535 1885 1535 1938 q 1513 1811 1535 1843 q 1451 1760 1490 1779 q 1410 1732 1419 1744 q 1400 1706 1400 1719 l 1400 1690 q 1388 1664 1401 1674 q 1355 1653 1374 1654 q 1321 1658 1336 1651 q 1301 1682 1306 1665 l 1294 1717 q 1303 1774 1288 1750 q 1351 1817 1318 1799 q 1388 1844 1376 1829 q 1399 1871 1399 1858 q 1390 1888 1399 1882 q 1364 1894 1381 1894 q 1325 1888 1346 1894 q 1281 1869 1304 1882 q 1229 1901 1250 1853 q 1249 1957 1215 1933 q 1317 1986 1282 1976 q 1392 1996 1351 1996 z "},"Ỗ":{"ha":1426,"x_min":214,"x_max":1435,"o":"m 674 -26 q 485 9 569 -26 q 340 112 400 44 q 247 274 279 179 q 214 488 214 369 q 237 695 214 589 q 304 905 260 801 q 413 1099 349 1008 q 563 1260 478 1190 q 753 1370 649 1331 q 979 1410 857 1410 q 1167 1374 1083 1410 q 1310 1272 1251 1339 q 1402 1111 1369 1206 q 1435 900 1435 1017 q 1411 681 1435 792 q 1342 467 1388 571 q 1231 274 1296 364 q 1081 117 1165 185 q 894 12 996 50 q 674 -26 792 -26 m 694 92 q 871 125 789 92 q 1022 217 953 158 q 1143 354 1090 276 q 1232 521 1196 432 q 1287 701 1268 610 q 1306 882 1306 793 q 1283 1058 1306 982 q 1217 1187 1261 1135 q 1108 1265 1172 1239 q 958 1292 1043 1292 q 783 1258 865 1292 q 632 1165 700 1225 q 510 1028 564 1106 q 419 862 457 950 q 363 683 382 774 q 344 504 344 592 q 367 328 344 406 q 433 199 389 251 q 542 119 476 147 q 694 92 607 92 m 849 1469 q 821 1486 832 1469 q 810 1518 810 1503 q 815 1539 810 1532 q 825 1551 819 1546 l 1050 1726 q 1090 1751 1071 1744 q 1131 1758 1108 1758 q 1163 1749 1149 1758 q 1189 1722 1178 1740 l 1318 1542 q 1326 1524 1325 1532 q 1326 1510 1326 1517 q 1308 1481 1326 1493 q 1278 1469 1290 1469 q 1254 1476 1264 1469 q 1233 1493 1244 1483 l 1104 1618 l 892 1485 q 872 1474 882 1479 q 849 1469 861 1469 m 929 1779 q 888 1817 885 1779 q 936 1952 897 1910 q 1043 1994 975 1994 q 1120 1979 1088 1994 q 1177 1943 1153 1964 q 1224 1908 1201 1922 q 1274 1893 1247 1893 q 1306 1909 1292 1893 q 1325 1960 1319 1925 q 1383 1996 1332 1996 q 1415 1987 1406 1996 q 1421 1960 1424 1978 q 1375 1824 1413 1867 q 1269 1781 1338 1781 q 1193 1796 1226 1781 q 1133 1831 1160 1811 q 1084 1866 1107 1851 q 1036 1881 1061 1881 q 1003 1863 1017 1881 q 982 1810 989 1846 q 966 1788 979 1796 q 929 1779 953 1779 z "},"Ọ":{"ha":1426,"x_min":214,"x_max":1435,"o":"m 674 -26 q 485 9 569 -26 q 340 112 400 44 q 247 274 279 179 q 214 488 214 369 q 237 695 214 589 q 304 905 260 801 q 413 1099 349 1008 q 563 1260 478 1190 q 753 1370 649 1331 q 979 1410 857 1410 q 1167 1374 1083 1410 q 1310 1272 1251 1339 q 1402 1111 1369 1206 q 1435 900 1435 1017 q 1411 681 1435 792 q 1342 467 1388 571 q 1231 274 1296 364 q 1081 117 1165 185 q 894 12 996 50 q 674 -26 792 -26 m 694 92 q 871 125 789 92 q 1022 217 953 158 q 1143 354 1090 276 q 1232 521 1196 432 q 1287 701 1268 610 q 1306 882 1306 793 q 1283 1058 1306 982 q 1217 1187 1261 1135 q 1108 1265 1172 1239 q 958 1292 1043 1292 q 783 1258 865 1292 q 632 1165 700 1225 q 510 1028 564 1106 q 419 862 457 950 q 363 683 382 774 q 344 504 344 592 q 367 328 344 406 q 433 199 389 251 q 542 119 476 147 q 694 92 607 92 m 506 -322 q 458 -304 478 -322 q 439 -251 439 -286 q 463 -181 439 -214 q 539 -147 488 -147 q 588 -165 568 -147 q 607 -218 607 -183 q 583 -290 607 -257 q 506 -322 558 -322 z "},"Ỏ":{"ha":1426,"x_min":214,"x_max":1435,"o":"m 674 -26 q 485 9 569 -26 q 340 112 400 44 q 247 274 279 179 q 214 488 214 369 q 237 695 214 589 q 304 905 260 801 q 413 1099 349 1008 q 563 1260 478 1190 q 753 1370 649 1331 q 979 1410 857 1410 q 1167 1374 1083 1410 q 1310 1272 1251 1339 q 1402 1111 1369 1206 q 1435 900 1435 1017 q 1411 681 1435 792 q 1342 467 1388 571 q 1231 274 1296 364 q 1081 117 1165 185 q 894 12 996 50 q 674 -26 792 -26 m 694 92 q 871 125 789 92 q 1022 217 953 158 q 1143 354 1090 276 q 1232 521 1196 432 q 1287 701 1268 610 q 1306 882 1306 793 q 1283 1058 1306 982 q 1217 1187 1261 1135 q 1108 1265 1172 1239 q 958 1292 1043 1292 q 783 1258 865 1292 q 632 1165 700 1225 q 510 1028 564 1106 q 419 862 457 950 q 363 683 382 774 q 344 504 344 592 q 367 328 344 406 q 433 199 389 251 q 542 119 476 147 q 694 92 607 92 m 1108 1800 q 1213 1771 1175 1800 q 1250 1689 1250 1742 q 1228 1616 1250 1647 q 1167 1564 1206 1585 q 1126 1536 1136 1549 q 1117 1510 1117 1524 l 1117 1494 q 1104 1468 1118 1478 q 1072 1457 1090 1458 q 1037 1463 1053 1456 q 1018 1486 1021 1469 l 1011 1521 q 1019 1578 1004 1554 q 1068 1621 1033 1603 q 1103 1648 1092 1633 q 1115 1675 1115 1663 q 1106 1692 1115 1686 q 1081 1699 1097 1699 q 1041 1692 1063 1699 q 997 1674 1019 1686 q 944 1706 965 1657 q 965 1761 932 1738 q 1033 1790 997 1781 q 1108 1800 1068 1800 z "},"Ơ":{"ha":1426,"x_min":214,"x_max":1521,"o":"m 674 -26 q 485 9 569 -26 q 340 112 400 44 q 247 274 279 179 q 214 488 214 369 q 237 695 214 589 q 304 905 260 801 q 413 1099 349 1008 q 563 1260 478 1190 q 753 1370 649 1331 q 979 1410 857 1410 q 1081 1399 1033 1410 q 1169 1368 1129 1389 q 1306 1390 1256 1371 q 1379 1441 1357 1408 q 1403 1521 1401 1474 q 1390 1631 1404 1568 q 1401 1663 1386 1650 q 1437 1681 1415 1676 q 1478 1681 1458 1686 q 1501 1656 1497 1675 q 1520 1537 1519 1594 q 1497 1431 1521 1479 q 1422 1349 1474 1383 q 1281 1301 1369 1315 q 1394 1133 1354 1236 q 1435 900 1435 1031 q 1411 681 1435 792 q 1342 467 1388 571 q 1231 274 1296 364 q 1081 117 1165 185 q 894 12 996 50 q 674 -26 792 -26 m 694 92 q 871 125 789 92 q 1022 217 953 158 q 1143 354 1090 276 q 1232 521 1196 432 q 1287 701 1268 610 q 1306 882 1306 793 q 1283 1058 1306 982 q 1217 1187 1261 1135 q 1108 1265 1172 1239 q 958 1292 1043 1292 q 783 1258 865 1292 q 632 1165 700 1225 q 510 1028 564 1106 q 419 862 457 950 q 363 683 382 774 q 344 504 344 592 q 367 328 344 406 q 433 199 389 251 q 542 119 476 147 q 694 92 607 92 z "},"Ớ":{"ha":1426,"x_min":214,"x_max":1521,"o":"m 674 -26 q 485 9 569 -26 q 340 112 400 44 q 247 274 279 179 q 214 488 214 369 q 237 695 214 589 q 304 905 260 801 q 413 1099 349 1008 q 563 1260 478 1190 q 753 1370 649 1331 q 979 1410 857 1410 q 1081 1399 1033 1410 q 1169 1368 1129 1389 q 1306 1390 1256 1371 q 1379 1441 1357 1408 q 1403 1521 1401 1474 q 1390 1631 1404 1568 q 1401 1663 1386 1650 q 1437 1681 1415 1676 q 1478 1681 1458 1686 q 1501 1656 1497 1675 q 1520 1537 1519 1594 q 1497 1431 1521 1479 q 1422 1349 1474 1383 q 1281 1301 1369 1315 q 1394 1133 1354 1236 q 1435 900 1435 1031 q 1411 681 1435 792 q 1342 467 1388 571 q 1231 274 1296 364 q 1081 117 1165 185 q 894 12 996 50 q 674 -26 792 -26 m 694 92 q 871 125 789 92 q 1022 217 953 158 q 1143 354 1090 276 q 1232 521 1196 432 q 1287 701 1268 610 q 1306 882 1306 793 q 1283 1058 1306 982 q 1217 1187 1261 1135 q 1108 1265 1172 1239 q 958 1292 1043 1292 q 783 1258 865 1292 q 632 1165 700 1225 q 510 1028 564 1106 q 419 862 457 950 q 363 683 382 774 q 344 504 344 592 q 367 328 344 406 q 433 199 389 251 q 542 119 476 147 q 694 92 607 92 m 985 1469 q 951 1488 969 1469 q 932 1521 932 1507 q 934 1532 932 1526 q 944 1546 936 1538 l 1164 1747 q 1177 1758 1171 1754 q 1192 1763 1183 1763 q 1223 1750 1206 1763 q 1253 1721 1240 1738 q 1265 1689 1265 1704 q 1263 1672 1265 1679 q 1244 1654 1260 1665 l 1011 1483 q 997 1474 1003 1478 q 985 1469 990 1469 z "},"Ợ":{"ha":1426,"x_min":214,"x_max":1521,"o":"m 674 -26 q 485 9 569 -26 q 340 112 400 44 q 247 274 279 179 q 214 488 214 369 q 237 695 214 589 q 304 905 260 801 q 413 1099 349 1008 q 563 1260 478 1190 q 753 1370 649 1331 q 979 1410 857 1410 q 1081 1399 1033 1410 q 1169 1368 1129 1389 q 1306 1390 1256 1371 q 1379 1441 1357 1408 q 1403 1521 1401 1474 q 1390 1631 1404 1568 q 1401 1663 1386 1650 q 1437 1681 1415 1676 q 1478 1681 1458 1686 q 1501 1656 1497 1675 q 1520 1537 1519 1594 q 1497 1431 1521 1479 q 1422 1349 1474 1383 q 1281 1301 1369 1315 q 1394 1133 1354 1236 q 1435 900 1435 1031 q 1411 681 1435 792 q 1342 467 1388 571 q 1231 274 1296 364 q 1081 117 1165 185 q 894 12 996 50 q 674 -26 792 -26 m 694 92 q 871 125 789 92 q 1022 217 953 158 q 1143 354 1090 276 q 1232 521 1196 432 q 1287 701 1268 610 q 1306 882 1306 793 q 1283 1058 1306 982 q 1217 1187 1261 1135 q 1108 1265 1172 1239 q 958 1292 1043 1292 q 783 1258 865 1292 q 632 1165 700 1225 q 510 1028 564 1106 q 419 862 457 950 q 363 683 382 774 q 344 504 344 592 q 367 328 344 406 q 433 199 389 251 q 542 119 476 147 q 694 92 607 92 m 506 -322 q 458 -304 478 -322 q 439 -251 439 -286 q 463 -181 439 -214 q 539 -147 488 -147 q 588 -165 568 -147 q 607 -218 607 -183 q 583 -290 607 -257 q 506 -322 558 -322 z "},"Ờ":{"ha":1426,"x_min":214,"x_max":1521,"o":"m 674 -26 q 485 9 569 -26 q 340 112 400 44 q 247 274 279 179 q 214 488 214 369 q 237 695 214 589 q 304 905 260 801 q 413 1099 349 1008 q 563 1260 478 1190 q 753 1370 649 1331 q 979 1410 857 1410 q 1081 1399 1033 1410 q 1169 1368 1129 1389 q 1306 1390 1256 1371 q 1379 1441 1357 1408 q 1403 1521 1401 1474 q 1390 1631 1404 1568 q 1401 1663 1386 1650 q 1437 1681 1415 1676 q 1478 1681 1458 1686 q 1501 1656 1497 1675 q 1520 1537 1519 1594 q 1497 1431 1521 1479 q 1422 1349 1474 1383 q 1281 1301 1369 1315 q 1394 1133 1354 1236 q 1435 900 1435 1031 q 1411 681 1435 792 q 1342 467 1388 571 q 1231 274 1296 364 q 1081 117 1165 185 q 894 12 996 50 q 674 -26 792 -26 m 694 92 q 871 125 789 92 q 1022 217 953 158 q 1143 354 1090 276 q 1232 521 1196 432 q 1287 701 1268 610 q 1306 882 1306 793 q 1283 1058 1306 982 q 1217 1187 1261 1135 q 1108 1265 1172 1239 q 958 1292 1043 1292 q 783 1258 865 1292 q 632 1165 700 1225 q 510 1028 564 1106 q 419 862 457 950 q 363 683 382 774 q 344 504 344 592 q 367 328 344 406 q 433 199 389 251 q 542 119 476 147 q 694 92 607 92 m 1126 1469 q 1114 1474 1121 1469 q 1100 1483 1107 1478 l 901 1656 q 884 1674 888 1667 q 881 1690 881 1681 q 894 1722 881 1706 q 925 1751 907 1739 q 956 1763 943 1763 q 972 1758 965 1763 q 985 1747 978 1754 l 1168 1544 q 1178 1530 1176 1535 q 1179 1521 1179 1525 q 1160 1488 1179 1507 q 1126 1469 1142 1469 z "},"Ở":{"ha":1426,"x_min":214,"x_max":1521,"o":"m 674 -26 q 485 9 569 -26 q 340 112 400 44 q 247 274 279 179 q 214 488 214 369 q 237 695 214 589 q 304 905 260 801 q 413 1099 349 1008 q 563 1260 478 1190 q 753 1370 649 1331 q 979 1410 857 1410 q 1081 1399 1033 1410 q 1169 1368 1129 1389 q 1306 1390 1256 1371 q 1379 1441 1357 1408 q 1403 1521 1401 1474 q 1390 1631 1404 1568 q 1401 1663 1386 1650 q 1437 1681 1415 1676 q 1478 1681 1458 1686 q 1501 1656 1497 1675 q 1520 1537 1519 1594 q 1497 1431 1521 1479 q 1422 1349 1474 1383 q 1281 1301 1369 1315 q 1394 1133 1354 1236 q 1435 900 1435 1031 q 1411 681 1435 792 q 1342 467 1388 571 q 1231 274 1296 364 q 1081 117 1165 185 q 894 12 996 50 q 674 -26 792 -26 m 694 92 q 871 125 789 92 q 1022 217 953 158 q 1143 354 1090 276 q 1232 521 1196 432 q 1287 701 1268 610 q 1306 882 1306 793 q 1283 1058 1306 982 q 1217 1187 1261 1135 q 1108 1265 1172 1239 q 958 1292 1043 1292 q 783 1258 865 1292 q 632 1165 700 1225 q 510 1028 564 1106 q 419 862 457 950 q 363 683 382 774 q 344 504 344 592 q 367 328 344 406 q 433 199 389 251 q 542 119 476 147 q 694 92 607 92 m 1108 1800 q 1213 1771 1175 1800 q 1250 1689 1250 1742 q 1228 1616 1250 1647 q 1167 1564 1206 1585 q 1126 1536 1136 1549 q 1117 1510 1117 1524 l 1117 1494 q 1104 1468 1118 1478 q 1072 1457 1090 1458 q 1037 1463 1053 1456 q 1018 1486 1021 1469 l 1011 1521 q 1019 1578 1004 1554 q 1068 1621 1033 1603 q 1103 1648 1092 1633 q 1115 1675 1115 1663 q 1106 1692 1115 1686 q 1081 1699 1097 1699 q 1041 1692 1063 1699 q 997 1674 1019 1686 q 944 1706 965 1657 q 965 1761 932 1738 q 1033 1790 997 1781 q 1108 1800 1068 1800 z "},"Ỡ":{"ha":1426,"x_min":214,"x_max":1521,"o":"m 674 -26 q 485 9 569 -26 q 340 112 400 44 q 247 274 279 179 q 214 488 214 369 q 237 695 214 589 q 304 905 260 801 q 413 1099 349 1008 q 563 1260 478 1190 q 753 1370 649 1331 q 979 1410 857 1410 q 1081 1399 1033 1410 q 1169 1368 1129 1389 q 1306 1390 1256 1371 q 1379 1441 1357 1408 q 1403 1521 1401 1474 q 1390 1631 1404 1568 q 1401 1663 1386 1650 q 1437 1681 1415 1676 q 1478 1681 1458 1686 q 1501 1656 1497 1675 q 1520 1537 1519 1594 q 1497 1431 1521 1479 q 1422 1349 1474 1383 q 1281 1301 1369 1315 q 1394 1133 1354 1236 q 1435 900 1435 1031 q 1411 681 1435 792 q 1342 467 1388 571 q 1231 274 1296 364 q 1081 117 1165 185 q 894 12 996 50 q 674 -26 792 -26 m 694 92 q 871 125 789 92 q 1022 217 953 158 q 1143 354 1090 276 q 1232 521 1196 432 q 1287 701 1268 610 q 1306 882 1306 793 q 1283 1058 1306 982 q 1217 1187 1261 1135 q 1108 1265 1172 1239 q 958 1292 1043 1292 q 783 1258 865 1292 q 632 1165 700 1225 q 510 1028 564 1106 q 419 862 457 950 q 363 683 382 774 q 344 504 344 592 q 367 328 344 406 q 433 199 389 251 q 542 119 476 147 q 694 92 607 92 m 818 1511 q 776 1549 774 1511 q 825 1683 786 1642 q 932 1725 864 1725 q 1009 1710 976 1725 q 1066 1675 1042 1696 q 1113 1639 1090 1654 q 1163 1624 1136 1624 q 1194 1640 1181 1624 q 1214 1690 1208 1656 q 1272 1728 1221 1728 q 1303 1718 1294 1728 q 1311 1690 1313 1708 q 1264 1556 1301 1599 q 1158 1513 1226 1513 q 1082 1528 1115 1513 q 1022 1563 1049 1543 q 973 1597 996 1582 q 925 1613 950 1613 q 892 1594 906 1613 q 871 1542 878 1576 q 855 1519 868 1526 q 818 1511 842 1511 z "},"Ŕ":{"ha":1069,"x_min":89,"x_max":1222,"o":"m 149 -19 q 103 -10 118 -19 q 94 22 89 0 l 524 1347 q 547 1376 531 1367 q 594 1386 564 1386 l 794 1386 q 1038 1359 943 1386 q 1178 1270 1133 1332 q 1222 1103 1222 1208 q 1201 973 1222 1033 q 1140 861 1181 913 q 1041 769 1100 810 q 905 698 982 728 q 735 650 828 668 q 535 628 643 632 q 640 436 583 531 q 767 251 697 342 q 922 71 836 160 q 938 41 933 60 q 911 -6 943 22 q 870 -20 890 -24 q 833 0 850 -17 q 673 185 751 83 q 527 397 594 286 q 408 615 460 508 l 217 19 q 195 -10 210 0 q 149 -19 181 -19 m 443 725 q 610 733 532 725 q 754 758 688 742 q 875 797 821 774 q 971 850 929 819 q 1041 918 1013 881 q 1083 999 1069 956 q 1097 1093 1097 1043 q 1069 1203 1097 1164 q 970 1259 1040 1243 q 776 1275 900 1275 l 622 1275 l 443 725 m 843 1469 q 809 1488 828 1469 q 790 1521 790 1507 q 792 1532 790 1526 q 803 1546 794 1538 l 1022 1747 q 1035 1758 1029 1754 q 1050 1763 1042 1763 q 1081 1750 1064 1763 q 1111 1721 1099 1738 q 1124 1689 1124 1704 q 1121 1672 1124 1679 q 1103 1654 1118 1665 l 869 1483 q 855 1474 861 1478 q 843 1469 849 1469 z "},"Ř":{"ha":1069,"x_min":89,"x_max":1222,"o":"m 149 -19 q 103 -10 118 -19 q 94 22 89 0 l 524 1347 q 547 1376 531 1367 q 594 1386 564 1386 l 794 1386 q 1038 1359 943 1386 q 1178 1270 1133 1332 q 1222 1103 1222 1208 q 1201 973 1222 1033 q 1140 861 1181 913 q 1041 769 1100 810 q 905 698 982 728 q 735 650 828 668 q 535 628 643 632 q 640 436 583 531 q 767 251 697 342 q 922 71 836 160 q 938 41 933 60 q 911 -6 943 22 q 870 -20 890 -24 q 833 0 850 -17 q 673 185 751 83 q 527 397 594 286 q 408 615 460 508 l 217 19 q 195 -10 210 0 q 149 -19 181 -19 m 443 725 q 610 733 532 725 q 754 758 688 742 q 875 797 821 774 q 971 850 929 819 q 1041 918 1013 881 q 1083 999 1069 956 q 1097 1093 1097 1043 q 1069 1203 1097 1164 q 970 1259 1040 1243 q 776 1275 900 1275 l 622 1275 l 443 725 m 1178 1758 q 1208 1742 1194 1758 q 1221 1710 1221 1725 q 1217 1689 1221 1696 q 1206 1676 1213 1682 l 979 1501 q 940 1477 958 1485 q 900 1469 922 1469 q 867 1479 882 1469 q 840 1507 853 1489 l 713 1688 q 704 1706 706 1699 q 703 1718 703 1713 q 723 1747 703 1735 q 757 1758 743 1758 q 778 1752 771 1758 q 794 1736 785 1746 l 925 1611 l 1138 1738 q 1157 1751 1147 1743 q 1178 1758 1167 1758 z "},"Ŗ":{"ha":1069,"x_min":89,"x_max":1222,"o":"m 149 -19 q 103 -10 118 -19 q 94 22 89 0 l 524 1347 q 547 1376 531 1367 q 594 1386 564 1386 l 794 1386 q 1038 1359 943 1386 q 1178 1270 1133 1332 q 1222 1103 1222 1208 q 1201 973 1222 1033 q 1140 861 1181 913 q 1041 769 1100 810 q 905 698 982 728 q 735 650 828 668 q 535 628 643 632 q 640 436 583 531 q 767 251 697 342 q 922 71 836 160 q 938 41 933 60 q 911 -6 943 22 q 870 -20 890 -24 q 833 0 850 -17 q 673 185 751 83 q 527 397 594 286 q 408 615 460 508 l 217 19 q 195 -10 210 0 q 149 -19 181 -19 m 443 725 q 610 733 532 725 q 754 758 688 742 q 875 797 821 774 q 971 850 929 819 q 1041 918 1013 881 q 1083 999 1069 956 q 1097 1093 1097 1043 q 1069 1203 1097 1164 q 970 1259 1040 1243 q 776 1275 900 1275 l 622 1275 l 443 725 m 318 -401 q 300 -374 301 -389 q 310 -343 299 -360 q 352 -276 335 -307 q 379 -212 369 -244 q 393 -139 389 -181 q 412 -106 396 -115 q 454 -96 428 -96 q 501 -111 486 -96 q 514 -153 517 -126 q 492 -227 511 -187 q 446 -306 474 -267 q 386 -378 418 -344 q 352 -403 368 -396 q 318 -401 336 -410 z "},"Ś":{"ha":1061,"x_min":54,"x_max":1165,"o":"m 475 -29 q 338 -13 400 -29 q 226 28 275 3 q 138 88 176 54 q 68 158 99 122 q 63 189 54 174 q 85 217 71 204 q 119 236 104 232 q 147 226 133 240 q 229 159 182 190 q 338 108 276 128 q 476 89 400 89 q 620 108 554 89 q 735 165 686 128 q 810 258 783 201 q 838 389 838 314 q 824 472 838 435 q 782 539 810 508 q 714 597 754 569 q 621 653 674 625 q 529 708 572 679 q 450 771 486 738 q 388 844 414 804 q 348 934 363 885 q 333 1046 333 983 q 365 1191 333 1125 q 454 1306 396 1257 q 594 1383 513 1356 q 776 1410 676 1410 q 925 1387 856 1410 q 1052 1327 994 1364 q 1150 1247 1110 1290 q 1162 1217 1165 1233 q 1140 1185 1158 1201 q 1108 1167 1125 1169 q 1078 1175 1090 1164 q 998 1233 1042 1207 q 899 1276 954 1260 q 776 1292 844 1292 q 651 1276 708 1292 q 551 1228 593 1260 q 485 1151 508 1197 q 463 1046 463 1106 q 475 957 463 997 q 515 884 488 917 q 585 820 542 851 q 690 757 628 789 q 810 683 758 722 q 897 599 863 643 q 949 503 932 556 q 967 390 967 451 q 931 219 967 296 q 828 86 894 142 q 672 1 761 31 q 475 -29 582 -29 m 760 1469 q 726 1488 744 1469 q 707 1521 707 1507 q 709 1532 707 1526 q 719 1546 711 1538 l 939 1747 q 952 1758 946 1754 q 967 1763 958 1763 q 998 1750 981 1763 q 1028 1721 1015 1738 q 1040 1689 1040 1704 q 1038 1672 1040 1679 q 1019 1654 1035 1665 l 786 1483 q 772 1474 778 1478 q 760 1469 765 1469 z "},"Š":{"ha":1061,"x_min":54,"x_max":1165,"o":"m 475 -29 q 338 -13 400 -29 q 226 28 275 3 q 138 88 176 54 q 68 158 99 122 q 63 189 54 174 q 85 217 71 204 q 119 236 104 232 q 147 226 133 240 q 229 159 182 190 q 338 108 276 128 q 476 89 400 89 q 620 108 554 89 q 735 165 686 128 q 810 258 783 201 q 838 389 838 314 q 824 472 838 435 q 782 539 810 508 q 714 597 754 569 q 621 653 674 625 q 529 708 572 679 q 450 771 486 738 q 388 844 414 804 q 348 934 363 885 q 333 1046 333 983 q 365 1191 333 1125 q 454 1306 396 1257 q 594 1383 513 1356 q 776 1410 676 1410 q 925 1387 856 1410 q 1052 1327 994 1364 q 1150 1247 1110 1290 q 1162 1217 1165 1233 q 1140 1185 1158 1201 q 1108 1167 1125 1169 q 1078 1175 1090 1164 q 998 1233 1042 1207 q 899 1276 954 1260 q 776 1292 844 1292 q 651 1276 708 1292 q 551 1228 593 1260 q 485 1151 508 1197 q 463 1046 463 1106 q 475 957 463 997 q 515 884 488 917 q 585 820 542 851 q 690 757 628 789 q 810 683 758 722 q 897 599 863 643 q 949 503 932 556 q 967 390 967 451 q 931 219 967 296 q 828 86 894 142 q 672 1 761 31 q 475 -29 582 -29 m 1094 1758 q 1124 1742 1111 1758 q 1138 1710 1138 1725 q 1133 1689 1138 1696 q 1122 1676 1129 1682 l 896 1501 q 857 1477 875 1485 q 817 1469 839 1469 q 784 1479 799 1469 q 757 1507 769 1489 l 629 1688 q 621 1706 622 1699 q 619 1718 619 1713 q 640 1747 619 1735 q 674 1758 660 1758 q 694 1752 688 1758 q 711 1736 701 1746 l 842 1611 l 1054 1738 q 1074 1751 1064 1743 q 1094 1758 1083 1758 z "},"Ş":{"ha":1061,"x_min":54,"x_max":1165,"o":"m 475 -29 q 338 -13 400 -29 q 226 28 275 3 q 138 88 176 54 q 68 158 99 122 q 63 189 54 174 q 85 217 71 204 q 119 236 104 232 q 147 226 133 240 q 229 159 182 190 q 338 108 276 128 q 476 89 400 89 q 620 108 554 89 q 735 165 686 128 q 810 258 783 201 q 838 389 838 314 q 824 472 838 435 q 782 539 810 508 q 714 597 754 569 q 621 653 674 625 q 529 708 572 679 q 450 771 486 738 q 388 844 414 804 q 348 934 363 885 q 333 1046 333 983 q 365 1191 333 1125 q 454 1306 396 1257 q 594 1383 513 1356 q 776 1410 676 1410 q 925 1387 856 1410 q 1052 1327 994 1364 q 1150 1247 1110 1290 q 1162 1217 1165 1233 q 1140 1185 1158 1201 q 1108 1167 1125 1169 q 1078 1175 1090 1164 q 998 1233 1042 1207 q 899 1276 954 1260 q 776 1292 844 1292 q 651 1276 708 1292 q 551 1228 593 1260 q 485 1151 508 1197 q 463 1046 463 1106 q 475 957 463 997 q 515 884 488 917 q 585 820 542 851 q 690 757 628 789 q 810 683 758 722 q 897 599 863 643 q 949 503 932 556 q 967 390 967 451 q 931 219 967 296 q 828 86 894 142 q 672 1 761 31 q 475 -29 582 -29 m 369 -374 q 277 -363 318 -374 q 213 -335 236 -353 q 203 -306 201 -324 q 211 -276 204 -289 q 233 -252 221 -258 q 258 -251 244 -246 q 303 -269 276 -260 q 372 -278 329 -278 q 426 -267 407 -278 q 446 -229 446 -257 q 419 -191 446 -199 q 354 -187 392 -183 q 333 -185 339 -189 q 321 -172 326 -181 q 317 -153 315 -162 q 326 -135 319 -144 l 428 18 l 519 18 l 413 -146 l 372 -124 q 476 -112 433 -104 q 542 -147 519 -119 q 565 -215 565 -175 q 538 -302 565 -267 q 467 -356 511 -337 q 369 -374 422 -374 z "},"Ŝ":{"ha":1061,"x_min":54,"x_max":1165,"o":"m 475 -29 q 338 -13 400 -29 q 226 28 275 3 q 138 88 176 54 q 68 158 99 122 q 63 189 54 174 q 85 217 71 204 q 119 236 104 232 q 147 226 133 240 q 229 159 182 190 q 338 108 276 128 q 476 89 400 89 q 620 108 554 89 q 735 165 686 128 q 810 258 783 201 q 838 389 838 314 q 824 472 838 435 q 782 539 810 508 q 714 597 754 569 q 621 653 674 625 q 529 708 572 679 q 450 771 486 738 q 388 844 414 804 q 348 934 363 885 q 333 1046 333 983 q 365 1191 333 1125 q 454 1306 396 1257 q 594 1383 513 1356 q 776 1410 676 1410 q 925 1387 856 1410 q 1052 1327 994 1364 q 1150 1247 1110 1290 q 1162 1217 1165 1233 q 1140 1185 1158 1201 q 1108 1167 1125 1169 q 1078 1175 1090 1164 q 998 1233 1042 1207 q 899 1276 954 1260 q 776 1292 844 1292 q 651 1276 708 1292 q 551 1228 593 1260 q 485 1151 508 1197 q 463 1046 463 1106 q 475 957 463 997 q 515 884 488 917 q 585 820 542 851 q 690 757 628 789 q 810 683 758 722 q 897 599 863 643 q 949 503 932 556 q 967 390 967 451 q 931 219 967 296 q 828 86 894 142 q 672 1 761 31 q 475 -29 582 -29 m 624 1469 q 596 1486 607 1469 q 585 1518 585 1503 q 590 1539 585 1532 q 600 1551 594 1546 l 825 1726 q 865 1751 846 1744 q 906 1758 883 1758 q 938 1749 924 1758 q 964 1722 953 1740 l 1093 1542 q 1101 1524 1100 1532 q 1101 1510 1101 1517 q 1083 1481 1101 1493 q 1053 1469 1065 1469 q 1029 1476 1039 1469 q 1008 1493 1019 1483 l 879 1618 l 667 1485 q 647 1474 657 1479 q 624 1469 636 1469 z "},"Ș":{"ha":1061,"x_min":54,"x_max":1165,"o":"m 475 -29 q 338 -13 400 -29 q 226 28 275 3 q 138 88 176 54 q 68 158 99 122 q 63 189 54 174 q 85 217 71 204 q 119 236 104 232 q 147 226 133 240 q 229 159 182 190 q 338 108 276 128 q 476 89 400 89 q 620 108 554 89 q 735 165 686 128 q 810 258 783 201 q 838 389 838 314 q 824 472 838 435 q 782 539 810 508 q 714 597 754 569 q 621 653 674 625 q 529 708 572 679 q 450 771 486 738 q 388 844 414 804 q 348 934 363 885 q 333 1046 333 983 q 365 1191 333 1125 q 454 1306 396 1257 q 594 1383 513 1356 q 776 1410 676 1410 q 925 1387 856 1410 q 1052 1327 994 1364 q 1150 1247 1110 1290 q 1162 1217 1165 1233 q 1140 1185 1158 1201 q 1108 1167 1125 1169 q 1078 1175 1090 1164 q 998 1233 1042 1207 q 899 1276 954 1260 q 776 1292 844 1292 q 651 1276 708 1292 q 551 1228 593 1260 q 485 1151 508 1197 q 463 1046 463 1106 q 475 957 463 997 q 515 884 488 917 q 585 820 542 851 q 690 757 628 789 q 810 683 758 722 q 897 599 863 643 q 949 503 932 556 q 967 390 967 451 q 931 219 967 296 q 828 86 894 142 q 672 1 761 31 q 475 -29 582 -29 m 292 -401 q 274 -374 275 -389 q 283 -343 272 -360 q 326 -276 308 -307 q 353 -212 343 -244 q 367 -139 363 -181 q 385 -106 369 -115 q 428 -96 401 -96 q 475 -111 460 -96 q 488 -153 490 -126 q 466 -227 485 -187 q 419 -306 447 -267 q 360 -378 392 -344 q 326 -403 342 -396 q 292 -401 310 -410 z "},"Ŧ":{"ha":1064,"x_min":335,"x_max":1368,"o":"m 414 -21 q 365 18 356 -21 l 775 1275 l 367 1275 q 341 1288 346 1275 q 346 1331 336 1300 q 369 1374 357 1363 q 403 1386 382 1386 l 1338 1386 q 1363 1374 1358 1386 q 1357 1331 1368 1363 q 1335 1288 1347 1300 q 1301 1275 1322 1275 l 896 1275 l 486 18 q 463 -11 481 -1 q 414 -21 444 -21 m 365 642 q 338 657 340 642 q 339 690 335 672 q 353 726 343 710 q 389 743 363 743 l 936 743 q 965 726 963 743 q 964 690 968 710 q 950 657 960 672 q 915 642 940 642 l 365 642 z "},"Ť":{"ha":1064,"x_min":336,"x_max":1368,"o":"m 414 -21 q 365 18 356 -21 l 775 1275 l 367 1275 q 341 1288 346 1275 q 346 1331 336 1300 q 369 1374 357 1363 q 403 1386 382 1386 l 1338 1386 q 1363 1374 1358 1386 q 1357 1331 1368 1363 q 1335 1288 1347 1300 q 1301 1275 1322 1275 l 896 1275 l 486 18 q 463 -11 481 -1 q 414 -21 444 -21 m 1169 1758 q 1199 1742 1186 1758 q 1213 1710 1213 1725 q 1208 1689 1213 1696 q 1197 1676 1204 1682 l 971 1501 q 932 1477 950 1485 q 892 1469 914 1469 q 859 1479 874 1469 q 832 1507 844 1489 l 704 1688 q 696 1706 697 1699 q 694 1718 694 1713 q 715 1747 694 1735 q 749 1758 735 1758 q 769 1752 763 1758 q 786 1736 776 1746 l 917 1611 l 1129 1738 q 1149 1751 1139 1743 q 1169 1758 1158 1758 z "},"Ţ":{"ha":1064,"x_min":165,"x_max":1368,"o":"m 414 -21 q 365 18 356 -21 l 775 1275 l 367 1275 q 341 1288 346 1275 q 346 1331 336 1300 q 369 1374 357 1363 q 403 1386 382 1386 l 1338 1386 q 1363 1374 1358 1386 q 1357 1331 1368 1363 q 1335 1288 1347 1300 q 1301 1275 1322 1275 l 896 1275 l 486 18 q 463 -11 481 -1 q 414 -21 444 -21 m 333 -374 q 241 -363 282 -374 q 176 -335 200 -353 q 167 -306 165 -324 q 175 -276 168 -289 q 197 -252 185 -258 q 222 -251 208 -246 q 267 -269 240 -260 q 336 -278 293 -278 q 390 -267 371 -278 q 410 -229 410 -257 q 383 -191 410 -199 q 318 -187 356 -183 q 297 -185 303 -189 q 285 -172 290 -181 q 281 -153 279 -162 q 290 -135 283 -144 l 392 18 l 483 18 l 376 -146 l 336 -124 q 440 -112 397 -104 q 506 -147 483 -119 q 529 -215 529 -175 q 502 -302 529 -267 q 431 -356 475 -337 q 333 -374 386 -374 z "},"Ț":{"ha":1064,"x_min":235,"x_max":1368,"o":"m 414 -21 q 365 18 356 -21 l 775 1275 l 367 1275 q 341 1288 346 1275 q 346 1331 336 1300 q 369 1374 357 1363 q 403 1386 382 1386 l 1338 1386 q 1363 1374 1358 1386 q 1357 1331 1368 1363 q 1335 1288 1347 1300 q 1301 1275 1322 1275 l 896 1275 l 486 18 q 463 -11 481 -1 q 414 -21 444 -21 m 256 -401 q 238 -374 239 -389 q 247 -343 236 -360 q 290 -276 272 -307 q 317 -212 307 -244 q 331 -139 326 -181 q 349 -106 333 -115 q 392 -96 365 -96 q 439 -111 424 -96 q 451 -153 454 -126 q 430 -227 449 -187 q 383 -306 411 -267 q 324 -378 356 -344 q 290 -403 306 -396 q 256 -401 274 -410 z "},"Ú":{"ha":1331,"x_min":186,"x_max":1482,"o":"m 576 -26 q 378 6 461 -26 q 247 101 294 39 q 193 256 200 164 q 224 467 186 347 l 513 1372 q 535 1401 519 1392 q 585 1410 551 1410 q 632 1400 617 1410 q 640 1368 647 1390 l 343 450 q 321 247 303 326 q 408 129 339 167 q 588 92 476 92 q 802 133 710 92 q 958 253 894 174 q 1058 450 1022 333 l 1344 1372 q 1367 1401 1351 1392 q 1415 1410 1383 1410 q 1469 1368 1482 1410 l 1179 435 q 1047 181 1132 283 q 843 26 961 78 q 576 -26 725 -26 m 938 1469 q 903 1488 922 1469 q 885 1521 885 1507 q 887 1532 885 1526 q 897 1546 889 1538 l 1117 1747 q 1130 1758 1124 1754 q 1144 1763 1136 1763 q 1176 1750 1158 1763 q 1206 1721 1193 1738 q 1218 1689 1218 1704 q 1215 1672 1218 1679 q 1197 1654 1213 1665 l 964 1483 q 949 1474 956 1478 q 938 1469 943 1469 z "},"Ŭ":{"ha":1331,"x_min":186,"x_max":1482,"o":"m 576 -26 q 378 6 461 -26 q 247 101 294 39 q 193 256 200 164 q 224 467 186 347 l 513 1372 q 535 1401 519 1392 q 585 1410 551 1410 q 632 1400 617 1410 q 640 1368 647 1390 l 343 450 q 321 247 303 326 q 408 129 339 167 q 588 92 476 92 q 802 133 710 92 q 958 253 894 174 q 1058 450 1022 333 l 1344 1372 q 1367 1401 1351 1392 q 1415 1410 1383 1410 q 1469 1368 1482 1410 l 1179 435 q 1047 181 1132 283 q 843 26 961 78 q 576 -26 725 -26 m 1010 1469 q 856 1531 908 1469 q 817 1721 803 1593 q 832 1750 819 1742 q 865 1758 844 1758 q 899 1748 886 1758 q 913 1721 913 1738 q 945 1619 911 1650 q 1032 1589 979 1589 q 1142 1626 1096 1589 q 1214 1717 1189 1663 q 1238 1750 1225 1742 q 1269 1758 1250 1758 q 1306 1746 1293 1758 q 1313 1713 1319 1733 q 1241 1564 1281 1617 q 1145 1490 1201 1511 q 1010 1469 1089 1469 z "},"Ǔ":{"ha":1331,"x_min":186,"x_max":1482,"o":"m 576 -26 q 378 6 461 -26 q 247 101 294 39 q 193 256 200 164 q 224 467 186 347 l 513 1372 q 535 1401 519 1392 q 585 1410 551 1410 q 632 1400 617 1410 q 640 1368 647 1390 l 343 450 q 321 247 303 326 q 408 129 339 167 q 588 92 476 92 q 802 133 710 92 q 958 253 894 174 q 1058 450 1022 333 l 1344 1372 q 1367 1401 1351 1392 q 1415 1410 1383 1410 q 1469 1368 1482 1410 l 1179 435 q 1047 181 1132 283 q 843 26 961 78 q 576 -26 725 -26 m 1272 1758 q 1302 1742 1289 1758 q 1315 1710 1315 1725 q 1311 1689 1315 1696 q 1300 1676 1307 1682 l 1074 1501 q 1035 1477 1053 1485 q 994 1469 1017 1469 q 962 1479 976 1469 q 935 1507 947 1489 l 807 1688 q 799 1706 800 1699 q 797 1718 797 1713 q 817 1747 797 1735 q 851 1758 838 1758 q 872 1752 865 1758 q 889 1736 879 1746 l 1019 1611 l 1232 1738 q 1251 1751 1242 1743 q 1272 1758 1261 1758 z "},"Û":{"ha":1331,"x_min":186,"x_max":1482,"o":"m 576 -26 q 378 6 461 -26 q 247 101 294 39 q 193 256 200 164 q 224 467 186 347 l 513 1372 q 535 1401 519 1392 q 585 1410 551 1410 q 632 1400 617 1410 q 640 1368 647 1390 l 343 450 q 321 247 303 326 q 408 129 339 167 q 588 92 476 92 q 802 133 710 92 q 958 253 894 174 q 1058 450 1022 333 l 1344 1372 q 1367 1401 1351 1392 q 1415 1410 1383 1410 q 1469 1368 1482 1410 l 1179 435 q 1047 181 1132 283 q 843 26 961 78 q 576 -26 725 -26 m 801 1469 q 774 1486 785 1469 q 763 1518 763 1503 q 767 1539 763 1532 q 778 1551 772 1546 l 1003 1726 q 1042 1751 1024 1744 q 1083 1758 1061 1758 q 1116 1749 1101 1758 q 1142 1722 1131 1740 l 1271 1542 q 1278 1524 1278 1532 q 1279 1510 1279 1517 q 1261 1481 1279 1493 q 1231 1469 1243 1469 q 1207 1476 1217 1469 q 1186 1493 1197 1483 l 1057 1618 l 844 1485 q 824 1474 835 1479 q 801 1469 814 1469 z "},"Ü":{"ha":1331,"x_min":186,"x_max":1482,"o":"m 576 -26 q 378 6 461 -26 q 247 101 294 39 q 193 256 200 164 q 224 467 186 347 l 513 1372 q 535 1401 519 1392 q 585 1410 551 1410 q 632 1400 617 1410 q 640 1368 647 1390 l 343 450 q 321 247 303 326 q 408 129 339 167 q 588 92 476 92 q 802 133 710 92 q 958 253 894 174 q 1058 450 1022 333 l 1344 1372 q 1367 1401 1351 1392 q 1415 1410 1383 1410 q 1469 1368 1482 1410 l 1179 435 q 1047 181 1132 283 q 843 26 961 78 q 576 -26 725 -26 m 847 1517 q 799 1535 818 1517 q 779 1589 779 1553 q 805 1659 779 1626 q 881 1692 831 1692 q 928 1674 908 1692 q 947 1621 947 1657 q 924 1550 947 1583 q 847 1517 900 1517 m 1189 1517 q 1141 1535 1161 1517 q 1121 1589 1121 1553 q 1147 1659 1121 1626 q 1222 1692 1172 1692 q 1270 1674 1250 1692 q 1290 1621 1290 1657 q 1266 1550 1290 1583 q 1189 1517 1242 1517 z "},"Ù":{"ha":1331,"x_min":186,"x_max":1482,"o":"m 576 -26 q 378 6 461 -26 q 247 101 294 39 q 193 256 200 164 q 224 467 186 347 l 513 1372 q 535 1401 519 1392 q 585 1410 551 1410 q 632 1400 617 1410 q 640 1368 647 1390 l 343 450 q 321 247 303 326 q 408 129 339 167 q 588 92 476 92 q 802 133 710 92 q 958 253 894 174 q 1058 450 1022 333 l 1344 1372 q 1367 1401 1351 1392 q 1415 1410 1383 1410 q 1469 1368 1482 1410 l 1179 435 q 1047 181 1132 283 q 843 26 961 78 q 576 -26 725 -26 m 1079 1469 q 1067 1474 1074 1469 q 1053 1483 1060 1478 l 854 1656 q 837 1674 840 1667 q 833 1690 833 1681 q 847 1722 833 1706 q 878 1751 860 1739 q 908 1763 896 1763 q 924 1758 918 1763 q 938 1747 931 1754 l 1121 1544 q 1131 1530 1129 1535 q 1132 1521 1132 1525 q 1113 1488 1132 1507 q 1079 1469 1094 1469 z "},"Ű":{"ha":1331,"x_min":186,"x_max":1482,"o":"m 576 -26 q 378 6 461 -26 q 247 101 294 39 q 193 256 200 164 q 224 467 186 347 l 513 1372 q 535 1401 519 1392 q 585 1410 551 1410 q 632 1400 617 1410 q 640 1368 647 1390 l 343 450 q 321 247 303 326 q 408 129 339 167 q 588 92 476 92 q 802 133 710 92 q 958 253 894 174 q 1058 450 1022 333 l 1344 1372 q 1367 1401 1351 1392 q 1415 1410 1383 1410 q 1469 1368 1482 1410 l 1179 435 q 1047 181 1132 283 q 843 26 961 78 q 576 -26 725 -26 m 857 1469 q 824 1488 842 1469 q 806 1521 806 1507 q 807 1532 806 1526 q 818 1546 808 1538 l 1014 1747 q 1026 1758 1021 1754 q 1040 1763 1032 1763 q 1072 1750 1054 1763 q 1103 1721 1090 1738 q 1115 1690 1115 1704 q 1113 1672 1115 1679 q 1094 1654 1110 1665 l 885 1483 q 869 1474 876 1478 q 857 1469 863 1469 m 1129 1469 q 1095 1488 1114 1469 q 1076 1521 1076 1507 q 1078 1532 1076 1526 q 1089 1546 1079 1538 l 1283 1747 q 1298 1758 1292 1754 q 1313 1763 1304 1763 q 1344 1750 1326 1763 q 1374 1721 1361 1738 q 1388 1690 1388 1704 q 1385 1672 1388 1679 q 1367 1654 1382 1665 l 1154 1483 q 1141 1474 1147 1478 q 1129 1469 1135 1469 z "},"Ū":{"ha":1331,"x_min":186,"x_max":1482,"o":"m 576 -26 q 378 6 461 -26 q 247 101 294 39 q 193 256 200 164 q 224 467 186 347 l 513 1372 q 535 1401 519 1392 q 585 1410 551 1410 q 632 1400 617 1410 q 640 1368 647 1390 l 343 450 q 321 247 303 326 q 408 129 339 167 q 588 92 476 92 q 802 133 710 92 q 958 253 894 174 q 1058 450 1022 333 l 1344 1372 q 1367 1401 1351 1392 q 1415 1410 1383 1410 q 1469 1368 1482 1410 l 1179 435 q 1047 181 1132 283 q 843 26 961 78 q 576 -26 725 -26 m 840 1556 q 808 1572 814 1556 q 808 1613 801 1588 q 828 1658 815 1643 q 865 1674 840 1674 l 1238 1674 q 1272 1656 1265 1674 q 1271 1613 1278 1639 q 1251 1569 1264 1583 q 1214 1556 1239 1556 l 840 1556 z "},"Ų":{"ha":1331,"x_min":186,"x_max":1482,"o":"m 576 -26 q 378 6 461 -26 q 247 101 294 39 q 193 256 200 164 q 224 467 186 347 l 513 1372 q 535 1401 519 1392 q 585 1410 551 1410 q 632 1400 617 1410 q 640 1368 647 1390 l 343 450 q 321 247 303 326 q 408 129 339 167 q 588 92 476 92 q 802 133 710 92 q 958 253 894 174 q 1058 450 1022 333 l 1344 1372 q 1367 1401 1351 1392 q 1415 1410 1383 1410 q 1469 1368 1482 1410 l 1179 435 q 1047 181 1132 283 q 843 26 961 78 q 576 -26 725 -26 m 582 -336 q 509 -312 535 -336 q 483 -249 483 -287 q 506 -170 483 -208 q 565 -97 528 -132 q 647 -26 601 -61 q 742 43 693 8 l 833 44 l 833 36 q 750 -29 790 3 q 678 -92 710 -61 q 627 -149 646 -122 q 608 -197 608 -175 q 617 -221 608 -212 q 643 -229 626 -229 q 693 -213 668 -229 q 747 -171 718 -197 q 772 -159 758 -161 q 800 -171 786 -157 q 815 -194 810 -181 q 810 -222 819 -207 q 751 -278 789 -251 q 668 -320 713 -304 q 582 -336 624 -336 z "},"Ů":{"ha":1331,"x_min":186,"x_max":1482,"o":"m 576 -26 q 378 6 461 -26 q 247 101 294 39 q 193 256 200 164 q 224 467 186 347 l 513 1372 q 535 1401 519 1392 q 585 1410 551 1410 q 632 1400 617 1410 q 640 1368 647 1390 l 343 450 q 321 247 303 326 q 408 129 339 167 q 588 92 476 92 q 802 133 710 92 q 958 253 894 174 q 1058 450 1022 333 l 1344 1372 q 1367 1401 1351 1392 q 1415 1410 1383 1410 q 1469 1368 1482 1410 l 1179 435 q 1047 181 1132 283 q 843 26 961 78 q 576 -26 725 -26 m 1019 1460 q 926 1478 964 1460 q 868 1529 888 1496 q 849 1608 849 1563 q 878 1704 849 1661 q 957 1772 907 1747 q 1068 1797 1007 1797 q 1164 1779 1125 1797 q 1223 1728 1203 1761 q 1243 1647 1243 1694 q 1213 1551 1243 1593 q 1133 1484 1183 1508 q 1019 1460 1083 1460 m 1026 1543 q 1108 1572 1075 1543 q 1142 1644 1142 1601 q 1122 1696 1142 1678 q 1063 1714 1103 1714 q 983 1684 1017 1714 q 950 1613 950 1654 q 970 1561 950 1579 q 1026 1543 990 1543 z "},"Ũ":{"ha":1331,"x_min":186,"x_max":1482,"o":"m 576 -26 q 378 6 461 -26 q 247 101 294 39 q 193 256 200 164 q 224 467 186 347 l 513 1372 q 535 1401 519 1392 q 585 1410 551 1410 q 632 1400 617 1410 q 640 1368 647 1390 l 343 450 q 321 247 303 326 q 408 129 339 167 q 588 92 476 92 q 802 133 710 92 q 958 253 894 174 q 1058 450 1022 333 l 1344 1372 q 1367 1401 1351 1392 q 1415 1410 1383 1410 q 1469 1368 1482 1410 l 1179 435 q 1047 181 1132 283 q 843 26 961 78 q 576 -26 725 -26 m 815 1511 q 774 1549 771 1511 q 822 1683 783 1642 q 929 1725 861 1725 q 1006 1710 974 1725 q 1063 1675 1039 1696 q 1110 1639 1088 1654 q 1160 1624 1133 1624 q 1192 1640 1178 1624 q 1211 1690 1206 1656 q 1269 1728 1218 1728 q 1301 1718 1292 1728 q 1308 1690 1310 1708 q 1261 1556 1299 1599 q 1156 1513 1224 1513 q 1079 1528 1113 1513 q 1019 1563 1046 1543 q 970 1597 993 1582 q 922 1613 947 1613 q 889 1594 903 1613 q 868 1542 875 1576 q 852 1519 865 1526 q 815 1511 839 1511 z "},"Ǘ":{"ha":1331,"x_min":186,"x_max":1482,"o":"m 576 -26 q 378 6 461 -26 q 247 101 294 39 q 193 256 200 164 q 224 467 186 347 l 513 1372 q 535 1401 519 1392 q 585 1410 551 1410 q 632 1400 617 1410 q 640 1368 647 1390 l 343 450 q 321 247 303 326 q 408 129 339 167 q 588 92 476 92 q 802 133 710 92 q 958 253 894 174 q 1058 450 1022 333 l 1344 1372 q 1367 1401 1351 1392 q 1415 1410 1383 1410 q 1469 1368 1482 1410 l 1179 435 q 1047 181 1132 283 q 843 26 961 78 q 576 -26 725 -26 m 847 1517 q 799 1535 818 1517 q 779 1589 779 1553 q 805 1659 779 1626 q 881 1692 831 1692 q 928 1674 908 1692 q 947 1621 947 1657 q 924 1550 947 1583 q 847 1517 900 1517 m 1189 1517 q 1141 1535 1161 1517 q 1121 1589 1121 1553 q 1147 1659 1121 1626 q 1222 1692 1172 1692 q 1270 1674 1250 1692 q 1290 1621 1290 1657 q 1266 1550 1290 1583 q 1189 1517 1242 1517 m 1010 1731 q 976 1749 994 1731 q 957 1782 957 1768 q 959 1793 957 1788 q 969 1807 961 1799 l 1189 2008 q 1202 2019 1196 2015 q 1217 2024 1208 2024 q 1248 2011 1231 2024 q 1278 1982 1265 1999 q 1290 1950 1290 1965 q 1288 1933 1290 1940 q 1269 1915 1285 1926 l 1036 1744 q 1022 1735 1028 1739 q 1010 1731 1015 1731 z "},"Ǚ":{"ha":1331,"x_min":186,"x_max":1482,"o":"m 576 -26 q 378 6 461 -26 q 247 101 294 39 q 193 256 200 164 q 224 467 186 347 l 513 1372 q 535 1401 519 1392 q 585 1410 551 1410 q 632 1400 617 1410 q 640 1368 647 1390 l 343 450 q 321 247 303 326 q 408 129 339 167 q 588 92 476 92 q 802 133 710 92 q 958 253 894 174 q 1058 450 1022 333 l 1344 1372 q 1367 1401 1351 1392 q 1415 1410 1383 1410 q 1469 1368 1482 1410 l 1179 435 q 1047 181 1132 283 q 843 26 961 78 q 576 -26 725 -26 m 847 1517 q 799 1535 818 1517 q 779 1589 779 1553 q 805 1659 779 1626 q 881 1692 831 1692 q 928 1674 908 1692 q 947 1621 947 1657 q 924 1550 947 1583 q 847 1517 900 1517 m 1189 1517 q 1141 1535 1161 1517 q 1121 1589 1121 1553 q 1147 1659 1121 1626 q 1222 1692 1172 1692 q 1270 1674 1250 1692 q 1290 1621 1290 1657 q 1266 1550 1290 1583 q 1189 1517 1242 1517 m 1344 2019 q 1374 2003 1361 2019 q 1388 1971 1388 1986 q 1383 1950 1388 1957 q 1372 1938 1379 1943 l 1146 1763 q 1107 1738 1125 1746 q 1067 1731 1089 1731 q 1034 1740 1049 1731 q 1007 1768 1019 1750 l 879 1949 q 871 1967 872 1960 q 869 1979 869 1974 q 890 2008 869 1996 q 924 2019 910 2019 q 944 2013 938 2019 q 961 1997 951 2007 l 1092 1872 l 1304 1999 q 1324 2012 1314 2004 q 1344 2019 1333 2019 z "},"Ǜ":{"ha":1331,"x_min":186,"x_max":1482,"o":"m 576 -26 q 378 6 461 -26 q 247 101 294 39 q 193 256 200 164 q 224 467 186 347 l 513 1372 q 535 1401 519 1392 q 585 1410 551 1410 q 632 1400 617 1410 q 640 1368 647 1390 l 343 450 q 321 247 303 326 q 408 129 339 167 q 588 92 476 92 q 802 133 710 92 q 958 253 894 174 q 1058 450 1022 333 l 1344 1372 q 1367 1401 1351 1392 q 1415 1410 1383 1410 q 1469 1368 1482 1410 l 1179 435 q 1047 181 1132 283 q 843 26 961 78 q 576 -26 725 -26 m 847 1517 q 799 1535 818 1517 q 779 1589 779 1553 q 805 1659 779 1626 q 881 1692 831 1692 q 928 1674 908 1692 q 947 1621 947 1657 q 924 1550 947 1583 q 847 1517 900 1517 m 1189 1517 q 1141 1535 1161 1517 q 1121 1589 1121 1553 q 1147 1659 1121 1626 q 1222 1692 1172 1692 q 1270 1674 1250 1692 q 1290 1621 1290 1657 q 1266 1550 1290 1583 q 1189 1517 1242 1517 m 1151 1731 q 1139 1735 1146 1731 q 1125 1744 1132 1739 l 926 1917 q 909 1935 913 1928 q 906 1951 906 1942 q 919 1983 906 1967 q 950 2012 932 2000 q 981 2024 968 2024 q 997 2019 990 2024 q 1010 2008 1003 2015 l 1193 1806 q 1203 1791 1201 1796 q 1204 1782 1204 1786 q 1185 1749 1204 1768 q 1151 1731 1167 1731 z "},"Ǖ":{"ha":1331,"x_min":186,"x_max":1482,"o":"m 576 -26 q 378 6 461 -26 q 247 101 294 39 q 193 256 200 164 q 224 467 186 347 l 513 1372 q 535 1401 519 1392 q 585 1410 551 1410 q 632 1400 617 1410 q 640 1368 647 1390 l 343 450 q 321 247 303 326 q 408 129 339 167 q 588 92 476 92 q 802 133 710 92 q 958 253 894 174 q 1058 450 1022 333 l 1344 1372 q 1367 1401 1351 1392 q 1415 1410 1383 1410 q 1469 1368 1482 1410 l 1179 435 q 1047 181 1132 283 q 843 26 961 78 q 576 -26 725 -26 m 847 1517 q 799 1535 818 1517 q 779 1589 779 1553 q 805 1659 779 1626 q 881 1692 831 1692 q 928 1674 908 1692 q 947 1621 947 1657 q 924 1550 947 1583 q 847 1517 900 1517 m 1189 1517 q 1141 1535 1161 1517 q 1121 1589 1121 1553 q 1147 1659 1121 1626 q 1222 1692 1172 1692 q 1270 1674 1250 1692 q 1290 1621 1290 1657 q 1266 1550 1290 1583 q 1189 1517 1242 1517 m 913 1817 q 880 1833 886 1817 q 881 1874 874 1849 q 900 1919 888 1904 q 938 1935 913 1935 l 1310 1935 q 1344 1917 1338 1935 q 1343 1874 1350 1900 q 1324 1831 1336 1844 q 1286 1817 1311 1817 l 913 1817 z "},"Ụ":{"ha":1331,"x_min":186,"x_max":1482,"o":"m 576 -26 q 378 6 461 -26 q 247 101 294 39 q 193 256 200 164 q 224 467 186 347 l 513 1372 q 535 1401 519 1392 q 585 1410 551 1410 q 632 1400 617 1410 q 640 1368 647 1390 l 343 450 q 321 247 303 326 q 408 129 339 167 q 588 92 476 92 q 802 133 710 92 q 958 253 894 174 q 1058 450 1022 333 l 1344 1372 q 1367 1401 1351 1392 q 1415 1410 1383 1410 q 1469 1368 1482 1410 l 1179 435 q 1047 181 1132 283 q 843 26 961 78 q 576 -26 725 -26 m 454 -322 q 407 -304 426 -322 q 388 -251 388 -286 q 412 -181 388 -214 q 488 -147 436 -147 q 536 -165 517 -147 q 556 -218 556 -183 q 531 -290 556 -257 q 454 -322 507 -322 z "},"Ủ":{"ha":1331,"x_min":186,"x_max":1482,"o":"m 576 -26 q 378 6 461 -26 q 247 101 294 39 q 193 256 200 164 q 224 467 186 347 l 513 1372 q 535 1401 519 1392 q 585 1410 551 1410 q 632 1400 617 1410 q 640 1368 647 1390 l 343 450 q 321 247 303 326 q 408 129 339 167 q 588 92 476 92 q 802 133 710 92 q 958 253 894 174 q 1058 450 1022 333 l 1344 1372 q 1367 1401 1351 1392 q 1415 1410 1383 1410 q 1469 1368 1482 1410 l 1179 435 q 1047 181 1132 283 q 843 26 961 78 q 576 -26 725 -26 m 1061 1800 q 1165 1771 1128 1800 q 1203 1689 1203 1742 q 1181 1616 1203 1647 q 1119 1564 1158 1585 q 1079 1536 1089 1549 q 1069 1510 1069 1524 l 1069 1494 q 1057 1468 1071 1478 q 1024 1457 1043 1458 q 990 1463 1006 1456 q 971 1486 974 1469 l 964 1521 q 972 1578 957 1554 q 1021 1621 986 1603 q 1056 1648 1044 1633 q 1068 1675 1068 1663 q 1059 1692 1068 1686 q 1033 1699 1050 1699 q 994 1692 1015 1699 q 950 1674 972 1686 q 897 1706 918 1657 q 918 1761 885 1738 q 985 1790 950 1781 q 1061 1800 1021 1800 z "},"Ư":{"ha":1331,"x_min":186,"x_max":1740,"o":"m 1722 1653 q 1735 1529 1740 1588 q 1693 1425 1729 1471 q 1585 1352 1657 1379 q 1401 1324 1514 1325 l 1428 1406 q 1566 1435 1522 1410 q 1617 1508 1610 1460 q 1611 1628 1625 1557 q 1621 1660 1607 1647 q 1657 1678 1635 1672 q 1699 1677 1679 1683 q 1722 1653 1718 1671 m 576 -26 q 378 6 461 -26 q 247 101 294 39 q 193 256 200 164 q 224 467 186 347 l 513 1372 q 535 1401 519 1392 q 585 1410 551 1410 q 632 1400 617 1410 q 640 1368 647 1390 l 343 450 q 321 247 303 326 q 408 129 339 167 q 588 92 476 92 q 802 133 710 92 q 958 253 894 174 q 1058 450 1022 333 l 1344 1372 q 1367 1401 1351 1392 q 1415 1410 1383 1410 q 1469 1368 1482 1410 l 1179 435 q 1047 181 1132 283 q 843 26 961 78 q 576 -26 725 -26 z "},"Ứ":{"ha":1331,"x_min":186,"x_max":1740,"o":"m 1722 1653 q 1735 1529 1740 1588 q 1693 1425 1729 1471 q 1585 1352 1657 1379 q 1401 1324 1514 1325 l 1428 1406 q 1566 1435 1522 1410 q 1617 1508 1610 1460 q 1611 1628 1625 1557 q 1621 1660 1607 1647 q 1657 1678 1635 1672 q 1699 1677 1679 1683 q 1722 1653 1718 1671 m 576 -26 q 378 6 461 -26 q 247 101 294 39 q 193 256 200 164 q 224 467 186 347 l 513 1372 q 535 1401 519 1392 q 585 1410 551 1410 q 632 1400 617 1410 q 640 1368 647 1390 l 343 450 q 321 247 303 326 q 408 129 339 167 q 588 92 476 92 q 802 133 710 92 q 958 253 894 174 q 1058 450 1022 333 l 1344 1372 q 1367 1401 1351 1392 q 1415 1410 1383 1410 q 1469 1368 1482 1410 l 1179 435 q 1047 181 1132 283 q 843 26 961 78 q 576 -26 725 -26 m 938 1469 q 903 1488 922 1469 q 885 1521 885 1507 q 887 1532 885 1526 q 897 1546 889 1538 l 1117 1747 q 1130 1758 1124 1754 q 1144 1763 1136 1763 q 1176 1750 1158 1763 q 1206 1721 1193 1738 q 1218 1689 1218 1704 q 1215 1672 1218 1679 q 1197 1654 1213 1665 l 964 1483 q 949 1474 956 1478 q 938 1469 943 1469 z "},"Ự":{"ha":1331,"x_min":186,"x_max":1740,"o":"m 1722 1653 q 1735 1529 1740 1588 q 1693 1425 1729 1471 q 1585 1352 1657 1379 q 1401 1324 1514 1325 l 1428 1406 q 1566 1435 1522 1410 q 1617 1508 1610 1460 q 1611 1628 1625 1557 q 1621 1660 1607 1647 q 1657 1678 1635 1672 q 1699 1677 1679 1683 q 1722 1653 1718 1671 m 576 -26 q 378 6 461 -26 q 247 101 294 39 q 193 256 200 164 q 224 467 186 347 l 513 1372 q 535 1401 519 1392 q 585 1410 551 1410 q 632 1400 617 1410 q 640 1368 647 1390 l 343 450 q 321 247 303 326 q 408 129 339 167 q 588 92 476 92 q 802 133 710 92 q 958 253 894 174 q 1058 450 1022 333 l 1344 1372 q 1367 1401 1351 1392 q 1415 1410 1383 1410 q 1469 1368 1482 1410 l 1179 435 q 1047 181 1132 283 q 843 26 961 78 q 576 -26 725 -26 m 454 -322 q 407 -304 426 -322 q 388 -251 388 -286 q 412 -181 388 -214 q 488 -147 436 -147 q 536 -165 517 -147 q 556 -218 556 -183 q 531 -290 556 -257 q 454 -322 507 -322 z "},"Ừ":{"ha":1331,"x_min":186,"x_max":1740,"o":"m 1722 1653 q 1735 1529 1740 1588 q 1693 1425 1729 1471 q 1585 1352 1657 1379 q 1401 1324 1514 1325 l 1428 1406 q 1566 1435 1522 1410 q 1617 1508 1610 1460 q 1611 1628 1625 1557 q 1621 1660 1607 1647 q 1657 1678 1635 1672 q 1699 1677 1679 1683 q 1722 1653 1718 1671 m 576 -26 q 378 6 461 -26 q 247 101 294 39 q 193 256 200 164 q 224 467 186 347 l 513 1372 q 535 1401 519 1392 q 585 1410 551 1410 q 632 1400 617 1410 q 640 1368 647 1390 l 343 450 q 321 247 303 326 q 408 129 339 167 q 588 92 476 92 q 802 133 710 92 q 958 253 894 174 q 1058 450 1022 333 l 1344 1372 q 1367 1401 1351 1392 q 1415 1410 1383 1410 q 1469 1368 1482 1410 l 1179 435 q 1047 181 1132 283 q 843 26 961 78 q 576 -26 725 -26 m 1079 1469 q 1067 1474 1074 1469 q 1053 1483 1060 1478 l 854 1656 q 837 1674 840 1667 q 833 1690 833 1681 q 847 1722 833 1706 q 878 1751 860 1739 q 908 1763 896 1763 q 924 1758 918 1763 q 938 1747 931 1754 l 1121 1544 q 1131 1530 1129 1535 q 1132 1521 1132 1525 q 1113 1488 1132 1507 q 1079 1469 1094 1469 z "},"Ử":{"ha":1331,"x_min":186,"x_max":1740,"o":"m 1722 1653 q 1735 1529 1740 1588 q 1693 1425 1729 1471 q 1585 1352 1657 1379 q 1401 1324 1514 1325 l 1428 1406 q 1566 1435 1522 1410 q 1617 1508 1610 1460 q 1611 1628 1625 1557 q 1621 1660 1607 1647 q 1657 1678 1635 1672 q 1699 1677 1679 1683 q 1722 1653 1718 1671 m 576 -26 q 378 6 461 -26 q 247 101 294 39 q 193 256 200 164 q 224 467 186 347 l 513 1372 q 535 1401 519 1392 q 585 1410 551 1410 q 632 1400 617 1410 q 640 1368 647 1390 l 343 450 q 321 247 303 326 q 408 129 339 167 q 588 92 476 92 q 802 133 710 92 q 958 253 894 174 q 1058 450 1022 333 l 1344 1372 q 1367 1401 1351 1392 q 1415 1410 1383 1410 q 1469 1368 1482 1410 l 1179 435 q 1047 181 1132 283 q 843 26 961 78 q 576 -26 725 -26 m 1061 1800 q 1165 1771 1128 1800 q 1203 1689 1203 1742 q 1181 1616 1203 1647 q 1119 1564 1158 1585 q 1079 1536 1089 1549 q 1069 1510 1069 1524 l 1069 1494 q 1057 1468 1071 1478 q 1024 1457 1043 1458 q 990 1463 1006 1456 q 971 1486 974 1469 l 964 1521 q 972 1578 957 1554 q 1021 1621 986 1603 q 1056 1648 1044 1633 q 1068 1675 1068 1663 q 1059 1692 1068 1686 q 1033 1699 1050 1699 q 994 1692 1015 1699 q 950 1674 972 1686 q 897 1706 918 1657 q 918 1761 885 1738 q 985 1790 950 1781 q 1061 1800 1021 1800 z "},"Ữ":{"ha":1331,"x_min":186,"x_max":1740,"o":"m 1722 1653 q 1735 1529 1740 1588 q 1693 1425 1729 1471 q 1585 1352 1657 1379 q 1401 1324 1514 1325 l 1428 1406 q 1566 1435 1522 1410 q 1617 1508 1610 1460 q 1611 1628 1625 1557 q 1621 1660 1607 1647 q 1657 1678 1635 1672 q 1699 1677 1679 1683 q 1722 1653 1718 1671 m 576 -26 q 378 6 461 -26 q 247 101 294 39 q 193 256 200 164 q 224 467 186 347 l 513 1372 q 535 1401 519 1392 q 585 1410 551 1410 q 632 1400 617 1410 q 640 1368 647 1390 l 343 450 q 321 247 303 326 q 408 129 339 167 q 588 92 476 92 q 802 133 710 92 q 958 253 894 174 q 1058 450 1022 333 l 1344 1372 q 1367 1401 1351 1392 q 1415 1410 1383 1410 q 1469 1368 1482 1410 l 1179 435 q 1047 181 1132 283 q 843 26 961 78 q 576 -26 725 -26 m 815 1511 q 774 1549 771 1511 q 822 1683 783 1642 q 929 1725 861 1725 q 1006 1710 974 1725 q 1063 1675 1039 1696 q 1110 1639 1088 1654 q 1160 1624 1133 1624 q 1192 1640 1178 1624 q 1211 1690 1206 1656 q 1269 1728 1218 1728 q 1301 1718 1292 1728 q 1308 1690 1310 1708 q 1261 1556 1299 1599 q 1156 1513 1224 1513 q 1079 1528 1113 1513 q 1019 1563 1046 1543 q 970 1597 993 1582 q 922 1613 947 1613 q 889 1594 903 1613 q 868 1542 875 1576 q 852 1519 865 1526 q 815 1511 839 1511 z "},"Ẃ":{"ha":1838,"x_min":354,"x_max":2150,"o":"m 435 -19 q 392 -6 408 -19 q 375 53 376 8 l 356 1347 q 371 1393 354 1376 q 422 1410 388 1410 q 464 1399 454 1410 q 474 1360 474 1388 l 488 189 l 1163 1354 q 1201 1401 1185 1392 q 1254 1410 1218 1410 q 1297 1399 1286 1410 q 1307 1360 1307 1388 l 1319 186 l 2003 1354 q 2042 1400 2025 1390 q 2093 1410 2058 1410 q 2140 1388 2129 1410 q 2131 1338 2150 1367 l 1363 36 q 1322 -7 1343 6 q 1267 -19 1301 -19 q 1224 -5 1240 -19 q 1207 53 1208 10 l 1192 1172 l 529 36 q 490 -7 511 6 q 435 -19 468 -19 m 1206 1469 q 1172 1488 1190 1469 q 1153 1521 1153 1507 q 1155 1532 1153 1526 q 1165 1546 1157 1538 l 1385 1747 q 1398 1758 1392 1754 q 1413 1763 1404 1763 q 1444 1750 1426 1763 q 1474 1721 1461 1738 q 1486 1689 1486 1704 q 1483 1672 1486 1679 q 1465 1654 1481 1665 l 1232 1483 q 1217 1474 1224 1478 q 1206 1469 1211 1469 z "},"Ŵ":{"ha":1838,"x_min":354,"x_max":2150,"o":"m 435 -19 q 392 -6 408 -19 q 375 53 376 8 l 356 1347 q 371 1393 354 1376 q 422 1410 388 1410 q 464 1399 454 1410 q 474 1360 474 1388 l 488 189 l 1163 1354 q 1201 1401 1185 1392 q 1254 1410 1218 1410 q 1297 1399 1286 1410 q 1307 1360 1307 1388 l 1319 186 l 2003 1354 q 2042 1400 2025 1390 q 2093 1410 2058 1410 q 2140 1388 2129 1410 q 2131 1338 2150 1367 l 1363 36 q 1322 -7 1343 6 q 1267 -19 1301 -19 q 1224 -5 1240 -19 q 1207 53 1208 10 l 1192 1172 l 529 36 q 490 -7 511 6 q 435 -19 468 -19 m 1069 1469 q 1042 1486 1053 1469 q 1031 1518 1031 1503 q 1035 1539 1031 1532 q 1046 1551 1040 1546 l 1271 1726 q 1310 1751 1292 1744 q 1351 1758 1329 1758 q 1384 1749 1369 1758 q 1410 1722 1399 1740 l 1539 1542 q 1547 1524 1546 1532 q 1547 1510 1547 1517 q 1529 1481 1547 1493 q 1499 1469 1511 1469 q 1475 1476 1485 1469 q 1454 1493 1465 1483 l 1325 1618 l 1113 1485 q 1092 1474 1103 1479 q 1069 1469 1082 1469 z "},"Ẅ":{"ha":1838,"x_min":354,"x_max":2150,"o":"m 435 -19 q 392 -6 408 -19 q 375 53 376 8 l 356 1347 q 371 1393 354 1376 q 422 1410 388 1410 q 464 1399 454 1410 q 474 1360 474 1388 l 488 189 l 1163 1354 q 1201 1401 1185 1392 q 1254 1410 1218 1410 q 1297 1399 1286 1410 q 1307 1360 1307 1388 l 1319 186 l 2003 1354 q 2042 1400 2025 1390 q 2093 1410 2058 1410 q 2140 1388 2129 1410 q 2131 1338 2150 1367 l 1363 36 q 1322 -7 1343 6 q 1267 -19 1301 -19 q 1224 -5 1240 -19 q 1207 53 1208 10 l 1192 1172 l 529 36 q 490 -7 511 6 q 435 -19 468 -19 m 1117 1517 q 1068 1535 1088 1517 q 1049 1589 1049 1553 q 1074 1659 1049 1626 q 1150 1692 1100 1692 q 1197 1674 1178 1692 q 1217 1621 1217 1657 q 1193 1550 1217 1583 q 1117 1517 1169 1517 m 1458 1517 q 1410 1535 1431 1517 q 1390 1589 1390 1553 q 1416 1659 1390 1626 q 1492 1692 1442 1692 q 1540 1674 1519 1692 q 1560 1621 1560 1657 q 1535 1550 1560 1583 q 1458 1517 1511 1517 z "},"Ẁ":{"ha":1838,"x_min":354,"x_max":2150,"o":"m 435 -19 q 392 -6 408 -19 q 375 53 376 8 l 356 1347 q 371 1393 354 1376 q 422 1410 388 1410 q 464 1399 454 1410 q 474 1360 474 1388 l 488 189 l 1163 1354 q 1201 1401 1185 1392 q 1254 1410 1218 1410 q 1297 1399 1286 1410 q 1307 1360 1307 1388 l 1319 186 l 2003 1354 q 2042 1400 2025 1390 q 2093 1410 2058 1410 q 2140 1388 2129 1410 q 2131 1338 2150 1367 l 1363 36 q 1322 -7 1343 6 q 1267 -19 1301 -19 q 1224 -5 1240 -19 q 1207 53 1208 10 l 1192 1172 l 529 36 q 490 -7 511 6 q 435 -19 468 -19 m 1347 1469 q 1335 1474 1342 1469 q 1321 1483 1328 1478 l 1122 1656 q 1105 1674 1108 1667 q 1101 1690 1101 1681 q 1115 1722 1101 1706 q 1146 1751 1128 1739 q 1176 1763 1164 1763 q 1192 1758 1186 1763 q 1206 1747 1199 1754 l 1389 1544 q 1399 1530 1397 1535 q 1400 1521 1400 1525 q 1381 1488 1400 1507 q 1347 1469 1363 1469 z "},"Ý":{"ha":958,"x_min":286,"x_max":1299,"o":"m 347 -19 q 299 19 286 -19 l 490 610 l 335 1347 q 344 1392 329 1375 q 394 1410 358 1410 q 438 1397 426 1410 q 454 1360 449 1385 l 582 739 l 1147 1364 q 1185 1399 1167 1388 q 1236 1410 1203 1410 q 1285 1388 1272 1410 q 1274 1338 1299 1367 l 614 606 l 424 19 q 347 -19 411 -19 m 744 1469 q 710 1488 729 1469 q 692 1521 692 1507 q 694 1532 692 1526 q 704 1546 696 1538 l 924 1747 q 937 1758 931 1754 q 951 1763 943 1763 q 983 1750 965 1763 q 1013 1721 1000 1738 q 1025 1689 1025 1704 q 1022 1672 1025 1679 q 1004 1654 1019 1665 l 771 1483 q 756 1474 763 1478 q 744 1469 750 1469 z "},"Ŷ":{"ha":958,"x_min":286,"x_max":1299,"o":"m 347 -19 q 299 19 286 -19 l 490 610 l 335 1347 q 344 1392 329 1375 q 394 1410 358 1410 q 438 1397 426 1410 q 454 1360 449 1385 l 582 739 l 1147 1364 q 1185 1399 1167 1388 q 1236 1410 1203 1410 q 1285 1388 1272 1410 q 1274 1338 1299 1367 l 614 606 l 424 19 q 347 -19 411 -19 m 608 1469 q 581 1486 592 1469 q 569 1518 569 1503 q 574 1539 569 1532 q 585 1551 579 1546 l 810 1726 q 849 1751 831 1744 q 890 1758 868 1758 q 923 1749 908 1758 q 949 1722 938 1740 l 1078 1542 q 1085 1524 1085 1532 q 1086 1510 1086 1517 q 1068 1481 1086 1493 q 1038 1469 1050 1469 q 1014 1476 1024 1469 q 993 1493 1004 1483 l 864 1618 l 651 1485 q 631 1474 642 1479 q 608 1469 621 1469 z "},"Ÿ":{"ha":958,"x_min":286,"x_max":1299,"o":"m 347 -19 q 299 19 286 -19 l 490 610 l 335 1347 q 344 1392 329 1375 q 394 1410 358 1410 q 438 1397 426 1410 q 454 1360 449 1385 l 582 739 l 1147 1364 q 1185 1399 1167 1388 q 1236 1410 1203 1410 q 1285 1388 1272 1410 q 1274 1338 1299 1367 l 614 606 l 424 19 q 347 -19 411 -19 m 656 1517 q 607 1535 626 1517 q 588 1589 588 1553 q 613 1659 588 1626 q 689 1692 639 1692 q 736 1674 717 1692 q 756 1621 756 1657 q 732 1550 756 1583 q 656 1517 708 1517 m 997 1517 q 949 1535 969 1517 q 929 1589 929 1553 q 955 1659 929 1626 q 1031 1692 981 1692 q 1078 1674 1058 1692 q 1099 1621 1099 1657 q 1074 1550 1099 1583 q 997 1517 1050 1517 z "},"Ỳ":{"ha":958,"x_min":286,"x_max":1299,"o":"m 347 -19 q 299 19 286 -19 l 490 610 l 335 1347 q 344 1392 329 1375 q 394 1410 358 1410 q 438 1397 426 1410 q 454 1360 449 1385 l 582 739 l 1147 1364 q 1185 1399 1167 1388 q 1236 1410 1203 1410 q 1285 1388 1272 1410 q 1274 1338 1299 1367 l 614 606 l 424 19 q 347 -19 411 -19 m 886 1469 q 874 1474 881 1469 q 860 1483 867 1478 l 661 1656 q 644 1674 647 1667 q 640 1690 640 1681 q 653 1722 640 1706 q 685 1751 667 1739 q 715 1763 703 1763 q 731 1758 725 1763 q 744 1747 738 1754 l 928 1544 q 938 1530 936 1535 q 939 1521 939 1525 q 920 1488 939 1507 q 886 1469 901 1469 z "},"Ỵ":{"ha":958,"x_min":222,"x_max":1299,"o":"m 347 -19 q 299 19 286 -19 l 490 610 l 335 1347 q 344 1392 329 1375 q 394 1410 358 1410 q 438 1397 426 1410 q 454 1360 449 1385 l 582 739 l 1147 1364 q 1185 1399 1167 1388 q 1236 1410 1203 1410 q 1285 1388 1272 1410 q 1274 1338 1299 1367 l 614 606 l 424 19 q 347 -19 411 -19 m 289 -322 q 242 -304 261 -322 q 222 -251 222 -286 q 247 -181 222 -214 q 322 -147 271 -147 q 371 -165 351 -147 q 390 -218 390 -183 q 366 -290 390 -257 q 289 -322 342 -322 z "},"Ỷ":{"ha":958,"x_min":286,"x_max":1299,"o":"m 347 -19 q 299 19 286 -19 l 490 610 l 335 1347 q 344 1392 329 1375 q 394 1410 358 1410 q 438 1397 426 1410 q 454 1360 449 1385 l 582 739 l 1147 1364 q 1185 1399 1167 1388 q 1236 1410 1203 1410 q 1285 1388 1272 1410 q 1274 1338 1299 1367 l 614 606 l 424 19 q 347 -19 411 -19 m 868 1800 q 972 1771 935 1800 q 1010 1689 1010 1742 q 988 1616 1010 1647 q 926 1564 965 1585 q 886 1536 896 1549 q 876 1510 876 1524 l 876 1494 q 864 1468 878 1478 q 831 1457 850 1458 q 797 1463 813 1456 q 778 1486 781 1469 l 771 1521 q 778 1578 764 1554 q 828 1621 793 1603 q 863 1648 851 1633 q 875 1675 875 1663 q 866 1692 875 1686 q 840 1699 857 1699 q 801 1692 822 1699 q 757 1674 779 1686 q 704 1706 725 1657 q 725 1761 692 1738 q 792 1790 757 1781 q 868 1800 828 1800 z "},"Ỹ":{"ha":958,"x_min":286,"x_max":1299,"o":"m 347 -19 q 299 19 286 -19 l 490 610 l 335 1347 q 344 1392 329 1375 q 394 1410 358 1410 q 438 1397 426 1410 q 454 1360 449 1385 l 582 739 l 1147 1364 q 1185 1399 1167 1388 q 1236 1410 1203 1410 q 1285 1388 1272 1410 q 1274 1338 1299 1367 l 614 606 l 424 19 q 347 -19 411 -19 m 622 1511 q 581 1549 578 1511 q 629 1683 590 1642 q 736 1725 668 1725 q 813 1710 781 1725 q 870 1675 846 1696 q 917 1639 894 1654 q 967 1624 940 1624 q 999 1640 985 1624 q 1018 1690 1013 1656 q 1076 1728 1025 1728 q 1108 1718 1099 1728 q 1115 1690 1117 1708 q 1068 1556 1106 1599 q 963 1513 1031 1513 q 886 1528 919 1513 q 826 1563 853 1543 q 777 1597 800 1582 q 729 1613 754 1613 q 696 1594 710 1613 q 675 1542 682 1576 q 659 1519 672 1526 q 622 1511 646 1511 z "},"Ź":{"ha":944,"x_min":-81,"x_max":1229,"o":"m -47 0 q -72 13 -64 0 q -78 46 -81 26 q -62 81 -76 65 l 1017 1275 l 400 1275 q 378 1288 385 1275 q 381 1331 372 1301 q 401 1372 388 1358 q 431 1386 415 1386 l 1192 1386 q 1222 1358 1215 1386 q 1207 1306 1229 1331 l 126 111 l 811 111 q 832 98 826 111 q 829 56 838 85 q 808 15 822 29 q 779 0 794 0 l -47 0 m 721 1469 q 687 1488 706 1469 q 668 1521 668 1507 q 670 1532 668 1526 q 681 1546 672 1538 l 900 1747 q 913 1758 907 1754 q 928 1763 919 1763 q 959 1750 942 1763 q 989 1721 976 1738 q 1001 1689 1001 1704 q 999 1672 1001 1679 q 981 1654 996 1665 l 747 1483 q 733 1474 739 1478 q 721 1469 726 1469 z "},"Ž":{"ha":944,"x_min":-81,"x_max":1229,"o":"m -47 0 q -72 13 -64 0 q -78 46 -81 26 q -62 81 -76 65 l 1017 1275 l 400 1275 q 378 1288 385 1275 q 381 1331 372 1301 q 401 1372 388 1358 q 431 1386 415 1386 l 1192 1386 q 1222 1358 1215 1386 q 1207 1306 1229 1331 l 126 111 l 811 111 q 832 98 826 111 q 829 56 838 85 q 808 15 822 29 q 779 0 794 0 l -47 0 m 1056 1758 q 1085 1742 1072 1758 q 1099 1710 1099 1725 q 1094 1689 1099 1696 q 1083 1676 1090 1682 l 857 1501 q 818 1477 836 1485 q 778 1469 800 1469 q 745 1479 760 1469 q 718 1507 731 1489 l 590 1688 q 582 1706 583 1699 q 581 1718 581 1713 q 601 1747 581 1735 q 635 1758 621 1758 q 656 1752 649 1758 q 672 1736 663 1746 l 803 1611 l 1015 1738 q 1035 1751 1025 1743 q 1056 1758 1044 1758 z "},"Ż":{"ha":944,"x_min":-81,"x_max":1229,"o":"m -47 0 q -72 13 -64 0 q -78 46 -81 26 q -62 81 -76 65 l 1017 1275 l 400 1275 q 378 1288 385 1275 q 381 1331 372 1301 q 401 1372 388 1358 q 431 1386 415 1386 l 1192 1386 q 1222 1358 1215 1386 q 1207 1306 1229 1331 l 126 111 l 811 111 q 832 98 826 111 q 829 56 838 85 q 808 15 822 29 q 779 0 794 0 l -47 0 m 804 1517 q 756 1535 775 1517 q 736 1589 736 1553 q 761 1659 736 1626 q 838 1692 786 1692 q 885 1674 865 1692 q 904 1621 904 1657 q 881 1550 904 1583 q 804 1517 857 1517 z "},"á":{"ha":865,"x_min":58,"x_max":835,"o":"m 250 -24 q 147 3 190 -24 q 81 82 104 31 q 58 203 58 133 q 76 335 58 264 q 128 474 93 406 q 217 598 164 542 q 343 688 271 654 q 507 721 415 721 q 597 707 553 721 q 681 669 642 693 l 682 675 q 705 708 692 700 q 743 715 718 715 q 799 702 788 715 q 801 661 810 689 l 636 160 q 628 124 631 142 q 632 94 625 106 q 660 82 639 82 q 694 92 678 82 q 726 117 711 101 q 751 149 740 133 q 774 165 760 161 q 810 156 789 169 q 833 127 832 142 q 826 97 835 113 q 788 45 814 74 q 726 -3 763 17 q 644 -22 690 -22 q 575 -10 601 -22 q 535 24 549 3 q 518 71 522 44 q 517 125 514 97 q 517 133 517 129 q 518 139 517 136 q 421 42 469 78 q 328 -9 372 6 q 250 -24 285 -24 m 183 218 q 195 147 183 175 q 231 103 207 118 q 289 88 256 88 q 385 119 336 88 q 482 210 433 150 q 576 351 531 269 l 650 576 q 578 604 613 597 q 508 611 543 611 q 385 585 439 611 q 292 514 331 558 q 230 417 254 469 q 194 312 206 364 q 183 218 183 260 m 531 856 q 501 869 518 856 q 483 897 483 882 q 487 915 483 907 q 497 932 490 924 l 668 1144 q 690 1167 681 1161 q 711 1172 700 1172 q 742 1163 725 1172 q 772 1138 760 1153 q 785 1106 785 1122 q 780 1088 785 1094 q 767 1074 775 1081 l 571 876 q 531 856 550 856 z "},"ă":{"ha":865,"x_min":58,"x_max":888,"o":"m 250 -24 q 147 3 190 -24 q 81 82 104 31 q 58 203 58 133 q 76 335 58 264 q 128 474 93 406 q 217 598 164 542 q 343 688 271 654 q 507 721 415 721 q 597 707 553 721 q 681 669 642 693 l 682 675 q 705 708 692 700 q 743 715 718 715 q 799 702 788 715 q 801 661 810 689 l 636 160 q 628 124 631 142 q 632 94 625 106 q 660 82 639 82 q 694 92 678 82 q 726 117 711 101 q 751 149 740 133 q 774 165 760 161 q 810 156 789 169 q 833 127 832 142 q 826 97 835 113 q 788 45 814 74 q 726 -3 763 17 q 644 -22 690 -22 q 575 -10 601 -22 q 535 24 549 3 q 518 71 522 44 q 517 125 514 97 q 517 133 517 129 q 518 139 517 136 q 421 42 469 78 q 328 -9 372 6 q 250 -24 285 -24 m 183 218 q 195 147 183 175 q 231 103 207 118 q 289 88 256 88 q 385 119 336 88 q 482 210 433 150 q 576 351 531 269 l 650 576 q 578 604 613 597 q 508 611 543 611 q 385 585 439 611 q 292 514 331 558 q 230 417 254 469 q 194 312 206 364 q 183 218 183 260 m 575 858 q 422 931 469 858 q 397 1139 374 1004 q 413 1169 401 1160 q 447 1178 425 1178 q 481 1167 468 1178 q 492 1139 494 1156 q 515 1021 486 1063 q 596 979 544 979 q 706 1026 657 979 q 781 1133 754 1074 q 803 1167 792 1158 q 836 1175 815 1175 q 874 1163 861 1175 q 879 1129 886 1150 q 806 970 847 1029 q 708 885 764 911 q 575 858 651 858 z "},"ǎ":{"ha":865,"x_min":58,"x_max":882,"o":"m 250 -24 q 147 3 190 -24 q 81 82 104 31 q 58 203 58 133 q 76 335 58 264 q 128 474 93 406 q 217 598 164 542 q 343 688 271 654 q 507 721 415 721 q 597 707 553 721 q 681 669 642 693 l 682 675 q 705 708 692 700 q 743 715 718 715 q 799 702 788 715 q 801 661 810 689 l 636 160 q 628 124 631 142 q 632 94 625 106 q 660 82 639 82 q 694 92 678 82 q 726 117 711 101 q 751 149 740 133 q 774 165 760 161 q 810 156 789 169 q 833 127 832 142 q 826 97 835 113 q 788 45 814 74 q 726 -3 763 17 q 644 -22 690 -22 q 575 -10 601 -22 q 535 24 549 3 q 518 71 522 44 q 517 125 514 97 q 517 133 517 129 q 518 139 517 136 q 421 42 469 78 q 328 -9 372 6 q 250 -24 285 -24 m 183 218 q 195 147 183 175 q 231 103 207 118 q 289 88 256 88 q 385 119 336 88 q 482 210 433 150 q 576 351 531 269 l 650 576 q 578 604 613 597 q 508 611 543 611 q 385 585 439 611 q 292 514 331 558 q 230 417 254 469 q 194 312 206 364 q 183 218 183 260 m 839 1178 q 869 1163 856 1178 q 882 1131 882 1147 q 877 1109 882 1117 q 867 1096 872 1101 l 646 889 q 608 865 626 871 q 565 858 589 858 q 532 867 547 858 q 507 894 517 876 l 394 1106 q 387 1124 389 1117 q 385 1138 385 1132 q 406 1166 385 1154 q 439 1178 426 1178 q 462 1171 454 1178 q 475 1154 469 1164 l 596 999 l 799 1157 q 817 1171 808 1164 q 839 1178 826 1178 z "},"â":{"ha":865,"x_min":58,"x_max":835,"o":"m 250 -24 q 147 3 190 -24 q 81 82 104 31 q 58 203 58 133 q 76 335 58 264 q 128 474 93 406 q 217 598 164 542 q 343 688 271 654 q 507 721 415 721 q 597 707 553 721 q 681 669 642 693 l 682 675 q 705 708 692 700 q 743 715 718 715 q 799 702 788 715 q 801 661 810 689 l 636 160 q 628 124 631 142 q 632 94 625 106 q 660 82 639 82 q 694 92 678 82 q 726 117 711 101 q 751 149 740 133 q 774 165 760 161 q 810 156 789 169 q 833 127 832 142 q 826 97 835 113 q 788 45 814 74 q 726 -3 763 17 q 644 -22 690 -22 q 575 -10 601 -22 q 535 24 549 3 q 518 71 522 44 q 517 125 514 97 q 517 133 517 129 q 518 139 517 136 q 421 42 469 78 q 328 -9 372 6 q 250 -24 285 -24 m 183 218 q 195 147 183 175 q 231 103 207 118 q 289 88 256 88 q 385 119 336 88 q 482 210 433 150 q 576 351 531 269 l 650 576 q 578 604 613 597 q 508 611 543 611 q 385 585 439 611 q 292 514 331 558 q 230 417 254 469 q 194 312 206 364 q 183 218 183 260 m 381 847 q 349 863 363 847 q 336 894 336 878 q 342 915 336 907 q 353 929 347 924 l 572 1136 q 611 1160 592 1154 q 653 1167 631 1167 q 687 1158 671 1167 q 711 1131 703 1149 l 825 918 q 832 901 831 908 q 833 888 833 894 q 813 859 833 871 q 779 847 793 847 q 758 854 765 847 q 743 869 750 861 l 624 1026 l 419 868 q 401 855 411 863 q 381 847 392 847 z "},"ä":{"ha":865,"x_min":58,"x_max":864,"o":"m 250 -24 q 147 3 190 -24 q 81 82 104 31 q 58 203 58 133 q 76 335 58 264 q 128 474 93 406 q 217 598 164 542 q 343 688 271 654 q 507 721 415 721 q 597 707 553 721 q 681 669 642 693 l 682 675 q 705 708 692 700 q 743 715 718 715 q 799 702 788 715 q 801 661 810 689 l 636 160 q 628 124 631 142 q 632 94 625 106 q 660 82 639 82 q 694 92 678 82 q 726 117 711 101 q 751 149 740 133 q 774 165 760 161 q 810 156 789 169 q 833 127 832 142 q 826 97 835 113 q 788 45 814 74 q 726 -3 763 17 q 644 -22 690 -22 q 575 -10 601 -22 q 535 24 549 3 q 518 71 522 44 q 517 125 514 97 q 517 133 517 129 q 518 139 517 136 q 421 42 469 78 q 328 -9 372 6 q 250 -24 285 -24 m 183 218 q 195 147 183 175 q 231 103 207 118 q 289 88 256 88 q 385 119 336 88 q 482 210 433 150 q 576 351 531 269 l 650 576 q 578 604 613 597 q 508 611 543 611 q 385 585 439 611 q 292 514 331 558 q 230 417 254 469 q 194 312 206 364 q 183 218 183 260 m 432 929 q 385 947 404 929 q 365 1000 365 965 q 390 1071 365 1038 q 465 1104 414 1104 q 514 1087 494 1104 q 533 1033 533 1069 q 509 963 533 996 q 432 929 485 929 m 764 929 q 715 947 735 929 q 696 1000 696 965 q 720 1071 696 1038 q 796 1104 744 1104 q 844 1087 825 1104 q 864 1033 864 1069 q 840 963 864 996 q 764 929 817 929 z "},"ǽ":{"ha":1240,"x_min":54,"x_max":1225,"o":"m 54 196 q 74 332 54 260 q 132 473 93 404 q 229 598 171 542 q 365 688 288 654 q 538 721 442 721 q 645 711 594 721 q 749 681 696 701 q 865 626 801 661 q 751 453 797 551 q 706 247 706 354 q 724 160 706 197 q 774 104 742 124 q 849 85 807 85 q 922 99 890 85 q 983 135 954 113 q 1042 186 1013 158 q 1079 200 1061 203 q 1113 182 1097 197 q 1134 147 1131 165 q 1118 110 1138 128 q 1026 31 1072 61 q 932 -12 979 1 q 835 -26 885 -26 q 697 9 754 -26 q 610 105 639 44 q 581 243 581 165 q 605 390 581 315 q 665 531 629 465 q 735 646 701 597 l 751 557 q 660 596 713 581 q 529 611 607 611 q 379 571 444 611 q 270 467 314 531 q 204 331 226 403 q 182 197 182 260 q 192 136 182 161 q 222 99 203 111 q 269 88 242 88 q 352 115 308 88 q 444 195 396 142 q 547 331 493 249 q 661 525 601 414 l 751 508 q 610 251 675 354 q 485 88 546 149 q 367 2 425 28 q 247 -24 308 -24 q 103 38 151 -24 q 54 196 54 99 m 1225 561 q 1197 461 1225 507 q 1117 378 1168 415 q 994 315 1065 342 q 837 274 922 289 q 653 256 751 258 l 679 353 q 813 366 749 356 q 928 394 876 376 q 1019 435 981 411 q 1079 485 1058 458 q 1100 539 1100 511 q 1077 592 1100 575 q 994 610 1054 610 q 881 597 933 610 q 775 549 828 583 l 757 661 q 872 705 813 689 q 1022 721 932 721 q 1169 678 1113 721 q 1225 561 1225 636 m 756 856 q 726 869 743 856 q 708 897 708 882 q 712 915 708 907 q 722 932 715 924 l 893 1144 q 915 1167 906 1161 q 936 1172 925 1172 q 967 1163 950 1172 q 997 1138 985 1153 q 1010 1106 1010 1122 q 1005 1088 1010 1094 q 992 1074 1000 1081 l 796 876 q 756 856 775 856 z "},"à":{"ha":865,"x_min":58,"x_max":835,"o":"m 250 -24 q 147 3 190 -24 q 81 82 104 31 q 58 203 58 133 q 76 335 58 264 q 128 474 93 406 q 217 598 164 542 q 343 688 271 654 q 507 721 415 721 q 597 707 553 721 q 681 669 642 693 l 682 675 q 705 708 692 700 q 743 715 718 715 q 799 702 788 715 q 801 661 810 689 l 636 160 q 628 124 631 142 q 632 94 625 106 q 660 82 639 82 q 694 92 678 82 q 726 117 711 101 q 751 149 740 133 q 774 165 760 161 q 810 156 789 169 q 833 127 832 142 q 826 97 835 113 q 788 45 814 74 q 726 -3 763 17 q 644 -22 690 -22 q 575 -10 601 -22 q 535 24 549 3 q 518 71 522 44 q 517 125 514 97 q 517 133 517 129 q 518 139 517 136 q 421 42 469 78 q 328 -9 372 6 q 250 -24 285 -24 m 183 218 q 195 147 183 175 q 231 103 207 118 q 289 88 256 88 q 385 119 336 88 q 482 210 433 150 q 576 351 531 269 l 650 576 q 578 604 613 597 q 508 611 543 611 q 385 585 439 611 q 292 514 331 558 q 230 417 254 469 q 194 312 206 364 q 183 218 183 260 m 606 865 q 585 872 596 865 q 564 897 575 879 l 451 1099 q 444 1114 447 1107 q 440 1129 440 1121 q 453 1158 440 1144 q 484 1179 465 1171 q 521 1188 503 1188 q 569 1143 553 1188 l 649 931 q 653 919 651 925 q 654 907 654 913 q 638 876 654 886 q 606 865 622 865 z "},"ā":{"ha":865,"x_min":58,"x_max":843,"o":"m 250 -24 q 147 3 190 -24 q 81 82 104 31 q 58 203 58 133 q 76 335 58 264 q 128 474 93 406 q 217 598 164 542 q 343 688 271 654 q 507 721 415 721 q 597 707 553 721 q 681 669 642 693 l 682 675 q 705 708 692 700 q 743 715 718 715 q 799 702 788 715 q 801 661 810 689 l 636 160 q 628 124 631 142 q 632 94 625 106 q 660 82 639 82 q 694 92 678 82 q 726 117 711 101 q 751 149 740 133 q 774 165 760 161 q 810 156 789 169 q 833 127 832 142 q 826 97 835 113 q 788 45 814 74 q 726 -3 763 17 q 644 -22 690 -22 q 575 -10 601 -22 q 535 24 549 3 q 518 71 522 44 q 517 125 514 97 q 517 133 517 129 q 518 139 517 136 q 421 42 469 78 q 328 -9 372 6 q 250 -24 285 -24 m 183 218 q 195 147 183 175 q 231 103 207 118 q 289 88 256 88 q 385 119 336 88 q 482 210 433 150 q 576 351 531 269 l 650 576 q 578 604 613 597 q 508 611 543 611 q 385 585 439 611 q 292 514 331 558 q 230 417 254 469 q 194 312 206 364 q 183 218 183 260 m 422 953 q 389 969 394 953 q 389 1011 383 986 q 408 1056 396 1040 q 446 1071 421 1071 l 804 1071 q 838 1054 832 1071 q 836 1011 843 1038 q 817 967 829 982 q 779 953 804 953 l 422 953 z "},"ą":{"ha":865,"x_min":58,"x_max":835,"o":"m 250 -24 q 147 3 190 -24 q 81 82 104 31 q 58 203 58 133 q 76 335 58 264 q 128 474 93 406 q 217 598 164 542 q 343 688 271 654 q 507 721 415 721 q 597 707 553 721 q 681 669 642 693 l 682 675 q 705 708 692 700 q 743 715 718 715 q 799 702 788 715 q 801 661 810 689 l 636 160 q 628 124 631 142 q 632 94 625 106 q 660 82 639 82 q 694 92 678 82 q 726 117 711 101 q 751 149 740 133 q 774 165 760 161 q 810 156 789 169 q 833 127 832 142 q 826 97 835 113 q 788 45 814 74 q 726 -3 763 17 q 644 -22 690 -22 q 575 -10 601 -22 q 535 24 549 3 q 518 71 522 44 q 517 125 514 97 q 517 133 517 129 q 518 139 517 136 q 421 42 469 78 q 328 -9 372 6 q 250 -24 285 -24 m 183 218 q 195 147 183 175 q 231 103 207 118 q 289 88 256 88 q 385 119 336 88 q 482 210 433 150 q 576 351 531 269 l 650 576 q 578 604 613 597 q 508 611 543 611 q 385 585 439 611 q 292 514 331 558 q 230 417 254 469 q 194 312 206 364 q 183 218 183 260 m 521 -339 q 448 -315 474 -339 q 422 -251 422 -290 q 444 -173 422 -211 q 503 -99 467 -135 q 586 -29 540 -64 q 681 40 632 6 l 772 42 l 772 33 q 689 -32 729 0 q 617 -94 649 -64 q 566 -151 585 -125 q 547 -200 547 -178 q 556 -224 547 -215 q 582 -232 565 -232 q 632 -216 607 -232 q 686 -174 657 -200 q 711 -162 697 -164 q 739 -174 725 -160 q 753 -197 749 -183 q 749 -225 758 -210 q 690 -281 728 -254 q 607 -323 651 -307 q 521 -339 563 -339 z "},"å":{"ha":865,"x_min":58,"x_max":835,"o":"m 250 -24 q 147 3 190 -24 q 81 82 104 31 q 58 203 58 133 q 76 335 58 264 q 128 474 93 406 q 217 598 164 542 q 343 688 271 654 q 507 721 415 721 q 597 707 553 721 q 681 669 642 693 l 682 675 q 705 708 692 700 q 743 715 718 715 q 799 702 788 715 q 801 661 810 689 l 636 160 q 628 124 631 142 q 632 94 625 106 q 660 82 639 82 q 694 92 678 82 q 726 117 711 101 q 751 149 740 133 q 774 165 760 161 q 810 156 789 169 q 833 127 832 142 q 826 97 835 113 q 788 45 814 74 q 726 -3 763 17 q 644 -22 690 -22 q 575 -10 601 -22 q 535 24 549 3 q 518 71 522 44 q 517 125 514 97 q 517 133 517 129 q 518 139 517 136 q 421 42 469 78 q 328 -9 372 6 q 250 -24 285 -24 m 183 218 q 195 147 183 175 q 231 103 207 118 q 289 88 256 88 q 385 119 336 88 q 482 210 433 150 q 576 351 531 269 l 650 576 q 578 604 613 597 q 508 611 543 611 q 385 585 439 611 q 292 514 331 558 q 230 417 254 469 q 194 312 206 364 q 183 218 183 260 m 585 835 q 467 876 508 835 q 425 993 425 917 q 453 1095 425 1050 q 531 1167 482 1140 q 638 1194 579 1194 q 761 1155 718 1194 q 804 1039 804 1115 q 776 935 804 982 q 697 862 747 889 q 585 835 647 835 m 592 918 q 647 935 622 918 q 688 978 672 951 q 703 1036 703 1006 q 685 1093 703 1075 q 632 1111 668 1111 q 580 1094 604 1111 q 541 1051 556 1078 q 526 994 526 1025 q 543 938 526 957 q 592 918 560 918 z "},"ã":{"ha":865,"x_min":58,"x_max":881,"o":"m 250 -24 q 147 3 190 -24 q 81 82 104 31 q 58 203 58 133 q 76 335 58 264 q 128 474 93 406 q 217 598 164 542 q 343 688 271 654 q 507 721 415 721 q 597 707 553 721 q 681 669 642 693 l 682 675 q 705 708 692 700 q 743 715 718 715 q 799 702 788 715 q 801 661 810 689 l 636 160 q 628 124 631 142 q 632 94 625 106 q 660 82 639 82 q 694 92 678 82 q 726 117 711 101 q 751 149 740 133 q 774 165 760 161 q 810 156 789 169 q 833 127 832 142 q 826 97 835 113 q 788 45 814 74 q 726 -3 763 17 q 644 -22 690 -22 q 575 -10 601 -22 q 535 24 549 3 q 518 71 522 44 q 517 125 514 97 q 517 133 517 129 q 518 139 517 136 q 421 42 469 78 q 328 -9 372 6 q 250 -24 285 -24 m 183 218 q 195 147 183 175 q 231 103 207 118 q 289 88 256 88 q 385 119 336 88 q 482 210 433 150 q 576 351 531 269 l 650 576 q 578 604 613 597 q 508 611 543 611 q 385 585 439 611 q 292 514 331 558 q 230 417 254 469 q 194 312 206 364 q 183 218 183 260 m 385 889 q 343 928 339 889 q 393 1066 353 1019 q 501 1113 433 1113 q 578 1097 546 1113 q 634 1060 610 1081 q 681 1024 658 1040 q 731 1008 703 1008 q 762 1026 749 1008 q 781 1078 775 1043 q 840 1115 789 1115 q 872 1106 863 1115 q 878 1078 881 1097 q 830 938 869 986 q 724 890 790 890 q 647 906 679 890 q 588 942 614 922 q 540 978 563 963 q 492 993 517 993 q 458 974 472 993 q 438 919 444 956 q 422 897 435 906 q 385 889 408 889 z "},"ắ":{"ha":865,"x_min":58,"x_max":896,"o":"m 250 -24 q 147 3 190 -24 q 81 82 104 31 q 58 203 58 133 q 76 335 58 264 q 128 474 93 406 q 217 598 164 542 q 343 688 271 654 q 507 721 415 721 q 597 707 553 721 q 681 669 642 693 l 682 675 q 705 708 692 700 q 743 715 718 715 q 799 702 788 715 q 801 661 810 689 l 636 160 q 628 124 631 142 q 632 94 625 106 q 660 82 639 82 q 694 92 678 82 q 726 117 711 101 q 751 149 740 133 q 774 165 760 161 q 810 156 789 169 q 833 127 832 142 q 826 97 835 113 q 788 45 814 74 q 726 -3 763 17 q 644 -22 690 -22 q 575 -10 601 -22 q 535 24 549 3 q 518 71 522 44 q 517 125 514 97 q 517 133 517 129 q 518 139 517 136 q 421 42 469 78 q 328 -9 372 6 q 250 -24 285 -24 m 183 218 q 195 147 183 175 q 231 103 207 118 q 289 88 256 88 q 385 119 336 88 q 482 210 433 150 q 576 351 531 269 l 650 576 q 578 604 613 597 q 508 611 543 611 q 385 585 439 611 q 292 514 331 558 q 230 417 254 469 q 194 312 206 364 q 183 218 183 260 m 582 858 q 426 931 475 858 q 401 1139 378 1004 q 417 1169 404 1160 q 453 1178 431 1178 q 490 1167 476 1178 q 501 1139 503 1156 q 524 1022 496 1063 q 603 981 551 981 q 712 1027 664 981 q 786 1133 760 1074 q 809 1167 797 1158 q 842 1175 821 1175 q 883 1163 869 1175 q 889 1129 896 1150 q 813 970 856 1029 q 715 885 771 911 q 582 858 658 858 m 625 1161 q 595 1174 613 1161 q 578 1203 578 1188 q 581 1221 578 1213 q 592 1238 585 1229 l 763 1450 q 785 1472 775 1467 q 806 1478 794 1478 q 837 1468 819 1478 q 867 1443 854 1458 q 879 1411 879 1428 q 874 1393 879 1400 q 861 1379 869 1386 l 665 1182 q 625 1161 644 1161 z "},"ặ":{"ha":865,"x_min":58,"x_max":888,"o":"m 250 -24 q 147 3 190 -24 q 81 82 104 31 q 58 203 58 133 q 76 335 58 264 q 128 474 93 406 q 217 598 164 542 q 343 688 271 654 q 507 721 415 721 q 597 707 553 721 q 681 669 642 693 l 682 675 q 705 708 692 700 q 743 715 718 715 q 799 702 788 715 q 801 661 810 689 l 636 160 q 628 124 631 142 q 632 94 625 106 q 660 82 639 82 q 694 92 678 82 q 726 117 711 101 q 751 149 740 133 q 774 165 760 161 q 810 156 789 169 q 833 127 832 142 q 826 97 835 113 q 788 45 814 74 q 726 -3 763 17 q 644 -22 690 -22 q 575 -10 601 -22 q 535 24 549 3 q 518 71 522 44 q 517 125 514 97 q 517 133 517 129 q 518 139 517 136 q 421 42 469 78 q 328 -9 372 6 q 250 -24 285 -24 m 183 218 q 195 147 183 175 q 231 103 207 118 q 289 88 256 88 q 385 119 336 88 q 482 210 433 150 q 576 351 531 269 l 650 576 q 578 604 613 597 q 508 611 543 611 q 385 585 439 611 q 292 514 331 558 q 230 417 254 469 q 194 312 206 364 q 183 218 183 260 m 228 -322 q 181 -304 200 -322 q 161 -251 161 -286 q 185 -181 161 -214 q 261 -147 210 -147 q 310 -165 290 -147 q 329 -218 329 -183 q 305 -290 329 -257 q 228 -322 281 -322 m 575 858 q 422 931 469 858 q 397 1139 374 1004 q 413 1169 401 1160 q 447 1178 425 1178 q 481 1167 468 1178 q 492 1139 494 1156 q 515 1021 486 1063 q 596 979 544 979 q 706 1026 657 979 q 781 1133 754 1074 q 803 1167 792 1158 q 836 1175 815 1175 q 874 1163 861 1175 q 879 1129 886 1150 q 806 970 847 1029 q 708 885 764 911 q 575 858 651 858 z "},"ằ":{"ha":865,"x_min":58,"x_max":896,"o":"m 250 -24 q 147 3 190 -24 q 81 82 104 31 q 58 203 58 133 q 76 335 58 264 q 128 474 93 406 q 217 598 164 542 q 343 688 271 654 q 507 721 415 721 q 597 707 553 721 q 681 669 642 693 l 682 675 q 705 708 692 700 q 743 715 718 715 q 799 702 788 715 q 801 661 810 689 l 636 160 q 628 124 631 142 q 632 94 625 106 q 660 82 639 82 q 694 92 678 82 q 726 117 711 101 q 751 149 740 133 q 774 165 760 161 q 810 156 789 169 q 833 127 832 142 q 826 97 835 113 q 788 45 814 74 q 726 -3 763 17 q 644 -22 690 -22 q 575 -10 601 -22 q 535 24 549 3 q 518 71 522 44 q 517 125 514 97 q 517 133 517 129 q 518 139 517 136 q 421 42 469 78 q 328 -9 372 6 q 250 -24 285 -24 m 183 218 q 195 147 183 175 q 231 103 207 118 q 289 88 256 88 q 385 119 336 88 q 482 210 433 150 q 576 351 531 269 l 650 576 q 578 604 613 597 q 508 611 543 611 q 385 585 439 611 q 292 514 331 558 q 230 417 254 469 q 194 312 206 364 q 183 218 183 260 m 582 858 q 426 931 475 858 q 401 1139 378 1004 q 417 1169 404 1160 q 453 1178 431 1178 q 490 1167 476 1178 q 501 1139 503 1156 q 524 1022 496 1063 q 603 981 551 981 q 712 1027 664 981 q 786 1133 760 1074 q 809 1167 797 1158 q 842 1175 821 1175 q 883 1163 869 1175 q 889 1129 896 1150 q 813 970 856 1029 q 715 885 771 911 q 582 858 658 858 m 683 1164 q 663 1171 674 1164 q 642 1196 653 1178 l 529 1397 q 522 1413 525 1406 q 518 1428 518 1419 q 531 1456 518 1443 q 562 1478 543 1469 q 599 1486 581 1486 q 647 1442 631 1486 l 726 1229 q 731 1217 729 1224 q 732 1206 732 1211 q 716 1174 732 1185 q 683 1164 700 1164 z "},"ẳ":{"ha":865,"x_min":58,"x_max":896,"o":"m 250 -24 q 147 3 190 -24 q 81 82 104 31 q 58 203 58 133 q 76 335 58 264 q 128 474 93 406 q 217 598 164 542 q 343 688 271 654 q 507 721 415 721 q 597 707 553 721 q 681 669 642 693 l 682 675 q 705 708 692 700 q 743 715 718 715 q 799 702 788 715 q 801 661 810 689 l 636 160 q 628 124 631 142 q 632 94 625 106 q 660 82 639 82 q 694 92 678 82 q 726 117 711 101 q 751 149 740 133 q 774 165 760 161 q 810 156 789 169 q 833 127 832 142 q 826 97 835 113 q 788 45 814 74 q 726 -3 763 17 q 644 -22 690 -22 q 575 -10 601 -22 q 535 24 549 3 q 518 71 522 44 q 517 125 514 97 q 517 133 517 129 q 518 139 517 136 q 421 42 469 78 q 328 -9 372 6 q 250 -24 285 -24 m 183 218 q 195 147 183 175 q 231 103 207 118 q 289 88 256 88 q 385 119 336 88 q 482 210 433 150 q 576 351 531 269 l 650 576 q 578 604 613 597 q 508 611 543 611 q 385 585 439 611 q 292 514 331 558 q 230 417 254 469 q 194 312 206 364 q 183 218 183 260 m 583 858 q 430 931 478 858 q 406 1139 382 1004 q 422 1169 410 1160 q 456 1178 433 1178 q 490 1167 476 1178 q 500 1139 503 1156 q 524 1021 494 1063 q 604 979 553 979 q 714 1026 665 979 q 789 1133 763 1074 q 812 1167 800 1158 q 844 1175 824 1175 q 882 1163 869 1175 q 888 1129 894 1150 q 814 970 856 1029 q 716 885 772 911 q 583 858 660 858 m 688 1456 q 792 1426 754 1456 q 829 1346 829 1397 q 808 1274 829 1304 q 746 1219 786 1243 q 705 1188 714 1201 q 696 1163 696 1175 l 696 1140 q 683 1114 696 1124 q 650 1103 669 1104 q 615 1110 631 1103 q 597 1132 600 1117 l 592 1172 q 600 1231 586 1206 q 647 1276 614 1256 q 683 1306 672 1293 q 694 1331 694 1318 q 685 1349 694 1343 q 660 1356 676 1356 q 621 1349 642 1356 q 576 1331 600 1342 q 549 1331 563 1322 q 525 1361 536 1339 q 546 1417 511 1394 q 613 1446 578 1436 q 688 1456 647 1456 z "},"ẵ":{"ha":865,"x_min":58,"x_max":965,"o":"m 250 -24 q 147 3 190 -24 q 81 82 104 31 q 58 203 58 133 q 76 335 58 264 q 128 474 93 406 q 217 598 164 542 q 343 688 271 654 q 507 721 415 721 q 597 707 553 721 q 681 669 642 693 l 682 675 q 705 708 692 700 q 743 715 718 715 q 799 702 788 715 q 801 661 810 689 l 636 160 q 628 124 631 142 q 632 94 625 106 q 660 82 639 82 q 694 92 678 82 q 726 117 711 101 q 751 149 740 133 q 774 165 760 161 q 810 156 789 169 q 833 127 832 142 q 826 97 835 113 q 788 45 814 74 q 726 -3 763 17 q 644 -22 690 -22 q 575 -10 601 -22 q 535 24 549 3 q 518 71 522 44 q 517 125 514 97 q 517 133 517 129 q 518 139 517 136 q 421 42 469 78 q 328 -9 372 6 q 250 -24 285 -24 m 183 218 q 195 147 183 175 q 231 103 207 118 q 289 88 256 88 q 385 119 336 88 q 482 210 433 150 q 576 351 531 269 l 650 576 q 578 604 613 597 q 508 611 543 611 q 385 585 439 611 q 292 514 331 558 q 230 417 254 469 q 194 312 206 364 q 183 218 183 260 m 575 858 q 422 931 469 858 q 397 1139 374 1004 q 413 1169 401 1160 q 447 1178 425 1178 q 481 1167 468 1178 q 492 1139 494 1156 q 515 1021 486 1063 q 596 979 544 979 q 706 1026 657 979 q 781 1133 754 1074 q 803 1167 792 1158 q 836 1175 815 1175 q 874 1163 861 1175 q 879 1129 886 1150 q 806 970 847 1029 q 708 885 764 911 q 575 858 651 858 m 469 1219 q 428 1258 424 1219 q 478 1397 438 1350 q 586 1443 518 1443 q 663 1427 631 1443 q 719 1391 694 1411 q 765 1355 743 1371 q 815 1339 788 1339 q 847 1356 833 1339 q 865 1408 860 1374 q 925 1446 874 1446 q 956 1437 947 1446 q 963 1408 965 1428 q 915 1269 954 1317 q 808 1221 875 1221 q 731 1237 764 1221 q 673 1273 699 1253 q 624 1308 647 1293 q 576 1324 601 1324 q 543 1305 557 1324 q 522 1250 529 1286 q 506 1228 519 1236 q 469 1219 493 1219 z "},"ấ":{"ha":865,"x_min":58,"x_max":1086,"o":"m 250 -24 q 147 3 190 -24 q 81 82 104 31 q 58 203 58 133 q 76 335 58 264 q 128 474 93 406 q 217 598 164 542 q 343 688 271 654 q 507 721 415 721 q 597 707 553 721 q 681 669 642 693 l 682 675 q 705 708 692 700 q 743 715 718 715 q 799 702 788 715 q 801 661 810 689 l 636 160 q 628 124 631 142 q 632 94 625 106 q 660 82 639 82 q 694 92 678 82 q 726 117 711 101 q 751 149 740 133 q 774 165 760 161 q 810 156 789 169 q 833 127 832 142 q 826 97 835 113 q 788 45 814 74 q 726 -3 763 17 q 644 -22 690 -22 q 575 -10 601 -22 q 535 24 549 3 q 518 71 522 44 q 517 125 514 97 q 517 133 517 129 q 518 139 517 136 q 421 42 469 78 q 328 -9 372 6 q 250 -24 285 -24 m 183 218 q 195 147 183 175 q 231 103 207 118 q 289 88 256 88 q 385 119 336 88 q 482 210 433 150 q 576 351 531 269 l 650 576 q 578 604 613 597 q 508 611 543 611 q 385 585 439 611 q 292 514 331 558 q 230 417 254 469 q 194 312 206 364 q 183 218 183 260 m 381 847 q 349 863 363 847 q 336 894 336 878 q 342 915 336 907 q 353 929 347 924 l 572 1136 q 611 1160 592 1154 q 653 1167 631 1167 q 687 1158 671 1167 q 711 1131 703 1149 l 825 918 q 832 901 831 908 q 833 888 833 894 q 813 859 833 871 q 779 847 793 847 q 758 854 765 847 q 743 869 750 861 l 624 1026 l 419 868 q 401 855 411 863 q 381 847 392 847 m 832 1064 q 802 1077 819 1064 q 785 1106 785 1090 q 788 1124 785 1115 q 799 1140 792 1132 l 969 1353 q 992 1375 982 1369 q 1013 1381 1001 1381 q 1044 1371 1026 1381 q 1074 1346 1061 1361 q 1086 1314 1086 1331 q 1081 1296 1086 1303 q 1068 1282 1076 1289 l 872 1085 q 832 1064 851 1064 z "},"ậ":{"ha":865,"x_min":58,"x_max":835,"o":"m 250 -24 q 147 3 190 -24 q 81 82 104 31 q 58 203 58 133 q 76 335 58 264 q 128 474 93 406 q 217 598 164 542 q 343 688 271 654 q 507 721 415 721 q 597 707 553 721 q 681 669 642 693 l 682 675 q 705 708 692 700 q 743 715 718 715 q 799 702 788 715 q 801 661 810 689 l 636 160 q 628 124 631 142 q 632 94 625 106 q 660 82 639 82 q 694 92 678 82 q 726 117 711 101 q 751 149 740 133 q 774 165 760 161 q 810 156 789 169 q 833 127 832 142 q 826 97 835 113 q 788 45 814 74 q 726 -3 763 17 q 644 -22 690 -22 q 575 -10 601 -22 q 535 24 549 3 q 518 71 522 44 q 517 125 514 97 q 517 133 517 129 q 518 139 517 136 q 421 42 469 78 q 328 -9 372 6 q 250 -24 285 -24 m 183 218 q 195 147 183 175 q 231 103 207 118 q 289 88 256 88 q 385 119 336 88 q 482 210 433 150 q 576 351 531 269 l 650 576 q 578 604 613 597 q 508 611 543 611 q 385 585 439 611 q 292 514 331 558 q 230 417 254 469 q 194 312 206 364 q 183 218 183 260 m 228 -322 q 181 -304 200 -322 q 161 -251 161 -286 q 185 -181 161 -214 q 261 -147 210 -147 q 310 -165 290 -147 q 329 -218 329 -183 q 305 -290 329 -257 q 228 -322 281 -322 m 381 847 q 349 863 363 847 q 336 894 336 878 q 342 915 336 907 q 353 929 347 924 l 572 1136 q 611 1160 592 1154 q 653 1167 631 1167 q 687 1158 671 1167 q 711 1131 703 1149 l 825 918 q 832 901 831 908 q 833 888 833 894 q 813 859 833 871 q 779 847 793 847 q 758 854 765 847 q 743 869 750 861 l 624 1026 l 419 868 q 401 855 411 863 q 381 847 392 847 z "},"ầ":{"ha":865,"x_min":58,"x_max":919,"o":"m 250 -24 q 147 3 190 -24 q 81 82 104 31 q 58 203 58 133 q 76 335 58 264 q 128 474 93 406 q 217 598 164 542 q 343 688 271 654 q 507 721 415 721 q 597 707 553 721 q 681 669 642 693 l 682 675 q 705 708 692 700 q 743 715 718 715 q 799 702 788 715 q 801 661 810 689 l 636 160 q 628 124 631 142 q 632 94 625 106 q 660 82 639 82 q 694 92 678 82 q 726 117 711 101 q 751 149 740 133 q 774 165 760 161 q 810 156 789 169 q 833 127 832 142 q 826 97 835 113 q 788 45 814 74 q 726 -3 763 17 q 644 -22 690 -22 q 575 -10 601 -22 q 535 24 549 3 q 518 71 522 44 q 517 125 514 97 q 517 133 517 129 q 518 139 517 136 q 421 42 469 78 q 328 -9 372 6 q 250 -24 285 -24 m 183 218 q 195 147 183 175 q 231 103 207 118 q 289 88 256 88 q 385 119 336 88 q 482 210 433 150 q 576 351 531 269 l 650 576 q 578 604 613 597 q 508 611 543 611 q 385 585 439 611 q 292 514 331 558 q 230 417 254 469 q 194 312 206 364 q 183 218 183 260 m 381 847 q 349 863 363 847 q 336 894 336 878 q 342 915 336 907 q 353 929 347 924 l 572 1136 q 611 1160 592 1154 q 653 1167 631 1167 q 687 1158 671 1167 q 711 1131 703 1149 l 825 918 q 832 901 831 908 q 833 888 833 894 q 813 859 833 871 q 779 847 793 847 q 758 854 765 847 q 743 869 750 861 l 624 1026 l 419 868 q 401 855 411 863 q 381 847 392 847 m 871 1074 q 851 1081 861 1074 q 829 1106 840 1088 l 717 1307 q 709 1322 713 1315 q 706 1338 706 1329 q 718 1366 706 1353 q 749 1388 731 1379 q 786 1396 768 1396 q 835 1351 818 1396 l 914 1139 q 918 1127 917 1133 q 919 1115 919 1121 q 903 1084 919 1094 q 871 1074 888 1074 z "},"ẩ":{"ha":865,"x_min":58,"x_max":1053,"o":"m 250 -24 q 147 3 190 -24 q 81 82 104 31 q 58 203 58 133 q 76 335 58 264 q 128 474 93 406 q 217 598 164 542 q 343 688 271 654 q 507 721 415 721 q 597 707 553 721 q 681 669 642 693 l 682 675 q 705 708 692 700 q 743 715 718 715 q 799 702 788 715 q 801 661 810 689 l 636 160 q 628 124 631 142 q 632 94 625 106 q 660 82 639 82 q 694 92 678 82 q 726 117 711 101 q 751 149 740 133 q 774 165 760 161 q 810 156 789 169 q 833 127 832 142 q 826 97 835 113 q 788 45 814 74 q 726 -3 763 17 q 644 -22 690 -22 q 575 -10 601 -22 q 535 24 549 3 q 518 71 522 44 q 517 125 514 97 q 517 133 517 129 q 518 139 517 136 q 421 42 469 78 q 328 -9 372 6 q 250 -24 285 -24 m 183 218 q 195 147 183 175 q 231 103 207 118 q 289 88 256 88 q 385 119 336 88 q 482 210 433 150 q 576 351 531 269 l 650 576 q 578 604 613 597 q 508 611 543 611 q 385 585 439 611 q 292 514 331 558 q 230 417 254 469 q 194 312 206 364 q 183 218 183 260 m 389 847 q 358 863 371 847 q 344 894 344 878 q 350 915 344 907 q 361 929 356 924 l 581 1136 q 619 1160 600 1154 q 661 1167 639 1167 q 695 1158 679 1167 q 719 1131 711 1149 l 833 918 q 840 901 839 908 q 842 888 842 894 q 822 859 842 871 q 788 847 801 847 q 766 854 774 847 q 751 869 758 861 l 632 1026 l 428 868 q 410 855 419 863 q 389 847 400 847 m 911 1393 q 1015 1364 978 1393 q 1053 1283 1053 1335 q 1031 1211 1053 1242 q 969 1157 1010 1181 q 928 1126 938 1139 q 919 1100 919 1114 l 919 1078 q 906 1052 919 1061 q 874 1042 893 1043 q 839 1047 854 1040 q 821 1069 824 1054 l 815 1111 q 824 1168 810 1143 q 871 1214 838 1193 q 907 1243 896 1231 q 918 1269 918 1256 q 909 1287 918 1281 q 883 1293 900 1293 q 844 1286 865 1293 q 800 1268 824 1279 q 773 1268 786 1260 q 749 1299 760 1276 q 769 1354 735 1332 q 836 1383 801 1374 q 911 1393 871 1393 z "},"ẫ":{"ha":865,"x_min":58,"x_max":958,"o":"m 250 -24 q 147 3 190 -24 q 81 82 104 31 q 58 203 58 133 q 76 335 58 264 q 128 474 93 406 q 217 598 164 542 q 343 688 271 654 q 507 721 415 721 q 597 707 553 721 q 681 669 642 693 l 682 675 q 705 708 692 700 q 743 715 718 715 q 799 702 788 715 q 801 661 810 689 l 636 160 q 628 124 631 142 q 632 94 625 106 q 660 82 639 82 q 694 92 678 82 q 726 117 711 101 q 751 149 740 133 q 774 165 760 161 q 810 156 789 169 q 833 127 832 142 q 826 97 835 113 q 788 45 814 74 q 726 -3 763 17 q 644 -22 690 -22 q 575 -10 601 -22 q 535 24 549 3 q 518 71 522 44 q 517 125 514 97 q 517 133 517 129 q 518 139 517 136 q 421 42 469 78 q 328 -9 372 6 q 250 -24 285 -24 m 183 218 q 195 147 183 175 q 231 103 207 118 q 289 88 256 88 q 385 119 336 88 q 482 210 433 150 q 576 351 531 269 l 650 576 q 578 604 613 597 q 508 611 543 611 q 385 585 439 611 q 292 514 331 558 q 230 417 254 469 q 194 312 206 364 q 183 218 183 260 m 381 847 q 349 863 363 847 q 336 894 336 878 q 342 915 336 907 q 353 929 347 924 l 572 1136 q 611 1160 592 1154 q 653 1167 631 1167 q 687 1158 671 1167 q 711 1131 703 1149 l 825 918 q 832 901 831 908 q 833 888 833 894 q 813 859 833 871 q 779 847 793 847 q 758 854 765 847 q 743 869 750 861 l 624 1026 l 419 868 q 401 855 411 863 q 381 847 392 847 m 463 1219 q 421 1258 417 1219 q 471 1397 431 1350 q 579 1443 511 1443 q 656 1427 624 1443 q 712 1391 688 1411 q 758 1355 736 1371 q 808 1339 781 1339 q 840 1356 826 1339 q 858 1408 853 1374 q 918 1446 867 1446 q 949 1437 940 1446 q 956 1408 958 1428 q 908 1269 947 1317 q 801 1221 868 1221 q 724 1237 757 1221 q 666 1273 692 1253 q 617 1308 640 1293 q 569 1324 594 1324 q 536 1305 550 1324 q 515 1250 522 1286 q 499 1228 513 1236 q 463 1219 486 1219 z "},"ạ":{"ha":865,"x_min":58,"x_max":835,"o":"m 250 -24 q 147 3 190 -24 q 81 82 104 31 q 58 203 58 133 q 76 335 58 264 q 128 474 93 406 q 217 598 164 542 q 343 688 271 654 q 507 721 415 721 q 597 707 553 721 q 681 669 642 693 l 682 675 q 705 708 692 700 q 743 715 718 715 q 799 702 788 715 q 801 661 810 689 l 636 160 q 628 124 631 142 q 632 94 625 106 q 660 82 639 82 q 694 92 678 82 q 726 117 711 101 q 751 149 740 133 q 774 165 760 161 q 810 156 789 169 q 833 127 832 142 q 826 97 835 113 q 788 45 814 74 q 726 -3 763 17 q 644 -22 690 -22 q 575 -10 601 -22 q 535 24 549 3 q 518 71 522 44 q 517 125 514 97 q 517 133 517 129 q 518 139 517 136 q 421 42 469 78 q 328 -9 372 6 q 250 -24 285 -24 m 183 218 q 195 147 183 175 q 231 103 207 118 q 289 88 256 88 q 385 119 336 88 q 482 210 433 150 q 576 351 531 269 l 650 576 q 578 604 613 597 q 508 611 543 611 q 385 585 439 611 q 292 514 331 558 q 230 417 254 469 q 194 312 206 364 q 183 218 183 260 m 226 -322 q 179 -304 199 -322 q 160 -251 160 -286 q 184 -181 160 -214 q 260 -147 208 -147 q 308 -165 289 -147 q 328 -218 328 -183 q 303 -290 328 -257 q 226 -322 279 -322 z "}}}
